<mxfile host="Electron" agent="Mozilla/5.0 (Windows NT 10.0; Win64; x64) AppleWebKit/537.36 (KHTML, like Gecko) draw.io/25.0.1 Chrome/128.0.6613.186 Electron/32.2.6 Safari/537.36" version="25.0.1">
  <diagram name="Page-1" id="3h0xx1Qamg4UTTMw1cyp">
    <mxGraphModel dx="3134" dy="1936" grid="1" gridSize="10" guides="1" tooltips="1" connect="1" arrows="1" fold="1" page="1" pageScale="1" pageWidth="850" pageHeight="1100" math="0" shadow="0">
      <root>
        <mxCell id="0" />
        <mxCell id="1" parent="0" />
        <mxCell id="jYLnMtY1XBDBMmt7jPl_-6" style="edgeStyle=orthogonalEdgeStyle;rounded=0;orthogonalLoop=1;jettySize=auto;html=1;endArrow=none;endFill=0;" parent="1" source="jYLnMtY1XBDBMmt7jPl_-40" target="jYLnMtY1XBDBMmt7jPl_-5" edge="1">
          <mxGeometry relative="1" as="geometry">
            <mxPoint x="250" y="815" as="sourcePoint" />
          </mxGeometry>
        </mxCell>
        <mxCell id="jYLnMtY1XBDBMmt7jPl_-22" style="rounded=0;orthogonalLoop=1;jettySize=auto;html=1;endArrow=none;endFill=0;" parent="1" source="jYLnMtY1XBDBMmt7jPl_-40" target="jYLnMtY1XBDBMmt7jPl_-50" edge="1">
          <mxGeometry relative="1" as="geometry">
            <mxPoint x="310" y="776.189847781913" as="sourcePoint" />
            <mxPoint x="393.25604169281064" y="746.2040061257392" as="targetPoint" />
          </mxGeometry>
        </mxCell>
        <mxCell id="jYLnMtY1XBDBMmt7jPl_-23" style="rounded=0;orthogonalLoop=1;jettySize=auto;html=1;endArrow=none;endFill=0;" parent="1" source="jYLnMtY1XBDBMmt7jPl_-40" target="jYLnMtY1XBDBMmt7jPl_-49" edge="1">
          <mxGeometry relative="1" as="geometry">
            <mxPoint x="310" y="755.7378583365087" as="sourcePoint" />
            <mxPoint x="374.19345866203116" y="696.8678557684027" as="targetPoint" />
          </mxGeometry>
        </mxCell>
        <mxCell id="jYLnMtY1XBDBMmt7jPl_-24" style="rounded=0;orthogonalLoop=1;jettySize=auto;html=1;endArrow=none;endFill=0;" parent="1" source="jYLnMtY1XBDBMmt7jPl_-40" target="jYLnMtY1XBDBMmt7jPl_-48" edge="1">
          <mxGeometry relative="1" as="geometry">
            <mxPoint x="274.22350675571647" y="755" as="sourcePoint" />
            <mxPoint x="293.715341906664" y="674.0413995049094" as="targetPoint" />
          </mxGeometry>
        </mxCell>
        <mxCell id="jYLnMtY1XBDBMmt7jPl_-25" style="rounded=0;orthogonalLoop=1;jettySize=auto;html=1;endArrow=none;endFill=0;" parent="1" source="jYLnMtY1XBDBMmt7jPl_-40" target="jYLnMtY1XBDBMmt7jPl_-44" edge="1">
          <mxGeometry relative="1" as="geometry">
            <mxPoint x="247.6666995300609" y="755" as="sourcePoint" />
            <mxPoint x="242.22003068106892" y="684.9704141944297" as="targetPoint" />
          </mxGeometry>
        </mxCell>
        <mxCell id="jYLnMtY1XBDBMmt7jPl_-26" style="rounded=0;orthogonalLoop=1;jettySize=auto;html=1;endArrow=none;endFill=0;" parent="1" source="jYLnMtY1XBDBMmt7jPl_-40" target="jYLnMtY1XBDBMmt7jPl_-38" edge="1">
          <mxGeometry relative="1" as="geometry">
            <mxPoint x="190" y="762.8755081116849" as="sourcePoint" />
            <mxPoint x="99.27946600028326" y="713.5624480676445" as="targetPoint" />
          </mxGeometry>
        </mxCell>
        <mxCell id="jYLnMtY1XBDBMmt7jPl_-27" style="rounded=0;orthogonalLoop=1;jettySize=auto;html=1;endArrow=none;endFill=0;" parent="1" source="jYLnMtY1XBDBMmt7jPl_-40" target="jYLnMtY1XBDBMmt7jPl_-37" edge="1">
          <mxGeometry relative="1" as="geometry">
            <mxPoint x="190" y="778.6887582538172" as="sourcePoint" />
            <mxPoint x="109.24474588205294" y="770.194593447474" as="targetPoint" />
          </mxGeometry>
        </mxCell>
        <mxCell id="jYLnMtY1XBDBMmt7jPl_-29" style="rounded=0;orthogonalLoop=1;jettySize=auto;html=1;endArrow=none;endFill=0;" parent="1" source="jYLnMtY1XBDBMmt7jPl_-40" target="jYLnMtY1XBDBMmt7jPl_-33" edge="1">
          <mxGeometry relative="1" as="geometry">
            <mxPoint x="310" y="797" as="sourcePoint" />
            <mxPoint x="402.0014385447066" y="816.1525593713388" as="targetPoint" />
          </mxGeometry>
        </mxCell>
        <mxCell id="jYLnMtY1XBDBMmt7jPl_-36" style="rounded=0;orthogonalLoop=1;jettySize=auto;html=1;endArrow=none;endFill=0;" parent="1" source="jYLnMtY1XBDBMmt7jPl_-40" target="jYLnMtY1XBDBMmt7jPl_-35" edge="1">
          <mxGeometry relative="1" as="geometry">
            <mxPoint x="212.48247037945248" y="755" as="sourcePoint" />
          </mxGeometry>
        </mxCell>
        <mxCell id="jYLnMtY1XBDBMmt7jPl_-7" style="edgeStyle=orthogonalEdgeStyle;rounded=0;orthogonalLoop=1;jettySize=auto;html=1;endArrow=none;endFill=0;" parent="1" source="jYLnMtY1XBDBMmt7jPl_-5" target="jYLnMtY1XBDBMmt7jPl_-53" edge="1">
          <mxGeometry relative="1" as="geometry">
            <mxPoint x="10" y="985" as="targetPoint" />
          </mxGeometry>
        </mxCell>
        <mxCell id="jYLnMtY1XBDBMmt7jPl_-8" style="edgeStyle=orthogonalEdgeStyle;rounded=0;orthogonalLoop=1;jettySize=auto;html=1;endArrow=none;endFill=0;" parent="1" source="jYLnMtY1XBDBMmt7jPl_-5" target="jYLnMtY1XBDBMmt7jPl_-54" edge="1">
          <mxGeometry relative="1" as="geometry">
            <mxPoint x="170" y="985" as="targetPoint" />
            <Array as="points">
              <mxPoint x="170" y="905" />
            </Array>
          </mxGeometry>
        </mxCell>
        <mxCell id="jYLnMtY1XBDBMmt7jPl_-9" style="edgeStyle=orthogonalEdgeStyle;rounded=0;orthogonalLoop=1;jettySize=auto;html=1;endArrow=none;endFill=0;" parent="1" source="jYLnMtY1XBDBMmt7jPl_-5" target="jYLnMtY1XBDBMmt7jPl_-55" edge="1">
          <mxGeometry relative="1" as="geometry">
            <mxPoint x="330" y="985" as="targetPoint" />
            <Array as="points">
              <mxPoint x="330" y="905" />
            </Array>
          </mxGeometry>
        </mxCell>
        <mxCell id="jYLnMtY1XBDBMmt7jPl_-11" style="edgeStyle=orthogonalEdgeStyle;rounded=0;orthogonalLoop=1;jettySize=auto;html=1;endArrow=none;endFill=0;" parent="1" source="jYLnMtY1XBDBMmt7jPl_-5" target="jYLnMtY1XBDBMmt7jPl_-56" edge="1">
          <mxGeometry relative="1" as="geometry">
            <mxPoint x="490" y="985" as="targetPoint" />
          </mxGeometry>
        </mxCell>
        <mxCell id="jYLnMtY1XBDBMmt7jPl_-5" value="" style="triangle;whiteSpace=wrap;html=1;direction=south;rounded=0;" parent="1" vertex="1">
          <mxGeometry x="210" y="875" width="80" height="60" as="geometry" />
        </mxCell>
        <mxCell id="jYLnMtY1XBDBMmt7jPl_-20" style="rounded=0;orthogonalLoop=1;jettySize=auto;html=1;endArrow=none;endFill=0;" parent="1" source="jYLnMtY1XBDBMmt7jPl_-50" target="jYLnMtY1XBDBMmt7jPl_-51" edge="1">
          <mxGeometry relative="1" as="geometry">
            <mxPoint x="470.8360380597301" y="716.8551706026681" as="sourcePoint" />
            <mxPoint x="498.6757204876808" y="702.7080862622555" as="targetPoint" />
          </mxGeometry>
        </mxCell>
        <mxCell id="jYLnMtY1XBDBMmt7jPl_-21" style="rounded=0;orthogonalLoop=1;jettySize=auto;html=1;endArrow=none;endFill=0;" parent="1" source="jYLnMtY1XBDBMmt7jPl_-50" target="jYLnMtY1XBDBMmt7jPl_-52" edge="1">
          <mxGeometry relative="1" as="geometry">
            <mxPoint x="478.9090204741774" y="741.5658348372601" as="sourcePoint" />
            <mxPoint x="521.0909795258162" y="748.4341651627389" as="targetPoint" />
          </mxGeometry>
        </mxCell>
        <mxCell id="8dKxabd2XOVw9RWuB_t7-23" style="rounded=0;orthogonalLoop=1;jettySize=auto;html=1;endArrow=none;endFill=0;" parent="1" source="jYLnMtY1XBDBMmt7jPl_-33" target="8dKxabd2XOVw9RWuB_t7-22" edge="1">
          <mxGeometry relative="1" as="geometry" />
        </mxCell>
        <mxCell id="8dKxabd2XOVw9RWuB_t7-24" style="rounded=0;orthogonalLoop=1;jettySize=auto;html=1;endArrow=none;endFill=0;" parent="1" source="jYLnMtY1XBDBMmt7jPl_-33" target="8dKxabd2XOVw9RWuB_t7-21" edge="1">
          <mxGeometry relative="1" as="geometry" />
        </mxCell>
        <mxCell id="jYLnMtY1XBDBMmt7jPl_-33" value="condiciones preexistentes" style="ellipse;shape=doubleEllipse;margin=3;whiteSpace=wrap;html=1;align=center;" parent="1" vertex="1">
          <mxGeometry x="350" y="710" width="100" height="40" as="geometry" />
        </mxCell>
        <mxCell id="jYLnMtY1XBDBMmt7jPl_-35" value="edad" style="ellipse;whiteSpace=wrap;html=1;align=center;dashed=1;" parent="1" vertex="1">
          <mxGeometry y="655" width="100" height="40" as="geometry" />
        </mxCell>
        <mxCell id="jYLnMtY1XBDBMmt7jPl_-37" value="idAnimal" style="ellipse;whiteSpace=wrap;html=1;align=center;fontStyle=4;" parent="1" vertex="1">
          <mxGeometry x="-10" y="755" width="100" height="40" as="geometry" />
        </mxCell>
        <mxCell id="jYLnMtY1XBDBMmt7jPl_-38" value="nombre" style="ellipse;whiteSpace=wrap;html=1;align=center;" parent="1" vertex="1">
          <mxGeometry x="-10" y="705" width="100" height="40" as="geometry" />
        </mxCell>
        <mxCell id="jYLnMtY1XBDBMmt7jPl_-108" style="edgeStyle=orthogonalEdgeStyle;rounded=0;orthogonalLoop=1;jettySize=auto;html=1;endArrow=none;endFill=0;" parent="1" source="jYLnMtY1XBDBMmt7jPl_-40" target="jYLnMtY1XBDBMmt7jPl_-109" edge="1">
          <mxGeometry relative="1" as="geometry">
            <mxPoint x="620" y="785" as="targetPoint" />
          </mxGeometry>
        </mxCell>
        <mxCell id="jYLnMtY1XBDBMmt7jPl_-112" value="(1,1)" style="edgeLabel;html=1;align=center;verticalAlign=middle;resizable=0;points=[];" parent="jYLnMtY1XBDBMmt7jPl_-108" vertex="1" connectable="0">
          <mxGeometry x="-0.8613" y="-2" relative="1" as="geometry">
            <mxPoint x="7" y="-12" as="offset" />
          </mxGeometry>
        </mxCell>
        <mxCell id="jYLnMtY1XBDBMmt7jPl_-113" value="&lt;font style=&quot;font-size: 21px;&quot;&gt;N:1&lt;/font&gt;" style="edgeLabel;html=1;align=center;verticalAlign=middle;resizable=0;points=[];" parent="jYLnMtY1XBDBMmt7jPl_-108" vertex="1" connectable="0">
          <mxGeometry x="0.8114" y="3" relative="1" as="geometry">
            <mxPoint x="81" y="-47" as="offset" />
          </mxGeometry>
        </mxCell>
        <mxCell id="jYLnMtY1XBDBMmt7jPl_-40" value="Animal" style="whiteSpace=wrap;html=1;align=center;" parent="1" vertex="1">
          <mxGeometry x="200" y="765" width="100" height="40" as="geometry" />
        </mxCell>
        <mxCell id="jYLnMtY1XBDBMmt7jPl_-44" value="fecha de nacimiento" style="ellipse;whiteSpace=wrap;html=1;align=center;" parent="1" vertex="1">
          <mxGeometry x="30" y="600" width="100" height="40" as="geometry" />
        </mxCell>
        <mxCell id="jYLnMtY1XBDBMmt7jPl_-48" value="raza" style="ellipse;whiteSpace=wrap;html=1;align=center;" parent="1" vertex="1">
          <mxGeometry x="140" y="635" width="100" height="40" as="geometry" />
        </mxCell>
        <mxCell id="jYLnMtY1XBDBMmt7jPl_-49" value="peso" style="ellipse;whiteSpace=wrap;html=1;align=center;" parent="1" vertex="1">
          <mxGeometry x="260" y="595" width="100" height="40" as="geometry" />
        </mxCell>
        <mxCell id="HlTitbdx7GmA0fprLowr-2" style="rounded=0;orthogonalLoop=1;jettySize=auto;html=1;endArrow=none;endFill=0;" parent="1" source="jYLnMtY1XBDBMmt7jPl_-50" target="HlTitbdx7GmA0fprLowr-1" edge="1">
          <mxGeometry relative="1" as="geometry" />
        </mxCell>
        <mxCell id="jYLnMtY1XBDBMmt7jPl_-50" value="dimensiones" style="ellipse;whiteSpace=wrap;html=1;align=center;" parent="1" vertex="1">
          <mxGeometry x="330" y="645" width="100" height="40" as="geometry" />
        </mxCell>
        <mxCell id="jYLnMtY1XBDBMmt7jPl_-51" value="altura" style="ellipse;whiteSpace=wrap;html=1;align=center;" parent="1" vertex="1">
          <mxGeometry x="350" y="560" width="100" height="40" as="geometry" />
        </mxCell>
        <mxCell id="jYLnMtY1XBDBMmt7jPl_-52" value="largo" style="ellipse;whiteSpace=wrap;html=1;align=center;" parent="1" vertex="1">
          <mxGeometry x="425" y="605" width="100" height="40" as="geometry" />
        </mxCell>
        <mxCell id="jYLnMtY1XBDBMmt7jPl_-53" value="Perro" style="whiteSpace=wrap;html=1;align=center;" parent="1" vertex="1">
          <mxGeometry x="-40" y="975" width="100" height="40" as="geometry" />
        </mxCell>
        <mxCell id="jYLnMtY1XBDBMmt7jPl_-54" value="Gato" style="whiteSpace=wrap;html=1;align=center;" parent="1" vertex="1">
          <mxGeometry x="120" y="975" width="100" height="40" as="geometry" />
        </mxCell>
        <mxCell id="jYLnMtY1XBDBMmt7jPl_-55" value="Conejo" style="whiteSpace=wrap;html=1;align=center;" parent="1" vertex="1">
          <mxGeometry x="280" y="975" width="100" height="40" as="geometry" />
        </mxCell>
        <mxCell id="jYLnMtY1XBDBMmt7jPl_-56" value="Tortuga" style="whiteSpace=wrap;html=1;align=center;" parent="1" vertex="1">
          <mxGeometry x="440" y="975" width="100" height="40" as="geometry" />
        </mxCell>
        <mxCell id="jYLnMtY1XBDBMmt7jPl_-66" style="edgeStyle=orthogonalEdgeStyle;rounded=0;orthogonalLoop=1;jettySize=auto;html=1;endArrow=none;endFill=0;" parent="1" source="r0H83FI5AYHTwfuRUeML-46" target="jYLnMtY1XBDBMmt7jPl_-63" edge="1">
          <mxGeometry relative="1" as="geometry">
            <mxPoint x="-240" y="250" as="sourcePoint" />
          </mxGeometry>
        </mxCell>
        <mxCell id="jYLnMtY1XBDBMmt7jPl_-124" style="rounded=0;orthogonalLoop=1;jettySize=auto;html=1;endArrow=none;endFill=0;" parent="1" source="r0H83FI5AYHTwfuRUeML-46" target="jYLnMtY1XBDBMmt7jPl_-122" edge="1">
          <mxGeometry relative="1" as="geometry">
            <mxPoint x="-206.46476994288014" y="230" as="sourcePoint" />
          </mxGeometry>
        </mxCell>
        <mxCell id="jYLnMtY1XBDBMmt7jPl_-125" style="rounded=0;orthogonalLoop=1;jettySize=auto;html=1;endArrow=none;endFill=0;" parent="1" source="r0H83FI5AYHTwfuRUeML-46" target="jYLnMtY1XBDBMmt7jPl_-123" edge="1">
          <mxGeometry relative="1" as="geometry">
            <mxPoint x="-222" y="230" as="sourcePoint" />
          </mxGeometry>
        </mxCell>
        <mxCell id="r0H83FI5AYHTwfuRUeML-3" style="edgeStyle=orthogonalEdgeStyle;rounded=0;orthogonalLoop=1;jettySize=auto;html=1;endArrow=none;endFill=0;" parent="1" source="r0H83FI5AYHTwfuRUeML-46" target="r0H83FI5AYHTwfuRUeML-2" edge="1">
          <mxGeometry relative="1" as="geometry">
            <mxPoint x="-140" y="250.0476190476188" as="sourcePoint" />
            <Array as="points">
              <mxPoint x="70" y="250" />
              <mxPoint x="70" y="-130" />
            </Array>
          </mxGeometry>
        </mxCell>
        <mxCell id="r0H83FI5AYHTwfuRUeML-76" value="&lt;font style=&quot;font-size: 21px;&quot;&gt;N&lt;/font&gt;" style="edgeLabel;html=1;align=center;verticalAlign=middle;resizable=0;points=[];" parent="r0H83FI5AYHTwfuRUeML-3" vertex="1" connectable="0">
          <mxGeometry x="-0.7743" y="3" relative="1" as="geometry">
            <mxPoint x="157" y="-397" as="offset" />
          </mxGeometry>
        </mxCell>
        <mxCell id="r0H83FI5AYHTwfuRUeML-19" style="edgeStyle=orthogonalEdgeStyle;rounded=0;orthogonalLoop=1;jettySize=auto;html=1;endArrow=none;endFill=0;" parent="1" source="r0H83FI5AYHTwfuRUeML-21" target="r0H83FI5AYHTwfuRUeML-18" edge="1">
          <mxGeometry relative="1" as="geometry">
            <Array as="points">
              <mxPoint x="-190" y="630" />
            </Array>
          </mxGeometry>
        </mxCell>
        <mxCell id="jYLnMtY1XBDBMmt7jPl_-119" style="rounded=0;orthogonalLoop=1;jettySize=auto;html=1;endArrow=none;endFill=0;" parent="1" source="jYLnMtY1XBDBMmt7jPl_-58" target="jYLnMtY1XBDBMmt7jPl_-118" edge="1">
          <mxGeometry relative="1" as="geometry" />
        </mxCell>
        <mxCell id="jYLnMtY1XBDBMmt7jPl_-121" style="rounded=0;orthogonalLoop=1;jettySize=auto;html=1;endArrow=none;endFill=0;" parent="1" source="jYLnMtY1XBDBMmt7jPl_-58" target="jYLnMtY1XBDBMmt7jPl_-120" edge="1">
          <mxGeometry relative="1" as="geometry" />
        </mxCell>
        <mxCell id="jYLnMtY1XBDBMmt7jPl_-58" value="Consulta de urgencia" style="whiteSpace=wrap;html=1;align=center;" parent="1" vertex="1">
          <mxGeometry x="-710" y="180" width="100" height="40" as="geometry" />
        </mxCell>
        <mxCell id="jYLnMtY1XBDBMmt7jPl_-68" style="rounded=0;orthogonalLoop=1;jettySize=auto;html=1;endArrow=none;endFill=0;" parent="1" source="jYLnMtY1XBDBMmt7jPl_-59" target="jYLnMtY1XBDBMmt7jPl_-67" edge="1">
          <mxGeometry relative="1" as="geometry" />
        </mxCell>
        <mxCell id="jYLnMtY1XBDBMmt7jPl_-59" value="Consulta rutinaria" style="whiteSpace=wrap;html=1;align=center;" parent="1" vertex="1">
          <mxGeometry x="-710" y="290" width="100" height="40" as="geometry" />
        </mxCell>
        <mxCell id="jYLnMtY1XBDBMmt7jPl_-64" style="edgeStyle=orthogonalEdgeStyle;rounded=0;orthogonalLoop=1;jettySize=auto;html=1;endArrow=none;endFill=0;" parent="1" source="jYLnMtY1XBDBMmt7jPl_-63" target="jYLnMtY1XBDBMmt7jPl_-58" edge="1">
          <mxGeometry relative="1" as="geometry" />
        </mxCell>
        <mxCell id="jYLnMtY1XBDBMmt7jPl_-65" style="edgeStyle=orthogonalEdgeStyle;rounded=0;orthogonalLoop=1;jettySize=auto;html=1;endArrow=none;endFill=0;" parent="1" source="jYLnMtY1XBDBMmt7jPl_-63" target="jYLnMtY1XBDBMmt7jPl_-59" edge="1">
          <mxGeometry relative="1" as="geometry" />
        </mxCell>
        <mxCell id="jYLnMtY1XBDBMmt7jPl_-63" value="" style="triangle;whiteSpace=wrap;html=1;direction=west;" parent="1" vertex="1">
          <mxGeometry x="-500" y="210" width="60" height="80" as="geometry" />
        </mxCell>
        <mxCell id="jYLnMtY1XBDBMmt7jPl_-67" value="fecha prox diagnóstico" style="ellipse;whiteSpace=wrap;html=1;align=center;" parent="1" vertex="1">
          <mxGeometry x="-830" y="380" width="100" height="40" as="geometry" />
        </mxCell>
        <mxCell id="jYLnMtY1XBDBMmt7jPl_-69" value="duracion aproximada" style="ellipse;whiteSpace=wrap;html=1;align=center;" parent="1" vertex="1">
          <mxGeometry x="-880" y="325" width="100" height="40" as="geometry" />
        </mxCell>
        <mxCell id="jYLnMtY1XBDBMmt7jPl_-70" style="rounded=0;orthogonalLoop=1;jettySize=auto;html=1;endArrow=none;endFill=0;" parent="1" source="jYLnMtY1XBDBMmt7jPl_-59" target="jYLnMtY1XBDBMmt7jPl_-69" edge="1">
          <mxGeometry relative="1" as="geometry">
            <mxPoint x="-650" y="340" as="sourcePoint" />
            <mxPoint x="-650" y="390" as="targetPoint" />
          </mxGeometry>
        </mxCell>
        <mxCell id="jYLnMtY1XBDBMmt7jPl_-73" style="rounded=0;orthogonalLoop=1;jettySize=auto;html=1;endArrow=none;endFill=0;" parent="1" source="jYLnMtY1XBDBMmt7jPl_-59" target="HlTitbdx7GmA0fprLowr-8" edge="1">
          <mxGeometry relative="1" as="geometry">
            <mxPoint x="-590" y="302.6375805660964" as="sourcePoint" />
            <mxPoint x="-744.7841768717967" y="293.5372533179125" as="targetPoint" />
          </mxGeometry>
        </mxCell>
        <mxCell id="jYLnMtY1XBDBMmt7jPl_-82" style="rounded=0;orthogonalLoop=1;jettySize=auto;html=1;endArrow=none;endFill=0;" parent="1" source="jYLnMtY1XBDBMmt7jPl_-76" target="jYLnMtY1XBDBMmt7jPl_-77" edge="1">
          <mxGeometry relative="1" as="geometry" />
        </mxCell>
        <mxCell id="jYLnMtY1XBDBMmt7jPl_-83" style="rounded=0;orthogonalLoop=1;jettySize=auto;html=1;endArrow=none;endFill=0;" parent="1" source="jYLnMtY1XBDBMmt7jPl_-76" target="jYLnMtY1XBDBMmt7jPl_-78" edge="1">
          <mxGeometry relative="1" as="geometry" />
        </mxCell>
        <mxCell id="jYLnMtY1XBDBMmt7jPl_-84" style="rounded=0;orthogonalLoop=1;jettySize=auto;html=1;endArrow=none;endFill=0;" parent="1" source="jYLnMtY1XBDBMmt7jPl_-76" target="jYLnMtY1XBDBMmt7jPl_-79" edge="1">
          <mxGeometry relative="1" as="geometry" />
        </mxCell>
        <mxCell id="jYLnMtY1XBDBMmt7jPl_-85" style="rounded=0;orthogonalLoop=1;jettySize=auto;html=1;endArrow=none;endFill=0;" parent="1" source="jYLnMtY1XBDBMmt7jPl_-76" target="jYLnMtY1XBDBMmt7jPl_-80" edge="1">
          <mxGeometry relative="1" as="geometry" />
        </mxCell>
        <mxCell id="jYLnMtY1XBDBMmt7jPl_-86" style="rounded=0;orthogonalLoop=1;jettySize=auto;html=1;endArrow=none;endFill=0;" parent="1" source="jYLnMtY1XBDBMmt7jPl_-76" target="jYLnMtY1XBDBMmt7jPl_-81" edge="1">
          <mxGeometry relative="1" as="geometry" />
        </mxCell>
        <mxCell id="jYLnMtY1XBDBMmt7jPl_-115" style="rounded=0;orthogonalLoop=1;jettySize=auto;html=1;endArrow=none;endFill=0;" parent="1" source="jYLnMtY1XBDBMmt7jPl_-76" target="jYLnMtY1XBDBMmt7jPl_-114" edge="1">
          <mxGeometry relative="1" as="geometry" />
        </mxCell>
        <mxCell id="jYLnMtY1XBDBMmt7jPl_-117" style="rounded=0;orthogonalLoop=1;jettySize=auto;html=1;endArrow=none;endFill=0;" parent="1" source="jYLnMtY1XBDBMmt7jPl_-76" target="jYLnMtY1XBDBMmt7jPl_-116" edge="1">
          <mxGeometry relative="1" as="geometry" />
        </mxCell>
        <mxCell id="jYLnMtY1XBDBMmt7jPl_-76" value="Dueño" style="whiteSpace=wrap;html=1;align=center;" parent="1" vertex="1">
          <mxGeometry x="1000" y="765" width="100" height="40" as="geometry" />
        </mxCell>
        <mxCell id="jYLnMtY1XBDBMmt7jPl_-90" style="rounded=0;orthogonalLoop=1;jettySize=auto;html=1;endArrow=none;endFill=0;" parent="1" source="jYLnMtY1XBDBMmt7jPl_-77" target="jYLnMtY1XBDBMmt7jPl_-87" edge="1">
          <mxGeometry relative="1" as="geometry" />
        </mxCell>
        <mxCell id="jYLnMtY1XBDBMmt7jPl_-91" style="rounded=0;orthogonalLoop=1;jettySize=auto;html=1;endArrow=none;endFill=0;" parent="1" source="jYLnMtY1XBDBMmt7jPl_-77" target="jYLnMtY1XBDBMmt7jPl_-88" edge="1">
          <mxGeometry relative="1" as="geometry" />
        </mxCell>
        <mxCell id="jYLnMtY1XBDBMmt7jPl_-92" style="rounded=0;orthogonalLoop=1;jettySize=auto;html=1;endArrow=none;endFill=0;" parent="1" source="jYLnMtY1XBDBMmt7jPl_-77" target="jYLnMtY1XBDBMmt7jPl_-89" edge="1">
          <mxGeometry relative="1" as="geometry" />
        </mxCell>
        <mxCell id="jYLnMtY1XBDBMmt7jPl_-77" value="nombre completo" style="ellipse;whiteSpace=wrap;html=1;align=center;" parent="1" vertex="1">
          <mxGeometry x="940" y="695" width="100" height="40" as="geometry" />
        </mxCell>
        <mxCell id="jYLnMtY1XBDBMmt7jPl_-97" style="rounded=0;orthogonalLoop=1;jettySize=auto;html=1;endArrow=none;endFill=0;" parent="1" source="jYLnMtY1XBDBMmt7jPl_-78" target="jYLnMtY1XBDBMmt7jPl_-93" edge="1">
          <mxGeometry relative="1" as="geometry" />
        </mxCell>
        <mxCell id="jYLnMtY1XBDBMmt7jPl_-98" style="rounded=0;orthogonalLoop=1;jettySize=auto;html=1;endArrow=none;endFill=0;" parent="1" source="jYLnMtY1XBDBMmt7jPl_-78" target="jYLnMtY1XBDBMmt7jPl_-94" edge="1">
          <mxGeometry relative="1" as="geometry" />
        </mxCell>
        <mxCell id="jYLnMtY1XBDBMmt7jPl_-99" style="rounded=0;orthogonalLoop=1;jettySize=auto;html=1;endArrow=none;endFill=0;" parent="1" source="jYLnMtY1XBDBMmt7jPl_-78" target="jYLnMtY1XBDBMmt7jPl_-95" edge="1">
          <mxGeometry relative="1" as="geometry" />
        </mxCell>
        <mxCell id="jYLnMtY1XBDBMmt7jPl_-100" style="rounded=0;orthogonalLoop=1;jettySize=auto;html=1;endArrow=none;endFill=0;" parent="1" source="jYLnMtY1XBDBMmt7jPl_-78" target="jYLnMtY1XBDBMmt7jPl_-96" edge="1">
          <mxGeometry relative="1" as="geometry" />
        </mxCell>
        <mxCell id="jYLnMtY1XBDBMmt7jPl_-78" value="dirección" style="ellipse;whiteSpace=wrap;html=1;align=center;" parent="1" vertex="1">
          <mxGeometry x="1100" y="665" width="100" height="40" as="geometry" />
        </mxCell>
        <mxCell id="jYLnMtY1XBDBMmt7jPl_-79" value="teléfono" style="ellipse;whiteSpace=wrap;html=1;align=center;" parent="1" vertex="1">
          <mxGeometry x="1130" y="725" width="100" height="40" as="geometry" />
        </mxCell>
        <mxCell id="jYLnMtY1XBDBMmt7jPl_-80" value="correo electrónico" style="ellipse;whiteSpace=wrap;html=1;align=center;" parent="1" vertex="1">
          <mxGeometry x="1140" y="775" width="100" height="40" as="geometry" />
        </mxCell>
        <mxCell id="jYLnMtY1XBDBMmt7jPl_-81" value="fecha de alta" style="ellipse;whiteSpace=wrap;html=1;align=center;" parent="1" vertex="1">
          <mxGeometry x="1070" y="865" width="100" height="40" as="geometry" />
        </mxCell>
        <mxCell id="jYLnMtY1XBDBMmt7jPl_-87" value="nombre" style="ellipse;whiteSpace=wrap;html=1;align=center;" parent="1" vertex="1">
          <mxGeometry x="820" y="675" width="100" height="40" as="geometry" />
        </mxCell>
        <mxCell id="jYLnMtY1XBDBMmt7jPl_-88" value="apellido 1" style="ellipse;whiteSpace=wrap;html=1;align=center;" parent="1" vertex="1">
          <mxGeometry x="830" y="620" width="100" height="40" as="geometry" />
        </mxCell>
        <mxCell id="jYLnMtY1XBDBMmt7jPl_-89" value="apellido 2" style="ellipse;whiteSpace=wrap;html=1;align=center;" parent="1" vertex="1">
          <mxGeometry x="930" y="615" width="100" height="40" as="geometry" />
        </mxCell>
        <mxCell id="jYLnMtY1XBDBMmt7jPl_-104" style="rounded=0;orthogonalLoop=1;jettySize=auto;html=1;endArrow=none;endFill=0;" parent="1" source="jYLnMtY1XBDBMmt7jPl_-93" target="jYLnMtY1XBDBMmt7jPl_-101" edge="1">
          <mxGeometry relative="1" as="geometry" />
        </mxCell>
        <mxCell id="jYLnMtY1XBDBMmt7jPl_-105" style="rounded=0;orthogonalLoop=1;jettySize=auto;html=1;endArrow=none;endFill=0;" parent="1" source="jYLnMtY1XBDBMmt7jPl_-93" target="jYLnMtY1XBDBMmt7jPl_-102" edge="1">
          <mxGeometry relative="1" as="geometry" />
        </mxCell>
        <mxCell id="jYLnMtY1XBDBMmt7jPl_-106" style="rounded=0;orthogonalLoop=1;jettySize=auto;html=1;endArrow=none;endFill=0;" parent="1" source="jYLnMtY1XBDBMmt7jPl_-93" target="jYLnMtY1XBDBMmt7jPl_-103" edge="1">
          <mxGeometry relative="1" as="geometry" />
        </mxCell>
        <mxCell id="jYLnMtY1XBDBMmt7jPl_-93" value="calle" style="ellipse;whiteSpace=wrap;html=1;align=center;" parent="1" vertex="1">
          <mxGeometry x="1280" y="595" width="100" height="40" as="geometry" />
        </mxCell>
        <mxCell id="jYLnMtY1XBDBMmt7jPl_-94" value="código postal" style="ellipse;whiteSpace=wrap;html=1;align=center;" parent="1" vertex="1">
          <mxGeometry x="1280" y="645" width="100" height="40" as="geometry" />
        </mxCell>
        <mxCell id="jYLnMtY1XBDBMmt7jPl_-95" value="país" style="ellipse;whiteSpace=wrap;html=1;align=center;" parent="1" vertex="1">
          <mxGeometry x="1280" y="695" width="100" height="40" as="geometry" />
        </mxCell>
        <mxCell id="jYLnMtY1XBDBMmt7jPl_-96" value="región" style="ellipse;whiteSpace=wrap;html=1;align=center;" parent="1" vertex="1">
          <mxGeometry x="1280" y="745" width="100" height="40" as="geometry" />
        </mxCell>
        <mxCell id="jYLnMtY1XBDBMmt7jPl_-101" value="nombreCalle" style="ellipse;whiteSpace=wrap;html=1;align=center;" parent="1" vertex="1">
          <mxGeometry x="1450" y="545" width="100" height="40" as="geometry" />
        </mxCell>
        <mxCell id="jYLnMtY1XBDBMmt7jPl_-102" value="tipo de vía" style="ellipse;whiteSpace=wrap;html=1;align=center;" parent="1" vertex="1">
          <mxGeometry x="1450" y="595" width="100" height="40" as="geometry" />
        </mxCell>
        <mxCell id="jYLnMtY1XBDBMmt7jPl_-103" value="número" style="ellipse;whiteSpace=wrap;html=1;align=center;" parent="1" vertex="1">
          <mxGeometry x="1450" y="645" width="100" height="40" as="geometry" />
        </mxCell>
        <mxCell id="jYLnMtY1XBDBMmt7jPl_-110" style="edgeStyle=orthogonalEdgeStyle;rounded=0;orthogonalLoop=1;jettySize=auto;html=1;endArrow=none;endFill=0;" parent="1" source="jYLnMtY1XBDBMmt7jPl_-109" target="jYLnMtY1XBDBMmt7jPl_-76" edge="1">
          <mxGeometry relative="1" as="geometry" />
        </mxCell>
        <mxCell id="jYLnMtY1XBDBMmt7jPl_-111" value="(1,n)" style="edgeLabel;html=1;align=center;verticalAlign=middle;resizable=0;points=[];" parent="jYLnMtY1XBDBMmt7jPl_-110" vertex="1" connectable="0">
          <mxGeometry x="0.6361" y="3" relative="1" as="geometry">
            <mxPoint x="19" y="-7" as="offset" />
          </mxGeometry>
        </mxCell>
        <mxCell id="jYLnMtY1XBDBMmt7jPl_-109" value="pertenece a" style="rhombus;whiteSpace=wrap;html=1;" parent="1" vertex="1">
          <mxGeometry x="630" y="755" width="100" height="60" as="geometry" />
        </mxCell>
        <mxCell id="jYLnMtY1XBDBMmt7jPl_-114" value="fecha nacimiento" style="ellipse;whiteSpace=wrap;html=1;align=center;" parent="1" vertex="1">
          <mxGeometry x="1150" y="825" width="100" height="40" as="geometry" />
        </mxCell>
        <mxCell id="jYLnMtY1XBDBMmt7jPl_-116" value="idDueño" style="ellipse;whiteSpace=wrap;html=1;align=center;fontStyle=4;" parent="1" vertex="1">
          <mxGeometry x="970" y="835" width="100" height="40" as="geometry" />
        </mxCell>
        <mxCell id="jYLnMtY1XBDBMmt7jPl_-118" value="descripción" style="ellipse;whiteSpace=wrap;html=1;align=center;" parent="1" vertex="1">
          <mxGeometry x="-770" y="100" width="100" height="40" as="geometry" />
        </mxCell>
        <mxCell id="jYLnMtY1XBDBMmt7jPl_-120" value="estado actual" style="ellipse;whiteSpace=wrap;html=1;align=center;" parent="1" vertex="1">
          <mxGeometry x="-660" y="100" width="100" height="40" as="geometry" />
        </mxCell>
        <mxCell id="jYLnMtY1XBDBMmt7jPl_-122" value="idConsulta" style="ellipse;whiteSpace=wrap;html=1;align=center;fontStyle=4" parent="1" vertex="1">
          <mxGeometry x="-500" y="60" width="100" height="40" as="geometry" />
        </mxCell>
        <mxCell id="jYLnMtY1XBDBMmt7jPl_-123" value="fecha" style="ellipse;whiteSpace=wrap;html=1;align=center;" parent="1" vertex="1">
          <mxGeometry x="-520" y="130" width="100" height="40" as="geometry" />
        </mxCell>
        <mxCell id="jYLnMtY1XBDBMmt7jPl_-130" style="edgeStyle=orthogonalEdgeStyle;rounded=0;orthogonalLoop=1;jettySize=auto;html=1;endArrow=none;endFill=0;" parent="1" source="r0H83FI5AYHTwfuRUeML-18" target="jYLnMtY1XBDBMmt7jPl_-129" edge="1">
          <mxGeometry relative="1" as="geometry">
            <mxPoint x="-570" y="650" as="sourcePoint" />
          </mxGeometry>
        </mxCell>
        <mxCell id="jYLnMtY1XBDBMmt7jPl_-155" style="rounded=0;orthogonalLoop=1;jettySize=auto;html=1;endArrow=none;endFill=0;" parent="1" source="r0H83FI5AYHTwfuRUeML-18" target="jYLnMtY1XBDBMmt7jPl_-154" edge="1">
          <mxGeometry relative="1" as="geometry">
            <mxPoint x="-591.1691325319671" y="610" as="sourcePoint" />
          </mxGeometry>
        </mxCell>
        <mxCell id="jYLnMtY1XBDBMmt7jPl_-156" style="rounded=0;orthogonalLoop=1;jettySize=auto;html=1;endArrow=none;endFill=0;" parent="1" source="r0H83FI5AYHTwfuRUeML-18" target="jYLnMtY1XBDBMmt7jPl_-153" edge="1">
          <mxGeometry relative="1" as="geometry">
            <mxPoint x="-568.4002594344036" y="610" as="sourcePoint" />
          </mxGeometry>
        </mxCell>
        <mxCell id="jYLnMtY1XBDBMmt7jPl_-178" style="edgeStyle=orthogonalEdgeStyle;rounded=0;orthogonalLoop=1;jettySize=auto;html=1;endArrow=none;endFill=0;" parent="1" source="r0H83FI5AYHTwfuRUeML-18" target="r0H83FI5AYHTwfuRUeML-17" edge="1">
          <mxGeometry relative="1" as="geometry">
            <mxPoint x="-800" y="630" as="targetPoint" />
            <mxPoint x="-620" y="630" as="sourcePoint" />
          </mxGeometry>
        </mxCell>
        <mxCell id="jYLnMtY1XBDBMmt7jPl_-182" value="(1,1)" style="edgeLabel;html=1;align=center;verticalAlign=middle;resizable=0;points=[];" parent="jYLnMtY1XBDBMmt7jPl_-178" vertex="1" connectable="0">
          <mxGeometry x="-0.5824" y="-1" relative="1" as="geometry">
            <mxPoint x="8" y="-9" as="offset" />
          </mxGeometry>
        </mxCell>
        <mxCell id="jYLnMtY1XBDBMmt7jPl_-127" value="Sala de cirugía" style="whiteSpace=wrap;html=1;align=center;" parent="1" vertex="1">
          <mxGeometry x="-740" y="780" width="100" height="40" as="geometry" />
        </mxCell>
        <mxCell id="jYLnMtY1XBDBMmt7jPl_-145" style="edgeStyle=orthogonalEdgeStyle;rounded=0;orthogonalLoop=1;jettySize=auto;html=1;endArrow=none;endFill=0;" parent="1" source="jYLnMtY1XBDBMmt7jPl_-128" target="jYLnMtY1XBDBMmt7jPl_-144" edge="1">
          <mxGeometry relative="1" as="geometry">
            <mxPoint x="-421" y="800" as="sourcePoint" />
            <mxPoint x="-331" y="930" as="targetPoint" />
            <Array as="points">
              <mxPoint x="-580" y="920" />
              <mxPoint x="-510" y="920" />
            </Array>
          </mxGeometry>
        </mxCell>
        <mxCell id="jYLnMtY1XBDBMmt7jPl_-150" value="(0,1)" style="edgeLabel;html=1;align=center;verticalAlign=middle;resizable=0;points=[];" parent="jYLnMtY1XBDBMmt7jPl_-145" vertex="1" connectable="0">
          <mxGeometry x="-0.7485" y="1" relative="1" as="geometry">
            <mxPoint x="-20" y="-43" as="offset" />
          </mxGeometry>
        </mxCell>
        <mxCell id="jYLnMtY1XBDBMmt7jPl_-152" value="&lt;font style=&quot;font-size: 21px;&quot;&gt;1:1&lt;/font&gt;" style="edgeLabel;html=1;align=center;verticalAlign=middle;resizable=0;points=[];" parent="jYLnMtY1XBDBMmt7jPl_-145" vertex="1" connectable="0">
          <mxGeometry x="0.8252" y="2" relative="1" as="geometry">
            <mxPoint x="-42" y="81" as="offset" />
          </mxGeometry>
        </mxCell>
        <mxCell id="r0H83FI5AYHTwfuRUeML-62" value="(0,1)" style="edgeLabel;html=1;align=center;verticalAlign=middle;resizable=0;points=[];" parent="jYLnMtY1XBDBMmt7jPl_-145" vertex="1" connectable="0">
          <mxGeometry x="-0.7905" relative="1" as="geometry">
            <mxPoint x="20" y="-11" as="offset" />
          </mxGeometry>
        </mxCell>
        <mxCell id="jYLnMtY1XBDBMmt7jPl_-128" value="Sala de tratamiento" style="whiteSpace=wrap;html=1;align=center;" parent="1" vertex="1">
          <mxGeometry x="-630" y="780" width="100" height="40" as="geometry" />
        </mxCell>
        <mxCell id="jYLnMtY1XBDBMmt7jPl_-131" style="edgeStyle=orthogonalEdgeStyle;rounded=0;orthogonalLoop=1;jettySize=auto;html=1;endArrow=none;endFill=0;" parent="1" source="jYLnMtY1XBDBMmt7jPl_-129" target="jYLnMtY1XBDBMmt7jPl_-127" edge="1">
          <mxGeometry relative="1" as="geometry" />
        </mxCell>
        <mxCell id="jYLnMtY1XBDBMmt7jPl_-132" style="edgeStyle=orthogonalEdgeStyle;rounded=0;orthogonalLoop=1;jettySize=auto;html=1;endArrow=none;endFill=0;" parent="1" source="jYLnMtY1XBDBMmt7jPl_-129" target="jYLnMtY1XBDBMmt7jPl_-128" edge="1">
          <mxGeometry relative="1" as="geometry" />
        </mxCell>
        <mxCell id="jYLnMtY1XBDBMmt7jPl_-158" style="edgeStyle=orthogonalEdgeStyle;rounded=0;orthogonalLoop=1;jettySize=auto;html=1;endArrow=none;endFill=0;" parent="1" source="jYLnMtY1XBDBMmt7jPl_-129" target="jYLnMtY1XBDBMmt7jPl_-157" edge="1">
          <mxGeometry relative="1" as="geometry" />
        </mxCell>
        <mxCell id="r0H83FI5AYHTwfuRUeML-26" style="edgeStyle=orthogonalEdgeStyle;rounded=0;orthogonalLoop=1;jettySize=auto;html=1;endArrow=none;endFill=0;" parent="1" source="jYLnMtY1XBDBMmt7jPl_-129" target="r0H83FI5AYHTwfuRUeML-25" edge="1">
          <mxGeometry relative="1" as="geometry" />
        </mxCell>
        <mxCell id="jYLnMtY1XBDBMmt7jPl_-129" value="" style="triangle;whiteSpace=wrap;html=1;direction=south;" parent="1" vertex="1">
          <mxGeometry x="-610" y="700" width="80" height="60" as="geometry" />
        </mxCell>
        <mxCell id="jYLnMtY1XBDBMmt7jPl_-200" style="rounded=0;orthogonalLoop=1;jettySize=auto;html=1;endArrow=none;endFill=0;" parent="1" source="jYLnMtY1XBDBMmt7jPl_-133" target="jYLnMtY1XBDBMmt7jPl_-193" edge="1">
          <mxGeometry relative="1" as="geometry" />
        </mxCell>
        <mxCell id="jYLnMtY1XBDBMmt7jPl_-207" style="rounded=0;orthogonalLoop=1;jettySize=auto;html=1;endArrow=none;endFill=0;" parent="1" source="jYLnMtY1XBDBMmt7jPl_-133" target="jYLnMtY1XBDBMmt7jPl_-201" edge="1">
          <mxGeometry relative="1" as="geometry" />
        </mxCell>
        <mxCell id="jYLnMtY1XBDBMmt7jPl_-208" style="rounded=0;orthogonalLoop=1;jettySize=auto;html=1;endArrow=none;endFill=0;" parent="1" source="jYLnMtY1XBDBMmt7jPl_-133" target="jYLnMtY1XBDBMmt7jPl_-202" edge="1">
          <mxGeometry relative="1" as="geometry" />
        </mxCell>
        <mxCell id="jYLnMtY1XBDBMmt7jPl_-209" style="rounded=0;orthogonalLoop=1;jettySize=auto;html=1;endArrow=none;endFill=0;" parent="1" source="jYLnMtY1XBDBMmt7jPl_-133" target="jYLnMtY1XBDBMmt7jPl_-203" edge="1">
          <mxGeometry relative="1" as="geometry" />
        </mxCell>
        <mxCell id="jYLnMtY1XBDBMmt7jPl_-210" style="rounded=0;orthogonalLoop=1;jettySize=auto;html=1;endArrow=none;endFill=0;" parent="1" source="jYLnMtY1XBDBMmt7jPl_-133" target="jYLnMtY1XBDBMmt7jPl_-204" edge="1">
          <mxGeometry relative="1" as="geometry" />
        </mxCell>
        <mxCell id="jYLnMtY1XBDBMmt7jPl_-211" style="rounded=0;orthogonalLoop=1;jettySize=auto;html=1;endArrow=none;endFill=0;" parent="1" source="jYLnMtY1XBDBMmt7jPl_-133" target="jYLnMtY1XBDBMmt7jPl_-205" edge="1">
          <mxGeometry relative="1" as="geometry" />
        </mxCell>
        <mxCell id="jYLnMtY1XBDBMmt7jPl_-212" style="rounded=0;orthogonalLoop=1;jettySize=auto;html=1;endArrow=none;endFill=0;" parent="1" source="jYLnMtY1XBDBMmt7jPl_-133" target="jYLnMtY1XBDBMmt7jPl_-206" edge="1">
          <mxGeometry relative="1" as="geometry" />
        </mxCell>
        <mxCell id="jYLnMtY1XBDBMmt7jPl_-228" style="rounded=0;orthogonalLoop=1;jettySize=auto;html=1;endArrow=none;endFill=0;" parent="1" source="jYLnMtY1XBDBMmt7jPl_-133" target="jYLnMtY1XBDBMmt7jPl_-217" edge="1">
          <mxGeometry relative="1" as="geometry" />
        </mxCell>
        <mxCell id="jYLnMtY1XBDBMmt7jPl_-231" style="rounded=0;orthogonalLoop=1;jettySize=auto;html=1;endArrow=none;endFill=0;" parent="1" source="jYLnMtY1XBDBMmt7jPl_-133" target="jYLnMtY1XBDBMmt7jPl_-230" edge="1">
          <mxGeometry relative="1" as="geometry" />
        </mxCell>
        <mxCell id="jYLnMtY1XBDBMmt7jPl_-232" style="rounded=0;orthogonalLoop=1;jettySize=auto;html=1;endArrow=none;endFill=0;" parent="1" source="jYLnMtY1XBDBMmt7jPl_-133" target="jYLnMtY1XBDBMmt7jPl_-229" edge="1">
          <mxGeometry relative="1" as="geometry" />
        </mxCell>
        <mxCell id="jYLnMtY1XBDBMmt7jPl_-133" value="Empleado" style="whiteSpace=wrap;html=1;align=center;" parent="1" vertex="1">
          <mxGeometry x="-740" y="1110" width="100" height="40" as="geometry" />
        </mxCell>
        <mxCell id="jYLnMtY1XBDBMmt7jPl_-185" style="edgeStyle=orthogonalEdgeStyle;rounded=0;orthogonalLoop=1;jettySize=auto;html=1;endArrow=none;endFill=0;" parent="1" source="jYLnMtY1XBDBMmt7jPl_-133" target="jYLnMtY1XBDBMmt7jPl_-186" edge="1">
          <mxGeometry relative="1" as="geometry">
            <mxPoint x="-1090" y="930" as="targetPoint" />
            <Array as="points">
              <mxPoint x="-690" y="1330" />
              <mxPoint x="-1350" y="1330" />
            </Array>
          </mxGeometry>
        </mxCell>
        <mxCell id="jYLnMtY1XBDBMmt7jPl_-189" value="(0,1)" style="edgeLabel;html=1;align=center;verticalAlign=middle;resizable=0;points=[];" parent="jYLnMtY1XBDBMmt7jPl_-185" vertex="1" connectable="0">
          <mxGeometry x="-0.8447" y="2" relative="1" as="geometry">
            <mxPoint x="19" y="-78" as="offset" />
          </mxGeometry>
        </mxCell>
        <mxCell id="jYLnMtY1XBDBMmt7jPl_-190" value="&lt;font style=&quot;font-size: 21px;&quot;&gt;1:1&lt;/font&gt;" style="edgeLabel;html=1;align=center;verticalAlign=middle;resizable=0;points=[];" parent="jYLnMtY1XBDBMmt7jPl_-185" vertex="1" connectable="0">
          <mxGeometry x="0.9149" y="-1" relative="1" as="geometry">
            <mxPoint x="-81" y="-88" as="offset" />
          </mxGeometry>
        </mxCell>
        <mxCell id="jYLnMtY1XBDBMmt7jPl_-234" style="rounded=0;orthogonalLoop=1;jettySize=auto;html=1;endArrow=none;endFill=0;" parent="1" source="jYLnMtY1XBDBMmt7jPl_-134" target="jYLnMtY1XBDBMmt7jPl_-233" edge="1">
          <mxGeometry relative="1" as="geometry" />
        </mxCell>
        <mxCell id="jYLnMtY1XBDBMmt7jPl_-236" style="rounded=0;orthogonalLoop=1;jettySize=auto;html=1;endArrow=none;endFill=0;" parent="1" source="jYLnMtY1XBDBMmt7jPl_-134" target="jYLnMtY1XBDBMmt7jPl_-235" edge="1">
          <mxGeometry relative="1" as="geometry" />
        </mxCell>
        <mxCell id="jYLnMtY1XBDBMmt7jPl_-134" value="Cirujano" style="whiteSpace=wrap;html=1;align=center;" parent="1" vertex="1">
          <mxGeometry x="-490" y="1170" width="100" height="40" as="geometry" />
        </mxCell>
        <mxCell id="jYLnMtY1XBDBMmt7jPl_-135" value="Veterinario" style="whiteSpace=wrap;html=1;align=center;" parent="1" vertex="1">
          <mxGeometry x="-490" y="1070" width="100" height="40" as="geometry" />
        </mxCell>
        <mxCell id="jYLnMtY1XBDBMmt7jPl_-136" style="edgeStyle=orthogonalEdgeStyle;rounded=0;orthogonalLoop=1;jettySize=auto;html=1;endArrow=none;endFill=0;" parent="1" source="jYLnMtY1XBDBMmt7jPl_-133" target="jYLnMtY1XBDBMmt7jPl_-139" edge="1">
          <mxGeometry relative="1" as="geometry">
            <mxPoint x="-570" y="1020" as="sourcePoint" />
          </mxGeometry>
        </mxCell>
        <mxCell id="jYLnMtY1XBDBMmt7jPl_-137" style="edgeStyle=orthogonalEdgeStyle;rounded=0;orthogonalLoop=1;jettySize=auto;html=1;endArrow=none;endFill=0;" parent="1" source="jYLnMtY1XBDBMmt7jPl_-139" target="jYLnMtY1XBDBMmt7jPl_-134" edge="1">
          <mxGeometry relative="1" as="geometry">
            <mxPoint x="-670" y="1150" as="targetPoint" />
            <Array as="points">
              <mxPoint x="-520" y="1130" />
              <mxPoint x="-520" y="1190" />
            </Array>
          </mxGeometry>
        </mxCell>
        <mxCell id="jYLnMtY1XBDBMmt7jPl_-138" style="edgeStyle=orthogonalEdgeStyle;rounded=0;orthogonalLoop=1;jettySize=auto;html=1;endArrow=none;endFill=0;" parent="1" source="jYLnMtY1XBDBMmt7jPl_-139" target="jYLnMtY1XBDBMmt7jPl_-135" edge="1">
          <mxGeometry relative="1" as="geometry">
            <mxPoint x="-470" y="1150" as="targetPoint" />
          </mxGeometry>
        </mxCell>
        <mxCell id="8dKxabd2XOVw9RWuB_t7-5" style="edgeStyle=orthogonalEdgeStyle;rounded=0;orthogonalLoop=1;jettySize=auto;html=1;endArrow=none;endFill=0;" parent="1" source="jYLnMtY1XBDBMmt7jPl_-139" target="8dKxabd2XOVw9RWuB_t7-4" edge="1">
          <mxGeometry relative="1" as="geometry">
            <Array as="points">
              <mxPoint x="-520" y="1130" />
              <mxPoint x="-520" y="1280" />
            </Array>
          </mxGeometry>
        </mxCell>
        <mxCell id="jYLnMtY1XBDBMmt7jPl_-139" value="" style="triangle;whiteSpace=wrap;html=1;direction=west;rotation=-180;" parent="1" vertex="1">
          <mxGeometry x="-610" y="1090" width="60" height="80" as="geometry" />
        </mxCell>
        <mxCell id="jYLnMtY1XBDBMmt7jPl_-142" style="edgeStyle=orthogonalEdgeStyle;rounded=0;orthogonalLoop=1;jettySize=auto;html=1;endArrow=none;endFill=0;" parent="1" source="jYLnMtY1XBDBMmt7jPl_-141" target="jYLnMtY1XBDBMmt7jPl_-133" edge="1">
          <mxGeometry relative="1" as="geometry" />
        </mxCell>
        <mxCell id="jYLnMtY1XBDBMmt7jPl_-148" value="(0,n)" style="edgeLabel;html=1;align=center;verticalAlign=middle;resizable=0;points=[];" parent="jYLnMtY1XBDBMmt7jPl_-142" vertex="1" connectable="0">
          <mxGeometry x="0.7748" y="-1" relative="1" as="geometry">
            <mxPoint x="21" y="-1" as="offset" />
          </mxGeometry>
        </mxCell>
        <mxCell id="jYLnMtY1XBDBMmt7jPl_-149" value="&lt;font style=&quot;font-size: 21px;&quot;&gt;N:M&lt;/font&gt;" style="edgeLabel;html=1;align=center;verticalAlign=middle;resizable=0;points=[];" parent="jYLnMtY1XBDBMmt7jPl_-142" vertex="1" connectable="0">
          <mxGeometry x="-0.8104" y="-2" relative="1" as="geometry">
            <mxPoint x="52" y="-6" as="offset" />
          </mxGeometry>
        </mxCell>
        <mxCell id="jYLnMtY1XBDBMmt7jPl_-143" style="edgeStyle=orthogonalEdgeStyle;rounded=0;orthogonalLoop=1;jettySize=auto;html=1;endArrow=none;endFill=0;" parent="1" source="jYLnMtY1XBDBMmt7jPl_-141" target="jYLnMtY1XBDBMmt7jPl_-127" edge="1">
          <mxGeometry relative="1" as="geometry" />
        </mxCell>
        <mxCell id="jYLnMtY1XBDBMmt7jPl_-147" value="(1,n)" style="edgeLabel;html=1;align=center;verticalAlign=middle;resizable=0;points=[];" parent="jYLnMtY1XBDBMmt7jPl_-143" vertex="1" connectable="0">
          <mxGeometry x="0.4089" y="-1" relative="1" as="geometry">
            <mxPoint x="-21" y="-8" as="offset" />
          </mxGeometry>
        </mxCell>
        <mxCell id="jYLnMtY1XBDBMmt7jPl_-141" value="es operada por" style="rhombus;whiteSpace=wrap;html=1;" parent="1" vertex="1">
          <mxGeometry x="-740" y="880" width="100" height="60" as="geometry" />
        </mxCell>
        <mxCell id="jYLnMtY1XBDBMmt7jPl_-146" style="edgeStyle=orthogonalEdgeStyle;rounded=0;orthogonalLoop=1;jettySize=auto;html=1;endArrow=none;endFill=0;" parent="1" source="jYLnMtY1XBDBMmt7jPl_-144" target="jYLnMtY1XBDBMmt7jPl_-135" edge="1">
          <mxGeometry relative="1" as="geometry">
            <Array as="points">
              <mxPoint x="-510" y="1050" />
              <mxPoint x="-440" y="1050" />
            </Array>
          </mxGeometry>
        </mxCell>
        <mxCell id="jYLnMtY1XBDBMmt7jPl_-151" value="(1,1)" style="edgeLabel;html=1;align=center;verticalAlign=middle;resizable=0;points=[];" parent="jYLnMtY1XBDBMmt7jPl_-146" vertex="1" connectable="0">
          <mxGeometry x="0.9144" y="1" relative="1" as="geometry">
            <mxPoint x="-31" y="-5" as="offset" />
          </mxGeometry>
        </mxCell>
        <mxCell id="jYLnMtY1XBDBMmt7jPl_-144" value="es utilizada por" style="rhombus;whiteSpace=wrap;html=1;" parent="1" vertex="1">
          <mxGeometry x="-560" y="945" width="100" height="60" as="geometry" />
        </mxCell>
        <mxCell id="jYLnMtY1XBDBMmt7jPl_-153" value="fecha inauguración" style="ellipse;whiteSpace=wrap;html=1;align=center;" parent="1" vertex="1">
          <mxGeometry x="-610" y="485" width="100" height="40" as="geometry" />
        </mxCell>
        <mxCell id="jYLnMtY1XBDBMmt7jPl_-154" value="idSala" style="ellipse;whiteSpace=wrap;html=1;align=center;fontStyle=4;" parent="1" vertex="1">
          <mxGeometry x="-710" y="525" width="100" height="40" as="geometry" />
        </mxCell>
        <mxCell id="jYLnMtY1XBDBMmt7jPl_-162" style="rounded=0;orthogonalLoop=1;jettySize=auto;html=1;endArrow=none;endFill=0;" parent="1" source="jYLnMtY1XBDBMmt7jPl_-157" target="jYLnMtY1XBDBMmt7jPl_-159" edge="1">
          <mxGeometry relative="1" as="geometry" />
        </mxCell>
        <mxCell id="jYLnMtY1XBDBMmt7jPl_-163" style="rounded=0;orthogonalLoop=1;jettySize=auto;html=1;endArrow=none;endFill=0;" parent="1" source="jYLnMtY1XBDBMmt7jPl_-157" target="HlTitbdx7GmA0fprLowr-95" edge="1">
          <mxGeometry relative="1" as="geometry">
            <mxPoint x="-224.8392842131684" y="744.345587617187" as="targetPoint" />
          </mxGeometry>
        </mxCell>
        <mxCell id="jYLnMtY1XBDBMmt7jPl_-165" style="edgeStyle=orthogonalEdgeStyle;rounded=0;orthogonalLoop=1;jettySize=auto;html=1;endArrow=none;endFill=0;" parent="1" source="jYLnMtY1XBDBMmt7jPl_-157" target="jYLnMtY1XBDBMmt7jPl_-164" edge="1">
          <mxGeometry relative="1" as="geometry">
            <Array as="points">
              <mxPoint x="-290" y="800" />
              <mxPoint x="-290" y="850" />
            </Array>
          </mxGeometry>
        </mxCell>
        <mxCell id="jYLnMtY1XBDBMmt7jPl_-167" value="(0,1)" style="edgeLabel;html=1;align=center;verticalAlign=middle;resizable=0;points=[];" parent="jYLnMtY1XBDBMmt7jPl_-165" vertex="1" connectable="0">
          <mxGeometry x="-0.7109" relative="1" as="geometry">
            <mxPoint x="150" y="30" as="offset" />
          </mxGeometry>
        </mxCell>
        <mxCell id="jYLnMtY1XBDBMmt7jPl_-169" value="&lt;font style=&quot;font-size: 21px;&quot;&gt;N:M&lt;/font&gt;" style="edgeLabel;html=1;align=center;verticalAlign=middle;resizable=0;points=[];" parent="jYLnMtY1XBDBMmt7jPl_-165" vertex="1" connectable="0">
          <mxGeometry x="0.6709" y="1" relative="1" as="geometry">
            <mxPoint x="80" y="-49" as="offset" />
          </mxGeometry>
        </mxCell>
        <mxCell id="r0H83FI5AYHTwfuRUeML-63" value="(0,n)" style="edgeLabel;html=1;align=center;verticalAlign=middle;resizable=0;points=[];" parent="jYLnMtY1XBDBMmt7jPl_-165" vertex="1" connectable="0">
          <mxGeometry x="-0.4996" y="1" relative="1" as="geometry">
            <mxPoint x="19" as="offset" />
          </mxGeometry>
        </mxCell>
        <mxCell id="r0H83FI5AYHTwfuRUeML-65" style="edgeStyle=orthogonalEdgeStyle;rounded=0;orthogonalLoop=1;jettySize=auto;html=1;endArrow=none;endFill=0;" parent="1" source="r0H83FI5AYHTwfuRUeML-67" target="jYLnMtY1XBDBMmt7jPl_-135" edge="1">
          <mxGeometry relative="1" as="geometry">
            <mxPoint x="-270" y="1090" as="targetPoint" />
            <Array as="points">
              <mxPoint x="-250" y="1090" />
            </Array>
          </mxGeometry>
        </mxCell>
        <mxCell id="r0H83FI5AYHTwfuRUeML-69" value="(0,n)" style="edgeLabel;html=1;align=center;verticalAlign=middle;resizable=0;points=[];" parent="r0H83FI5AYHTwfuRUeML-65" vertex="1" connectable="0">
          <mxGeometry x="0.8211" y="1" relative="1" as="geometry">
            <mxPoint y="9" as="offset" />
          </mxGeometry>
        </mxCell>
        <mxCell id="HlTitbdx7GmA0fprLowr-93" style="rounded=0;orthogonalLoop=1;jettySize=auto;html=1;endArrow=none;endFill=0;" parent="1" source="jYLnMtY1XBDBMmt7jPl_-157" target="HlTitbdx7GmA0fprLowr-92" edge="1">
          <mxGeometry relative="1" as="geometry" />
        </mxCell>
        <mxCell id="HlTitbdx7GmA0fprLowr-97" style="rounded=0;orthogonalLoop=1;jettySize=auto;html=1;endArrow=none;endFill=0;" parent="1" source="jYLnMtY1XBDBMmt7jPl_-157" target="HlTitbdx7GmA0fprLowr-96" edge="1">
          <mxGeometry relative="1" as="geometry" />
        </mxCell>
        <mxCell id="jYLnMtY1XBDBMmt7jPl_-157" value="Sala de hospitalización" style="whiteSpace=wrap;html=1;align=center;" parent="1" vertex="1">
          <mxGeometry x="-410" y="780" width="100" height="40" as="geometry" />
        </mxCell>
        <mxCell id="jYLnMtY1XBDBMmt7jPl_-159" value="duración esperada" style="ellipse;whiteSpace=wrap;html=1;align=center;" parent="1" vertex="1">
          <mxGeometry x="-260" y="760" width="100" height="40" as="geometry" />
        </mxCell>
        <mxCell id="jYLnMtY1XBDBMmt7jPl_-166" style="edgeStyle=orthogonalEdgeStyle;rounded=0;orthogonalLoop=1;jettySize=auto;html=1;endArrow=none;endFill=0;" parent="1" source="jYLnMtY1XBDBMmt7jPl_-164" target="jYLnMtY1XBDBMmt7jPl_-40" edge="1">
          <mxGeometry relative="1" as="geometry">
            <Array as="points">
              <mxPoint x="210" y="850" />
            </Array>
          </mxGeometry>
        </mxCell>
        <mxCell id="jYLnMtY1XBDBMmt7jPl_-168" value="(0,n)" style="edgeLabel;html=1;align=center;verticalAlign=middle;resizable=0;points=[];" parent="jYLnMtY1XBDBMmt7jPl_-166" vertex="1" connectable="0">
          <mxGeometry x="0.4097" y="-2" relative="1" as="geometry">
            <mxPoint x="34" y="-22" as="offset" />
          </mxGeometry>
        </mxCell>
        <mxCell id="jYLnMtY1XBDBMmt7jPl_-164" value="ocupada por" style="rhombus;whiteSpace=wrap;html=1;" parent="1" vertex="1">
          <mxGeometry x="-180" y="820" width="100" height="60" as="geometry" />
        </mxCell>
        <mxCell id="jYLnMtY1XBDBMmt7jPl_-173" style="rounded=0;orthogonalLoop=1;jettySize=auto;html=1;endArrow=none;endFill=0;" parent="1" source="jYLnMtY1XBDBMmt7jPl_-171" target="jYLnMtY1XBDBMmt7jPl_-172" edge="1">
          <mxGeometry relative="1" as="geometry" />
        </mxCell>
        <mxCell id="jYLnMtY1XBDBMmt7jPl_-177" style="rounded=0;orthogonalLoop=1;jettySize=auto;html=1;endArrow=none;endFill=0;" parent="1" source="jYLnMtY1XBDBMmt7jPl_-171" target="jYLnMtY1XBDBMmt7jPl_-175" edge="1">
          <mxGeometry relative="1" as="geometry" />
        </mxCell>
        <mxCell id="jYLnMtY1XBDBMmt7jPl_-180" style="edgeStyle=orthogonalEdgeStyle;rounded=0;orthogonalLoop=1;jettySize=auto;html=1;endArrow=none;endFill=0;" parent="1" source="jYLnMtY1XBDBMmt7jPl_-171" target="r0H83FI5AYHTwfuRUeML-17" edge="1">
          <mxGeometry relative="1" as="geometry">
            <mxPoint x="-1042" y="630" as="sourcePoint" />
            <mxPoint x="-900" y="630" as="targetPoint" />
          </mxGeometry>
        </mxCell>
        <mxCell id="jYLnMtY1XBDBMmt7jPl_-183" value="(0,n)" style="edgeLabel;html=1;align=center;verticalAlign=middle;resizable=0;points=[];" parent="jYLnMtY1XBDBMmt7jPl_-180" vertex="1" connectable="0">
          <mxGeometry x="-0.6294" relative="1" as="geometry">
            <mxPoint y="-10" as="offset" />
          </mxGeometry>
        </mxCell>
        <mxCell id="jYLnMtY1XBDBMmt7jPl_-184" value="&lt;font style=&quot;font-size: 21px;&quot;&gt;1:N&lt;/font&gt;" style="edgeLabel;html=1;align=center;verticalAlign=middle;resizable=0;points=[];" parent="jYLnMtY1XBDBMmt7jPl_-180" vertex="1" connectable="0">
          <mxGeometry x="0.7242" y="-1" relative="1" as="geometry">
            <mxPoint x="79" y="-51" as="offset" />
          </mxGeometry>
        </mxCell>
        <mxCell id="jYLnMtY1XBDBMmt7jPl_-171" value="Sección" style="whiteSpace=wrap;html=1;align=center;" parent="1" vertex="1">
          <mxGeometry x="-1140" y="610" width="100" height="40" as="geometry" />
        </mxCell>
        <mxCell id="jYLnMtY1XBDBMmt7jPl_-172" value="idSección" style="ellipse;whiteSpace=wrap;html=1;align=center;fontStyle=4;" parent="1" vertex="1">
          <mxGeometry x="-1250" y="535" width="100" height="40" as="geometry" />
        </mxCell>
        <mxCell id="jYLnMtY1XBDBMmt7jPl_-175" value="propósito" style="ellipse;whiteSpace=wrap;html=1;align=center;" parent="1" vertex="1">
          <mxGeometry x="-1130" y="525" width="100" height="40" as="geometry" />
        </mxCell>
        <mxCell id="jYLnMtY1XBDBMmt7jPl_-187" style="edgeStyle=orthogonalEdgeStyle;rounded=0;orthogonalLoop=1;jettySize=auto;html=1;endArrow=none;endFill=0;" parent="1" source="jYLnMtY1XBDBMmt7jPl_-186" target="jYLnMtY1XBDBMmt7jPl_-171" edge="1">
          <mxGeometry relative="1" as="geometry">
            <Array as="points">
              <mxPoint x="-1350" y="630" />
            </Array>
          </mxGeometry>
        </mxCell>
        <mxCell id="jYLnMtY1XBDBMmt7jPl_-188" value="(1,1)" style="edgeLabel;html=1;align=center;verticalAlign=middle;resizable=0;points=[];" parent="jYLnMtY1XBDBMmt7jPl_-187" vertex="1" connectable="0">
          <mxGeometry x="0.3736" y="-5" relative="1" as="geometry">
            <mxPoint x="86" y="-15" as="offset" />
          </mxGeometry>
        </mxCell>
        <mxCell id="jYLnMtY1XBDBMmt7jPl_-186" value="es dirigida por" style="rhombus;whiteSpace=wrap;html=1;" parent="1" vertex="1">
          <mxGeometry x="-1400" y="855" width="100" height="60" as="geometry" />
        </mxCell>
        <mxCell id="jYLnMtY1XBDBMmt7jPl_-197" style="rounded=0;orthogonalLoop=1;jettySize=auto;html=1;endArrow=none;endFill=0;" parent="1" source="jYLnMtY1XBDBMmt7jPl_-193" target="jYLnMtY1XBDBMmt7jPl_-194" edge="1">
          <mxGeometry relative="1" as="geometry" />
        </mxCell>
        <mxCell id="jYLnMtY1XBDBMmt7jPl_-198" style="rounded=0;orthogonalLoop=1;jettySize=auto;html=1;endArrow=none;endFill=0;" parent="1" source="jYLnMtY1XBDBMmt7jPl_-193" target="jYLnMtY1XBDBMmt7jPl_-195" edge="1">
          <mxGeometry relative="1" as="geometry" />
        </mxCell>
        <mxCell id="jYLnMtY1XBDBMmt7jPl_-199" style="rounded=0;orthogonalLoop=1;jettySize=auto;html=1;endArrow=none;endFill=0;" parent="1" source="jYLnMtY1XBDBMmt7jPl_-193" target="jYLnMtY1XBDBMmt7jPl_-196" edge="1">
          <mxGeometry relative="1" as="geometry" />
        </mxCell>
        <mxCell id="jYLnMtY1XBDBMmt7jPl_-193" value="nombre completo" style="ellipse;whiteSpace=wrap;html=1;align=center;" parent="1" vertex="1">
          <mxGeometry x="-1070" y="975" width="100" height="40" as="geometry" />
        </mxCell>
        <mxCell id="jYLnMtY1XBDBMmt7jPl_-194" value="nombre" style="ellipse;whiteSpace=wrap;html=1;align=center;" parent="1" vertex="1">
          <mxGeometry x="-1240" y="915" width="100" height="40" as="geometry" />
        </mxCell>
        <mxCell id="jYLnMtY1XBDBMmt7jPl_-195" value="apellido 1" style="ellipse;whiteSpace=wrap;html=1;align=center;" parent="1" vertex="1">
          <mxGeometry x="-1240" y="955" width="100" height="40" as="geometry" />
        </mxCell>
        <mxCell id="jYLnMtY1XBDBMmt7jPl_-196" value="apellido 2" style="ellipse;whiteSpace=wrap;html=1;align=center;" parent="1" vertex="1">
          <mxGeometry x="-1240" y="995" width="100" height="40" as="geometry" />
        </mxCell>
        <mxCell id="jYLnMtY1XBDBMmt7jPl_-201" value="fecha de nacimiento" style="ellipse;whiteSpace=wrap;html=1;align=center;" parent="1" vertex="1">
          <mxGeometry x="-1110" y="1020" width="100" height="40" as="geometry" />
        </mxCell>
        <mxCell id="jYLnMtY1XBDBMmt7jPl_-202" value="teléfono" style="ellipse;whiteSpace=wrap;html=1;align=center;" parent="1" vertex="1">
          <mxGeometry x="-1130" y="1150" width="100" height="40" as="geometry" />
        </mxCell>
        <mxCell id="jYLnMtY1XBDBMmt7jPl_-203" value="correo electrónico" style="ellipse;whiteSpace=wrap;html=1;align=center;" parent="1" vertex="1">
          <mxGeometry x="-1150" y="1060" width="100" height="40" as="geometry" />
        </mxCell>
        <mxCell id="jYLnMtY1XBDBMmt7jPl_-204" value="fecha ingreso" style="ellipse;whiteSpace=wrap;html=1;align=center;" parent="1" vertex="1">
          <mxGeometry x="-1120" y="1100" width="100" height="40" as="geometry" />
        </mxCell>
        <mxCell id="jYLnMtY1XBDBMmt7jPl_-205" value="salario" style="ellipse;whiteSpace=wrap;html=1;align=center;" parent="1" vertex="1">
          <mxGeometry x="-1060" y="1190" width="100" height="40" as="geometry" />
        </mxCell>
        <mxCell id="jYLnMtY1XBDBMmt7jPl_-206" value="turno" style="ellipse;whiteSpace=wrap;html=1;align=center;" parent="1" vertex="1">
          <mxGeometry x="-960" y="1220" width="100" height="40" as="geometry" />
        </mxCell>
        <mxCell id="jYLnMtY1XBDBMmt7jPl_-213" style="rounded=0;orthogonalLoop=1;jettySize=auto;html=1;endArrow=none;endFill=0;" parent="1" source="jYLnMtY1XBDBMmt7jPl_-217" target="jYLnMtY1XBDBMmt7jPl_-221" edge="1">
          <mxGeometry relative="1" as="geometry" />
        </mxCell>
        <mxCell id="jYLnMtY1XBDBMmt7jPl_-214" style="rounded=0;orthogonalLoop=1;jettySize=auto;html=1;endArrow=none;endFill=0;" parent="1" source="jYLnMtY1XBDBMmt7jPl_-217" target="jYLnMtY1XBDBMmt7jPl_-222" edge="1">
          <mxGeometry relative="1" as="geometry" />
        </mxCell>
        <mxCell id="jYLnMtY1XBDBMmt7jPl_-215" style="rounded=0;orthogonalLoop=1;jettySize=auto;html=1;endArrow=none;endFill=0;" parent="1" source="jYLnMtY1XBDBMmt7jPl_-217" target="jYLnMtY1XBDBMmt7jPl_-223" edge="1">
          <mxGeometry relative="1" as="geometry" />
        </mxCell>
        <mxCell id="jYLnMtY1XBDBMmt7jPl_-216" style="rounded=0;orthogonalLoop=1;jettySize=auto;html=1;endArrow=none;endFill=0;" parent="1" source="jYLnMtY1XBDBMmt7jPl_-217" target="jYLnMtY1XBDBMmt7jPl_-224" edge="1">
          <mxGeometry relative="1" as="geometry" />
        </mxCell>
        <mxCell id="jYLnMtY1XBDBMmt7jPl_-217" value="dirección" style="ellipse;whiteSpace=wrap;html=1;align=center;" parent="1" vertex="1">
          <mxGeometry x="-1010" y="930" width="100" height="40" as="geometry" />
        </mxCell>
        <mxCell id="jYLnMtY1XBDBMmt7jPl_-218" style="rounded=0;orthogonalLoop=1;jettySize=auto;html=1;endArrow=none;endFill=0;" parent="1" source="jYLnMtY1XBDBMmt7jPl_-221" target="jYLnMtY1XBDBMmt7jPl_-225" edge="1">
          <mxGeometry relative="1" as="geometry" />
        </mxCell>
        <mxCell id="jYLnMtY1XBDBMmt7jPl_-219" style="rounded=0;orthogonalLoop=1;jettySize=auto;html=1;endArrow=none;endFill=0;" parent="1" source="jYLnMtY1XBDBMmt7jPl_-221" target="jYLnMtY1XBDBMmt7jPl_-226" edge="1">
          <mxGeometry relative="1" as="geometry" />
        </mxCell>
        <mxCell id="jYLnMtY1XBDBMmt7jPl_-220" style="rounded=0;orthogonalLoop=1;jettySize=auto;html=1;endArrow=none;endFill=0;" parent="1" source="jYLnMtY1XBDBMmt7jPl_-221" target="jYLnMtY1XBDBMmt7jPl_-227" edge="1">
          <mxGeometry relative="1" as="geometry" />
        </mxCell>
        <mxCell id="jYLnMtY1XBDBMmt7jPl_-221" value="calle" style="ellipse;whiteSpace=wrap;html=1;align=center;" parent="1" vertex="1">
          <mxGeometry x="-970" y="875" width="100" height="40" as="geometry" />
        </mxCell>
        <mxCell id="jYLnMtY1XBDBMmt7jPl_-222" value="código postal" style="ellipse;whiteSpace=wrap;html=1;align=center;" parent="1" vertex="1">
          <mxGeometry x="-870" y="935" width="100" height="40" as="geometry" />
        </mxCell>
        <mxCell id="jYLnMtY1XBDBMmt7jPl_-223" value="país" style="ellipse;whiteSpace=wrap;html=1;align=center;" parent="1" vertex="1">
          <mxGeometry x="-1100" y="830" width="100" height="40" as="geometry" />
        </mxCell>
        <mxCell id="jYLnMtY1XBDBMmt7jPl_-224" value="región" style="ellipse;whiteSpace=wrap;html=1;align=center;" parent="1" vertex="1">
          <mxGeometry x="-1130" y="885" width="100" height="40" as="geometry" />
        </mxCell>
        <mxCell id="jYLnMtY1XBDBMmt7jPl_-225" value="nombreCalle" style="ellipse;whiteSpace=wrap;html=1;align=center;" parent="1" vertex="1">
          <mxGeometry x="-870" y="835" width="100" height="40" as="geometry" />
        </mxCell>
        <mxCell id="jYLnMtY1XBDBMmt7jPl_-226" value="tipo de vía" style="ellipse;whiteSpace=wrap;html=1;align=center;" parent="1" vertex="1">
          <mxGeometry x="-950" y="785" width="100" height="40" as="geometry" />
        </mxCell>
        <mxCell id="jYLnMtY1XBDBMmt7jPl_-227" value="número" style="ellipse;whiteSpace=wrap;html=1;align=center;" parent="1" vertex="1">
          <mxGeometry x="-1060" y="785" width="100" height="40" as="geometry" />
        </mxCell>
        <mxCell id="jYLnMtY1XBDBMmt7jPl_-229" value="&lt;u&gt;DNI&lt;/u&gt;" style="ellipse;whiteSpace=wrap;html=1;align=center;" parent="1" vertex="1">
          <mxGeometry x="-840" y="980" width="100" height="40" as="geometry" />
        </mxCell>
        <mxCell id="jYLnMtY1XBDBMmt7jPl_-230" value="&lt;u&gt;idEmpleado&lt;/u&gt;" style="ellipse;whiteSpace=wrap;html=1;align=center;" parent="1" vertex="1">
          <mxGeometry x="-850" y="1230" width="100" height="40" as="geometry" />
        </mxCell>
        <mxCell id="jYLnMtY1XBDBMmt7jPl_-233" value="institución" style="ellipse;whiteSpace=wrap;html=1;align=center;fontStyle=0" parent="1" vertex="1">
          <mxGeometry x="-330" y="1170" width="100" height="40" as="geometry" />
        </mxCell>
        <mxCell id="jYLnMtY1XBDBMmt7jPl_-235" value="años de carrera" style="ellipse;whiteSpace=wrap;html=1;align=center;fontStyle=0" parent="1" vertex="1">
          <mxGeometry x="-330" y="1220" width="100" height="40" as="geometry" />
        </mxCell>
        <mxCell id="jYLnMtY1XBDBMmt7jPl_-243" style="rounded=0;orthogonalLoop=1;jettySize=auto;html=1;endArrow=none;endFill=0;" parent="1" source="jYLnMtY1XBDBMmt7jPl_-237" target="jYLnMtY1XBDBMmt7jPl_-242" edge="1">
          <mxGeometry relative="1" as="geometry" />
        </mxCell>
        <mxCell id="jYLnMtY1XBDBMmt7jPl_-244" style="rounded=0;orthogonalLoop=1;jettySize=auto;html=1;endArrow=none;endFill=0;" parent="1" source="jYLnMtY1XBDBMmt7jPl_-237" target="jYLnMtY1XBDBMmt7jPl_-238" edge="1">
          <mxGeometry relative="1" as="geometry" />
        </mxCell>
        <mxCell id="jYLnMtY1XBDBMmt7jPl_-247" style="rounded=0;orthogonalLoop=1;jettySize=auto;html=1;endArrow=none;endFill=0;" parent="1" source="jYLnMtY1XBDBMmt7jPl_-237" target="jYLnMtY1XBDBMmt7jPl_-241" edge="1">
          <mxGeometry relative="1" as="geometry" />
        </mxCell>
        <mxCell id="1_MLkYT4IVCnawG4RRNl-2" style="rounded=0;orthogonalLoop=1;jettySize=auto;html=1;endArrow=none;endFill=0;" parent="1" source="jYLnMtY1XBDBMmt7jPl_-237" target="1_MLkYT4IVCnawG4RRNl-3" edge="1">
          <mxGeometry relative="1" as="geometry">
            <mxPoint x="768.765247622287" y="-194.3826238111435" as="targetPoint" />
          </mxGeometry>
        </mxCell>
        <mxCell id="jYLnMtY1XBDBMmt7jPl_-237" value="Medicamento" style="whiteSpace=wrap;html=1;align=center;" parent="1" vertex="1">
          <mxGeometry x="590" y="-150" width="100" height="40" as="geometry" />
        </mxCell>
        <mxCell id="jYLnMtY1XBDBMmt7jPl_-238" value="nombre" style="ellipse;whiteSpace=wrap;html=1;align=center;" parent="1" vertex="1">
          <mxGeometry x="530" y="-330" width="100" height="40" as="geometry" />
        </mxCell>
        <mxCell id="jYLnMtY1XBDBMmt7jPl_-241" value="unidades por caja" style="ellipse;whiteSpace=wrap;html=1;align=center;" parent="1" vertex="1">
          <mxGeometry x="640" y="-330" width="100" height="40" as="geometry" />
        </mxCell>
        <mxCell id="jYLnMtY1XBDBMmt7jPl_-242" value="&lt;u&gt;idMedicamento&lt;/u&gt;" style="ellipse;whiteSpace=wrap;html=1;align=center;" parent="1" vertex="1">
          <mxGeometry x="470" y="-280" width="100" height="40" as="geometry" />
        </mxCell>
        <mxCell id="jYLnMtY1XBDBMmt7jPl_-276" style="rounded=0;orthogonalLoop=1;jettySize=auto;html=1;endArrow=none;endFill=0;" parent="1" source="jYLnMtY1XBDBMmt7jPl_-257" target="jYLnMtY1XBDBMmt7jPl_-261" edge="1">
          <mxGeometry relative="1" as="geometry" />
        </mxCell>
        <mxCell id="jYLnMtY1XBDBMmt7jPl_-277" style="rounded=0;orthogonalLoop=1;jettySize=auto;html=1;endArrow=none;endFill=0;" parent="1" source="jYLnMtY1XBDBMmt7jPl_-280" target="jYLnMtY1XBDBMmt7jPl_-260" edge="1">
          <mxGeometry relative="1" as="geometry" />
        </mxCell>
        <mxCell id="jYLnMtY1XBDBMmt7jPl_-278" style="rounded=0;orthogonalLoop=1;jettySize=auto;html=1;endArrow=none;endFill=0;" parent="1" source="jYLnMtY1XBDBMmt7jPl_-280" target="jYLnMtY1XBDBMmt7jPl_-258" edge="1">
          <mxGeometry relative="1" as="geometry" />
        </mxCell>
        <mxCell id="jYLnMtY1XBDBMmt7jPl_-279" style="rounded=0;orthogonalLoop=1;jettySize=auto;html=1;endArrow=none;endFill=0;" parent="1" source="jYLnMtY1XBDBMmt7jPl_-257" target="jYLnMtY1XBDBMmt7jPl_-259" edge="1">
          <mxGeometry relative="1" as="geometry" />
        </mxCell>
        <mxCell id="jYLnMtY1XBDBMmt7jPl_-281" style="rounded=0;orthogonalLoop=1;jettySize=auto;html=1;endArrow=none;endFill=0;" parent="1" source="jYLnMtY1XBDBMmt7jPl_-257" target="jYLnMtY1XBDBMmt7jPl_-280" edge="1">
          <mxGeometry relative="1" as="geometry" />
        </mxCell>
        <mxCell id="jYLnMtY1XBDBMmt7jPl_-283" style="rounded=0;orthogonalLoop=1;jettySize=auto;html=1;endArrow=none;endFill=0;" parent="1" source="jYLnMtY1XBDBMmt7jPl_-257" target="jYLnMtY1XBDBMmt7jPl_-282" edge="1">
          <mxGeometry relative="1" as="geometry" />
        </mxCell>
        <mxCell id="jYLnMtY1XBDBMmt7jPl_-257" value="Proveedor" style="whiteSpace=wrap;html=1;align=center;" parent="1" vertex="1">
          <mxGeometry x="640" y="60" width="100" height="40" as="geometry" />
        </mxCell>
        <mxCell id="jYLnMtY1XBDBMmt7jPl_-258" value="nombre" style="ellipse;whiteSpace=wrap;html=1;align=center;fontStyle=0" parent="1" vertex="1">
          <mxGeometry x="400" y="120" width="100" height="40" as="geometry" />
        </mxCell>
        <mxCell id="jYLnMtY1XBDBMmt7jPl_-259" value="teléfono" style="ellipse;whiteSpace=wrap;html=1;align=center;fontStyle=0" parent="1" vertex="1">
          <mxGeometry x="400" y="10" width="100" height="40" as="geometry" />
        </mxCell>
        <mxCell id="jYLnMtY1XBDBMmt7jPl_-260" value="correo electrónico" style="ellipse;whiteSpace=wrap;html=1;align=center;fontStyle=0" parent="1" vertex="1">
          <mxGeometry x="380" y="60" width="100" height="40" as="geometry" />
        </mxCell>
        <mxCell id="jYLnMtY1XBDBMmt7jPl_-272" style="rounded=0;orthogonalLoop=1;jettySize=auto;html=1;endArrow=none;endFill=0;" parent="1" source="jYLnMtY1XBDBMmt7jPl_-261" target="jYLnMtY1XBDBMmt7jPl_-262" edge="1">
          <mxGeometry relative="1" as="geometry" />
        </mxCell>
        <mxCell id="jYLnMtY1XBDBMmt7jPl_-273" style="rounded=0;orthogonalLoop=1;jettySize=auto;html=1;endArrow=none;endFill=0;" parent="1" source="jYLnMtY1XBDBMmt7jPl_-261" target="jYLnMtY1XBDBMmt7jPl_-263" edge="1">
          <mxGeometry relative="1" as="geometry" />
        </mxCell>
        <mxCell id="jYLnMtY1XBDBMmt7jPl_-274" style="rounded=0;orthogonalLoop=1;jettySize=auto;html=1;endArrow=none;endFill=0;" parent="1" source="jYLnMtY1XBDBMmt7jPl_-261" target="jYLnMtY1XBDBMmt7jPl_-264" edge="1">
          <mxGeometry relative="1" as="geometry" />
        </mxCell>
        <mxCell id="jYLnMtY1XBDBMmt7jPl_-275" style="rounded=0;orthogonalLoop=1;jettySize=auto;html=1;endArrow=none;endFill=0;" parent="1" source="jYLnMtY1XBDBMmt7jPl_-261" target="jYLnMtY1XBDBMmt7jPl_-265" edge="1">
          <mxGeometry relative="1" as="geometry" />
        </mxCell>
        <mxCell id="jYLnMtY1XBDBMmt7jPl_-261" value="dirección" style="ellipse;whiteSpace=wrap;html=1;align=center;fontStyle=0" parent="1" vertex="1">
          <mxGeometry x="850" y="60" width="100" height="40" as="geometry" />
        </mxCell>
        <mxCell id="jYLnMtY1XBDBMmt7jPl_-269" style="rounded=0;orthogonalLoop=1;jettySize=auto;html=1;endArrow=none;endFill=0;" parent="1" source="jYLnMtY1XBDBMmt7jPl_-262" target="jYLnMtY1XBDBMmt7jPl_-268" edge="1">
          <mxGeometry relative="1" as="geometry" />
        </mxCell>
        <mxCell id="jYLnMtY1XBDBMmt7jPl_-270" style="rounded=0;orthogonalLoop=1;jettySize=auto;html=1;endArrow=none;endFill=0;" parent="1" source="jYLnMtY1XBDBMmt7jPl_-262" target="jYLnMtY1XBDBMmt7jPl_-267" edge="1">
          <mxGeometry relative="1" as="geometry" />
        </mxCell>
        <mxCell id="jYLnMtY1XBDBMmt7jPl_-271" style="rounded=0;orthogonalLoop=1;jettySize=auto;html=1;endArrow=none;endFill=0;" parent="1" source="jYLnMtY1XBDBMmt7jPl_-262" target="jYLnMtY1XBDBMmt7jPl_-266" edge="1">
          <mxGeometry relative="1" as="geometry" />
        </mxCell>
        <mxCell id="jYLnMtY1XBDBMmt7jPl_-262" value="calle" style="ellipse;whiteSpace=wrap;html=1;align=center;" parent="1" vertex="1">
          <mxGeometry x="990" y="20" width="100" height="40" as="geometry" />
        </mxCell>
        <mxCell id="jYLnMtY1XBDBMmt7jPl_-263" value="código postal" style="ellipse;whiteSpace=wrap;html=1;align=center;" parent="1" vertex="1">
          <mxGeometry x="990" y="70" width="100" height="40" as="geometry" />
        </mxCell>
        <mxCell id="jYLnMtY1XBDBMmt7jPl_-264" value="país" style="ellipse;whiteSpace=wrap;html=1;align=center;" parent="1" vertex="1">
          <mxGeometry x="990" y="120" width="100" height="40" as="geometry" />
        </mxCell>
        <mxCell id="jYLnMtY1XBDBMmt7jPl_-265" value="región" style="ellipse;whiteSpace=wrap;html=1;align=center;" parent="1" vertex="1">
          <mxGeometry x="960" y="170" width="100" height="40" as="geometry" />
        </mxCell>
        <mxCell id="jYLnMtY1XBDBMmt7jPl_-266" value="nombreCalle" style="ellipse;whiteSpace=wrap;html=1;align=center;" parent="1" vertex="1">
          <mxGeometry x="1130" y="30" width="100" height="40" as="geometry" />
        </mxCell>
        <mxCell id="jYLnMtY1XBDBMmt7jPl_-267" value="tipo de vía" style="ellipse;whiteSpace=wrap;html=1;align=center;" parent="1" vertex="1">
          <mxGeometry x="1130" y="-20" width="100" height="40" as="geometry" />
        </mxCell>
        <mxCell id="jYLnMtY1XBDBMmt7jPl_-268" value="número" style="ellipse;whiteSpace=wrap;html=1;align=center;" parent="1" vertex="1">
          <mxGeometry x="1130" y="-70" width="100" height="40" as="geometry" />
        </mxCell>
        <mxCell id="jYLnMtY1XBDBMmt7jPl_-280" value="código" style="ellipse;whiteSpace=wrap;html=1;align=center;fontStyle=4" parent="1" vertex="1">
          <mxGeometry x="500" y="90" width="100" height="40" as="geometry" />
        </mxCell>
        <mxCell id="jYLnMtY1XBDBMmt7jPl_-282" value="teléfono urgencias" style="ellipse;whiteSpace=wrap;html=1;align=center;fontStyle=0" parent="1" vertex="1">
          <mxGeometry x="460" y="-40" width="100" height="40" as="geometry" />
        </mxCell>
        <mxCell id="jYLnMtY1XBDBMmt7jPl_-285" style="rounded=0;orthogonalLoop=1;jettySize=auto;html=1;endArrow=none;endFill=0;edgeStyle=orthogonalEdgeStyle;" parent="1" source="jYLnMtY1XBDBMmt7jPl_-284" target="jYLnMtY1XBDBMmt7jPl_-257" edge="1">
          <mxGeometry relative="1" as="geometry" />
        </mxCell>
        <mxCell id="jYLnMtY1XBDBMmt7jPl_-288" value="(1,n)" style="edgeLabel;html=1;align=center;verticalAlign=middle;resizable=0;points=[];" parent="jYLnMtY1XBDBMmt7jPl_-285" vertex="1" connectable="0">
          <mxGeometry x="0.0238" relative="1" as="geometry">
            <mxPoint x="44" y="10" as="offset" />
          </mxGeometry>
        </mxCell>
        <mxCell id="jYLnMtY1XBDBMmt7jPl_-289" value="&lt;font style=&quot;font-size: 21px;&quot;&gt;N:M&lt;/font&gt;" style="edgeLabel;html=1;align=center;verticalAlign=middle;resizable=0;points=[];" parent="jYLnMtY1XBDBMmt7jPl_-285" vertex="1" connectable="0">
          <mxGeometry x="-0.6667" y="-1" relative="1" as="geometry">
            <mxPoint x="81" y="-58" as="offset" />
          </mxGeometry>
        </mxCell>
        <mxCell id="jYLnMtY1XBDBMmt7jPl_-286" style="rounded=0;orthogonalLoop=1;jettySize=auto;html=1;endArrow=none;endFill=0;edgeStyle=orthogonalEdgeStyle;" parent="1" source="jYLnMtY1XBDBMmt7jPl_-284" target="jYLnMtY1XBDBMmt7jPl_-237" edge="1">
          <mxGeometry relative="1" as="geometry" />
        </mxCell>
        <mxCell id="jYLnMtY1XBDBMmt7jPl_-287" value="(1,n)" style="edgeLabel;html=1;align=center;verticalAlign=middle;resizable=0;points=[];" parent="jYLnMtY1XBDBMmt7jPl_-286" vertex="1" connectable="0">
          <mxGeometry x="0.5238" y="2" relative="1" as="geometry">
            <mxPoint x="22" y="-2" as="offset" />
          </mxGeometry>
        </mxCell>
        <mxCell id="jYLnMtY1XBDBMmt7jPl_-284" value="proveído por" style="rhombus;whiteSpace=wrap;html=1;" parent="1" vertex="1">
          <mxGeometry x="590" y="-60" width="100" height="60" as="geometry" />
        </mxCell>
        <mxCell id="r0H83FI5AYHTwfuRUeML-4" style="edgeStyle=orthogonalEdgeStyle;rounded=0;orthogonalLoop=1;jettySize=auto;html=1;endArrow=none;endFill=0;" parent="1" source="r0H83FI5AYHTwfuRUeML-2" target="jYLnMtY1XBDBMmt7jPl_-237" edge="1">
          <mxGeometry relative="1" as="geometry" />
        </mxCell>
        <mxCell id="r0H83FI5AYHTwfuRUeML-15" value="&lt;font style=&quot;font-size: 21px;&quot;&gt;N:M:1&lt;/font&gt;" style="edgeLabel;html=1;align=center;verticalAlign=middle;resizable=0;points=[];" parent="r0H83FI5AYHTwfuRUeML-4" vertex="1" connectable="0">
          <mxGeometry x="-0.9075" relative="1" as="geometry">
            <mxPoint x="-19" y="40" as="offset" />
          </mxGeometry>
        </mxCell>
        <mxCell id="r0H83FI5AYHTwfuRUeML-75" value="&lt;font style=&quot;font-size: 21px;&quot;&gt;M&lt;/font&gt;" style="edgeLabel;html=1;align=center;verticalAlign=middle;resizable=0;points=[];" parent="r0H83FI5AYHTwfuRUeML-4" vertex="1" connectable="0">
          <mxGeometry x="0.2121" y="-1" relative="1" as="geometry">
            <mxPoint x="15" y="-21" as="offset" />
          </mxGeometry>
        </mxCell>
        <mxCell id="r0H83FI5AYHTwfuRUeML-7" style="rounded=0;orthogonalLoop=1;jettySize=auto;html=1;endArrow=none;endFill=0;" parent="1" source="r0H83FI5AYHTwfuRUeML-2" target="r0H83FI5AYHTwfuRUeML-5" edge="1">
          <mxGeometry relative="1" as="geometry" />
        </mxCell>
        <mxCell id="r0H83FI5AYHTwfuRUeML-8" style="rounded=0;orthogonalLoop=1;jettySize=auto;html=1;endArrow=none;endFill=0;" parent="1" source="r0H83FI5AYHTwfuRUeML-2" target="r0H83FI5AYHTwfuRUeML-6" edge="1">
          <mxGeometry relative="1" as="geometry" />
        </mxCell>
        <mxCell id="r0H83FI5AYHTwfuRUeML-11" style="rounded=0;orthogonalLoop=1;jettySize=auto;html=1;endArrow=none;endFill=0;" parent="1" source="r0H83FI5AYHTwfuRUeML-2" target="r0H83FI5AYHTwfuRUeML-9" edge="1">
          <mxGeometry relative="1" as="geometry" />
        </mxCell>
        <mxCell id="r0H83FI5AYHTwfuRUeML-12" style="rounded=0;orthogonalLoop=1;jettySize=auto;html=1;endArrow=none;endFill=0;" parent="1" source="r0H83FI5AYHTwfuRUeML-2" target="r0H83FI5AYHTwfuRUeML-10" edge="1">
          <mxGeometry relative="1" as="geometry" />
        </mxCell>
        <mxCell id="r0H83FI5AYHTwfuRUeML-72" style="edgeStyle=orthogonalEdgeStyle;rounded=0;orthogonalLoop=1;jettySize=auto;html=1;endArrow=none;endFill=0;" parent="1" source="r0H83FI5AYHTwfuRUeML-2" target="jYLnMtY1XBDBMmt7jPl_-40" edge="1">
          <mxGeometry relative="1" as="geometry">
            <Array as="points">
              <mxPoint x="350" y="420" />
              <mxPoint x="1620" y="420" />
              <mxPoint x="1620" y="930" />
              <mxPoint x="550" y="930" />
              <mxPoint x="550" y="840" />
              <mxPoint x="280" y="840" />
            </Array>
          </mxGeometry>
        </mxCell>
        <mxCell id="r0H83FI5AYHTwfuRUeML-77" value="&lt;font style=&quot;font-size: 21px;&quot;&gt;1&lt;/font&gt;" style="edgeLabel;html=1;align=center;verticalAlign=middle;resizable=0;points=[];" parent="r0H83FI5AYHTwfuRUeML-72" vertex="1" connectable="0">
          <mxGeometry x="0.7056" y="-6" relative="1" as="geometry">
            <mxPoint x="-340" y="-564" as="offset" />
          </mxGeometry>
        </mxCell>
        <mxCell id="r0H83FI5AYHTwfuRUeML-2" value="receta" style="rhombus;whiteSpace=wrap;html=1;" parent="1" vertex="1">
          <mxGeometry x="300" y="-160" width="100" height="60" as="geometry" />
        </mxCell>
        <mxCell id="r0H83FI5AYHTwfuRUeML-5" value="fecha comienzo" style="ellipse;whiteSpace=wrap;html=1;align=center;" parent="1" vertex="1">
          <mxGeometry x="210" y="-240" width="100" height="40" as="geometry" />
        </mxCell>
        <mxCell id="r0H83FI5AYHTwfuRUeML-6" value="fecha fin" style="ellipse;whiteSpace=wrap;html=1;align=center;" parent="1" vertex="1">
          <mxGeometry x="170" y="-190" width="100" height="40" as="geometry" />
        </mxCell>
        <mxCell id="r0H83FI5AYHTwfuRUeML-9" value="unidades a suministrar" style="ellipse;whiteSpace=wrap;html=1;align=center;" parent="1" vertex="1">
          <mxGeometry x="190" y="-100" width="100" height="40" as="geometry" />
        </mxCell>
        <mxCell id="r0H83FI5AYHTwfuRUeML-10" value="envases a suministrar" style="ellipse;whiteSpace=wrap;html=1;align=center;dashed=1;" parent="1" vertex="1">
          <mxGeometry x="200" y="-50" width="100" height="40" as="geometry" />
        </mxCell>
        <mxCell id="r0H83FI5AYHTwfuRUeML-17" value="pertenece a" style="shape=rhombus;double=1;perimeter=rhombusPerimeter;whiteSpace=wrap;html=1;align=center;" parent="1" vertex="1">
          <mxGeometry x="-900" y="600" width="120" height="60" as="geometry" />
        </mxCell>
        <mxCell id="1_MLkYT4IVCnawG4RRNl-5" style="rounded=0;orthogonalLoop=1;jettySize=auto;html=1;endArrow=none;endFill=0;" parent="1" source="r0H83FI5AYHTwfuRUeML-18" target="1_MLkYT4IVCnawG4RRNl-4" edge="1">
          <mxGeometry relative="1" as="geometry" />
        </mxCell>
        <mxCell id="r0H83FI5AYHTwfuRUeML-18" value="Sala" style="shape=ext;margin=3;double=1;whiteSpace=wrap;html=1;align=center;" parent="1" vertex="1">
          <mxGeometry x="-620" y="610" width="100" height="40" as="geometry" />
        </mxCell>
        <mxCell id="r0H83FI5AYHTwfuRUeML-22" value="" style="edgeStyle=orthogonalEdgeStyle;rounded=0;orthogonalLoop=1;jettySize=auto;html=1;endArrow=none;endFill=0;" parent="1" source="r0H83FI5AYHTwfuRUeML-46" target="r0H83FI5AYHTwfuRUeML-21" edge="1">
          <mxGeometry relative="1" as="geometry">
            <mxPoint x="-190" y="270" as="sourcePoint" />
            <mxPoint x="-520" y="630" as="targetPoint" />
            <Array as="points" />
          </mxGeometry>
        </mxCell>
        <mxCell id="r0H83FI5AYHTwfuRUeML-57" value="&lt;font style=&quot;font-size: 21px;&quot;&gt;1:N:1&lt;/font&gt;" style="edgeLabel;html=1;align=center;verticalAlign=middle;resizable=0;points=[];" parent="r0H83FI5AYHTwfuRUeML-22" vertex="1" connectable="0">
          <mxGeometry x="0.6119" y="3" relative="1" as="geometry">
            <mxPoint x="-73" y="51" as="offset" />
          </mxGeometry>
        </mxCell>
        <mxCell id="r0H83FI5AYHTwfuRUeML-21" value="asignación" style="rhombus;whiteSpace=wrap;html=1;" parent="1" vertex="1">
          <mxGeometry x="-240" y="505" width="100" height="60" as="geometry" />
        </mxCell>
        <mxCell id="r0H83FI5AYHTwfuRUeML-28" style="edgeStyle=orthogonalEdgeStyle;rounded=0;orthogonalLoop=1;jettySize=auto;html=1;endArrow=none;endFill=0;" parent="1" source="r0H83FI5AYHTwfuRUeML-25" target="r0H83FI5AYHTwfuRUeML-27" edge="1">
          <mxGeometry relative="1" as="geometry" />
        </mxCell>
        <mxCell id="r0H83FI5AYHTwfuRUeML-30" value="(1,n)" style="edgeLabel;html=1;align=center;verticalAlign=middle;resizable=0;points=[];" parent="r0H83FI5AYHTwfuRUeML-28" vertex="1" connectable="0">
          <mxGeometry x="-0.639" y="-1" relative="1" as="geometry">
            <mxPoint x="21" y="-22" as="offset" />
          </mxGeometry>
        </mxCell>
        <mxCell id="r0H83FI5AYHTwfuRUeML-25" value="Sala virtual" style="whiteSpace=wrap;html=1;align=center;" parent="1" vertex="1">
          <mxGeometry x="-520" y="780" width="100" height="40" as="geometry" />
        </mxCell>
        <mxCell id="r0H83FI5AYHTwfuRUeML-29" style="edgeStyle=orthogonalEdgeStyle;rounded=0;orthogonalLoop=1;jettySize=auto;html=1;endArrow=none;endFill=0;" parent="1" source="r0H83FI5AYHTwfuRUeML-27" target="jYLnMtY1XBDBMmt7jPl_-135" edge="1">
          <mxGeometry relative="1" as="geometry">
            <Array as="points">
              <mxPoint x="-390" y="1037" />
              <mxPoint x="-420" y="1037" />
            </Array>
          </mxGeometry>
        </mxCell>
        <mxCell id="r0H83FI5AYHTwfuRUeML-31" value="(0,n)" style="edgeLabel;html=1;align=center;verticalAlign=middle;resizable=0;points=[];" parent="r0H83FI5AYHTwfuRUeML-29" vertex="1" connectable="0">
          <mxGeometry x="0.7668" y="-1" relative="1" as="geometry">
            <mxPoint x="21" y="1" as="offset" />
          </mxGeometry>
        </mxCell>
        <mxCell id="r0H83FI5AYHTwfuRUeML-32" value="&lt;font style=&quot;font-size: 21px;&quot;&gt;N:M&lt;/font&gt;" style="edgeLabel;html=1;align=center;verticalAlign=middle;resizable=0;points=[];" parent="r0H83FI5AYHTwfuRUeML-29" vertex="1" connectable="0">
          <mxGeometry x="-0.7571" relative="1" as="geometry">
            <mxPoint x="-35" y="-86" as="offset" />
          </mxGeometry>
        </mxCell>
        <mxCell id="r0H83FI5AYHTwfuRUeML-27" value="es utilizada por" style="rhombus;whiteSpace=wrap;html=1;" parent="1" vertex="1">
          <mxGeometry x="-440" y="945" width="100" height="60" as="geometry" />
        </mxCell>
        <mxCell id="r0H83FI5AYHTwfuRUeML-39" style="rounded=0;orthogonalLoop=1;jettySize=auto;html=1;endArrow=none;endFill=0;" parent="1" source="r0H83FI5AYHTwfuRUeML-33" target="r0H83FI5AYHTwfuRUeML-35" edge="1">
          <mxGeometry relative="1" as="geometry" />
        </mxCell>
        <mxCell id="r0H83FI5AYHTwfuRUeML-40" style="rounded=0;orthogonalLoop=1;jettySize=auto;html=1;endArrow=none;endFill=0;" parent="1" source="r0H83FI5AYHTwfuRUeML-33" target="r0H83FI5AYHTwfuRUeML-37" edge="1">
          <mxGeometry relative="1" as="geometry" />
        </mxCell>
        <mxCell id="r0H83FI5AYHTwfuRUeML-43" style="rounded=0;orthogonalLoop=1;jettySize=auto;html=1;endArrow=none;endFill=0;" parent="1" source="r0H83FI5AYHTwfuRUeML-33" target="r0H83FI5AYHTwfuRUeML-42" edge="1">
          <mxGeometry relative="1" as="geometry" />
        </mxCell>
        <mxCell id="r0H83FI5AYHTwfuRUeML-45" style="rounded=0;orthogonalLoop=1;jettySize=auto;html=1;endArrow=none;endFill=0;" parent="1" source="r0H83FI5AYHTwfuRUeML-33" target="r0H83FI5AYHTwfuRUeML-44" edge="1">
          <mxGeometry relative="1" as="geometry" />
        </mxCell>
        <mxCell id="8dKxabd2XOVw9RWuB_t7-6" style="edgeStyle=orthogonalEdgeStyle;rounded=0;orthogonalLoop=1;jettySize=auto;html=1;endArrow=none;endFill=0;" parent="1" source="8dKxabd2XOVw9RWuB_t7-7" target="8dKxabd2XOVw9RWuB_t7-4" edge="1">
          <mxGeometry relative="1" as="geometry">
            <Array as="points">
              <mxPoint x="-1470" y="-140" />
              <mxPoint x="-1470" y="1360" />
              <mxPoint x="-440" y="1360" />
            </Array>
          </mxGeometry>
        </mxCell>
        <mxCell id="8dKxabd2XOVw9RWuB_t7-10" value="(0,n)" style="edgeLabel;html=1;align=center;verticalAlign=middle;resizable=0;points=[];" parent="8dKxabd2XOVw9RWuB_t7-6" vertex="1" connectable="0">
          <mxGeometry x="0.9842" y="1" relative="1" as="geometry">
            <mxPoint x="21" as="offset" />
          </mxGeometry>
        </mxCell>
        <mxCell id="r0H83FI5AYHTwfuRUeML-33" value="Cita" style="whiteSpace=wrap;html=1;align=center;" parent="1" vertex="1">
          <mxGeometry x="-240" y="-160" width="100" height="40" as="geometry" />
        </mxCell>
        <mxCell id="r0H83FI5AYHTwfuRUeML-35" value="idCita" style="ellipse;whiteSpace=wrap;html=1;align=center;fontStyle=4;" parent="1" vertex="1">
          <mxGeometry x="-370" y="-230" width="100" height="40" as="geometry" />
        </mxCell>
        <mxCell id="r0H83FI5AYHTwfuRUeML-37" value="fecha" style="ellipse;whiteSpace=wrap;html=1;align=center;" parent="1" vertex="1">
          <mxGeometry x="-270" y="-270" width="100" height="40" as="geometry" />
        </mxCell>
        <mxCell id="r0H83FI5AYHTwfuRUeML-42" value="motivo" style="ellipse;whiteSpace=wrap;html=1;align=center;" parent="1" vertex="1">
          <mxGeometry x="-150" y="-270" width="100" height="40" as="geometry" />
        </mxCell>
        <mxCell id="r0H83FI5AYHTwfuRUeML-44" value="estado" style="ellipse;whiteSpace=wrap;html=1;align=center;" parent="1" vertex="1">
          <mxGeometry x="-80" y="-210" width="100" height="40" as="geometry" />
        </mxCell>
        <mxCell id="r0H83FI5AYHTwfuRUeML-51" style="edgeStyle=orthogonalEdgeStyle;rounded=0;orthogonalLoop=1;jettySize=auto;html=1;endArrow=none;endFill=0;curved=0;jumpStyle=arc;jumpSize=10;" parent="1" source="r0H83FI5AYHTwfuRUeML-33" target="r0H83FI5AYHTwfuRUeML-52" edge="1">
          <mxGeometry relative="1" as="geometry">
            <mxPoint x="370" y="445" as="targetPoint" />
            <mxPoint x="-19.999999999999773" y="-130" as="sourcePoint" />
            <Array as="points">
              <mxPoint x="30" y="-130" />
              <mxPoint x="30" y="310" />
              <mxPoint x="250" y="310" />
            </Array>
          </mxGeometry>
        </mxCell>
        <mxCell id="r0H83FI5AYHTwfuRUeML-54" value="(1,1)" style="edgeLabel;html=1;align=center;verticalAlign=middle;resizable=0;points=[];" parent="r0H83FI5AYHTwfuRUeML-51" vertex="1" connectable="0">
          <mxGeometry x="-0.9514" y="-1" relative="1" as="geometry">
            <mxPoint x="6" y="9" as="offset" />
          </mxGeometry>
        </mxCell>
        <mxCell id="r0H83FI5AYHTwfuRUeML-56" value="&lt;font style=&quot;font-size: 21px;&quot;&gt;N:1&lt;/font&gt;" style="edgeLabel;html=1;align=center;verticalAlign=middle;resizable=0;points=[];" parent="r0H83FI5AYHTwfuRUeML-51" vertex="1" connectable="0">
          <mxGeometry x="0.9602" y="2" relative="1" as="geometry">
            <mxPoint x="-82" y="24" as="offset" />
          </mxGeometry>
        </mxCell>
        <mxCell id="8dKxabd2XOVw9RWuB_t7-30" style="edgeStyle=orthogonalEdgeStyle;rounded=0;orthogonalLoop=1;jettySize=auto;html=1;endArrow=none;endFill=0;" parent="1" source="r0H83FI5AYHTwfuRUeML-46" target="8dKxabd2XOVw9RWuB_t7-29" edge="1">
          <mxGeometry relative="1" as="geometry">
            <Array as="points">
              <mxPoint x="-30" y="260" />
            </Array>
          </mxGeometry>
        </mxCell>
        <mxCell id="8dKxabd2XOVw9RWuB_t7-31" style="edgeStyle=orthogonalEdgeStyle;rounded=0;orthogonalLoop=1;jettySize=auto;html=1;endArrow=none;endFill=0;" parent="1" source="r0H83FI5AYHTwfuRUeML-46" target="8dKxabd2XOVw9RWuB_t7-29" edge="1">
          <mxGeometry relative="1" as="geometry">
            <Array as="points">
              <mxPoint x="-170" y="370" />
            </Array>
          </mxGeometry>
        </mxCell>
        <mxCell id="r0H83FI5AYHTwfuRUeML-46" value="Consulta" style="shape=ext;margin=3;double=1;whiteSpace=wrap;html=1;align=center;" parent="1" vertex="1">
          <mxGeometry x="-240" y="230" width="100" height="40" as="geometry" />
        </mxCell>
        <mxCell id="r0H83FI5AYHTwfuRUeML-48" style="edgeStyle=orthogonalEdgeStyle;rounded=0;orthogonalLoop=1;jettySize=auto;html=1;endArrow=none;endFill=0;" parent="1" source="r0H83FI5AYHTwfuRUeML-47" target="r0H83FI5AYHTwfuRUeML-46" edge="1">
          <mxGeometry relative="1" as="geometry" />
        </mxCell>
        <mxCell id="r0H83FI5AYHTwfuRUeML-58" value="(1,1)" style="edgeLabel;html=1;align=center;verticalAlign=middle;resizable=0;points=[];" parent="r0H83FI5AYHTwfuRUeML-48" vertex="1" connectable="0">
          <mxGeometry x="0.6745" y="1" relative="1" as="geometry">
            <mxPoint x="-21" y="4" as="offset" />
          </mxGeometry>
        </mxCell>
        <mxCell id="r0H83FI5AYHTwfuRUeML-49" style="edgeStyle=orthogonalEdgeStyle;rounded=0;orthogonalLoop=1;jettySize=auto;html=1;endArrow=none;endFill=0;" parent="1" source="r0H83FI5AYHTwfuRUeML-47" target="r0H83FI5AYHTwfuRUeML-33" edge="1">
          <mxGeometry relative="1" as="geometry" />
        </mxCell>
        <mxCell id="r0H83FI5AYHTwfuRUeML-50" value="(0,1)" style="edgeLabel;html=1;align=center;verticalAlign=middle;resizable=0;points=[];" parent="r0H83FI5AYHTwfuRUeML-49" vertex="1" connectable="0">
          <mxGeometry x="0.8023" y="-1" relative="1" as="geometry">
            <mxPoint x="-21" as="offset" />
          </mxGeometry>
        </mxCell>
        <mxCell id="r0H83FI5AYHTwfuRUeML-59" value="&lt;font style=&quot;font-size: 21px;&quot;&gt;1:1&lt;/font&gt;" style="edgeLabel;html=1;align=center;verticalAlign=middle;resizable=0;points=[];" parent="r0H83FI5AYHTwfuRUeML-49" vertex="1" connectable="0">
          <mxGeometry x="-0.7352" y="2" relative="1" as="geometry">
            <mxPoint x="-68" y="24" as="offset" />
          </mxGeometry>
        </mxCell>
        <mxCell id="r0H83FI5AYHTwfuRUeML-47" value="concluye en" style="shape=rhombus;double=1;perimeter=rhombusPerimeter;whiteSpace=wrap;html=1;align=center;" parent="1" vertex="1">
          <mxGeometry x="-250" y="25" width="120" height="60" as="geometry" />
        </mxCell>
        <mxCell id="r0H83FI5AYHTwfuRUeML-53" style="edgeStyle=orthogonalEdgeStyle;rounded=0;orthogonalLoop=1;jettySize=auto;html=1;endArrow=none;endFill=0;" parent="1" source="r0H83FI5AYHTwfuRUeML-52" target="jYLnMtY1XBDBMmt7jPl_-40" edge="1">
          <mxGeometry relative="1" as="geometry" />
        </mxCell>
        <mxCell id="r0H83FI5AYHTwfuRUeML-55" value="(1,n)" style="edgeLabel;html=1;align=center;verticalAlign=middle;resizable=0;points=[];" parent="r0H83FI5AYHTwfuRUeML-53" vertex="1" connectable="0">
          <mxGeometry x="0.7901" relative="1" as="geometry">
            <mxPoint x="20" y="-63" as="offset" />
          </mxGeometry>
        </mxCell>
        <mxCell id="r0H83FI5AYHTwfuRUeML-52" value="paciente citado" style="shape=rhombus;perimeter=rhombusPerimeter;whiteSpace=wrap;html=1;align=center;" parent="1" vertex="1">
          <mxGeometry x="190" y="445" width="120" height="60" as="geometry" />
        </mxCell>
        <mxCell id="r0H83FI5AYHTwfuRUeML-68" value="" style="edgeStyle=orthogonalEdgeStyle;rounded=0;orthogonalLoop=1;jettySize=auto;html=1;endArrow=none;endFill=0;" parent="1" source="jYLnMtY1XBDBMmt7jPl_-157" target="r0H83FI5AYHTwfuRUeML-67" edge="1">
          <mxGeometry relative="1" as="geometry">
            <mxPoint x="-390" y="1090" as="targetPoint" />
            <mxPoint x="-360" y="820" as="sourcePoint" />
            <Array as="points">
              <mxPoint x="-360" y="890" />
              <mxPoint x="-250" y="890" />
            </Array>
          </mxGeometry>
        </mxCell>
        <mxCell id="r0H83FI5AYHTwfuRUeML-70" value="(1,n)" style="edgeLabel;html=1;align=center;verticalAlign=middle;resizable=0;points=[];" parent="r0H83FI5AYHTwfuRUeML-68" vertex="1" connectable="0">
          <mxGeometry x="-0.8631" y="1" relative="1" as="geometry">
            <mxPoint x="19" y="-1" as="offset" />
          </mxGeometry>
        </mxCell>
        <mxCell id="r0H83FI5AYHTwfuRUeML-71" value="&lt;font style=&quot;font-size: 21px;&quot;&gt;N:M&lt;/font&gt;" style="edgeLabel;html=1;align=center;verticalAlign=middle;resizable=0;points=[];" parent="r0H83FI5AYHTwfuRUeML-68" vertex="1" connectable="0">
          <mxGeometry x="0.8834" y="1" relative="1" as="geometry">
            <mxPoint x="39" y="9" as="offset" />
          </mxGeometry>
        </mxCell>
        <mxCell id="r0H83FI5AYHTwfuRUeML-67" value="monitorizada por" style="rhombus;whiteSpace=wrap;html=1;" parent="1" vertex="1">
          <mxGeometry x="-300" y="945" width="100" height="60" as="geometry" />
        </mxCell>
        <mxCell id="r0H83FI5AYHTwfuRUeML-80" style="rounded=0;orthogonalLoop=1;jettySize=auto;html=1;endArrow=none;endFill=0;" parent="1" source="r0H83FI5AYHTwfuRUeML-79" target="jYLnMtY1XBDBMmt7jPl_-237" edge="1">
          <mxGeometry relative="1" as="geometry" />
        </mxCell>
        <mxCell id="r0H83FI5AYHTwfuRUeML-79" value="costo" style="ellipse;whiteSpace=wrap;html=1;align=center;" parent="1" vertex="1">
          <mxGeometry x="700" y="-280" width="100" height="40" as="geometry" />
        </mxCell>
        <mxCell id="r0H83FI5AYHTwfuRUeML-82" style="rounded=0;orthogonalLoop=1;jettySize=auto;html=1;endArrow=none;endFill=0;" parent="1" source="r0H83FI5AYHTwfuRUeML-81" target="r0H83FI5AYHTwfuRUeML-2" edge="1">
          <mxGeometry relative="1" as="geometry" />
        </mxCell>
        <mxCell id="r0H83FI5AYHTwfuRUeML-81" value="dosis&lt;span style=&quot;color: rgba(0, 0, 0, 0); font-family: monospace; font-size: 0px; text-align: start; text-wrap: nowrap;&quot;&gt;%3CmxGraphModel%3E%3Croot%3E%3CmxCell%20id%3D%220%22%2F%3E%3CmxCell%20id%3D%221%22%20parent%3D%220%22%2F%3E%3CmxCell%20id%3D%222%22%20value%3D%22nombre%22%20style%3D%22ellipse%3BwhiteSpace%3Dwrap%3Bhtml%3D1%3Balign%3Dcenter%3B%22%20vertex%3D%221%22%20parent%3D%221%22%3E%3CmxGeometry%20x%3D%22150%22%20y%3D%22110%22%20width%3D%22100%22%20height%3D%2240%22%20as%3D%22geometry%22%2F%3E%3C%2FmxCell%3E%3C%2Froot%3E%3C%2FmxGraphModel%3E&lt;/span&gt;" style="ellipse;whiteSpace=wrap;html=1;align=center;" parent="1" vertex="1">
          <mxGeometry x="320" y="-230" width="100" height="40" as="geometry" />
        </mxCell>
        <mxCell id="HlTitbdx7GmA0fprLowr-1" value="ancho" style="ellipse;whiteSpace=wrap;html=1;align=center;" parent="1" vertex="1">
          <mxGeometry x="470" y="650" width="100" height="40" as="geometry" />
        </mxCell>
        <mxCell id="HlTitbdx7GmA0fprLowr-8" value="motivo" style="ellipse;whiteSpace=wrap;html=1;align=center;" parent="1" vertex="1">
          <mxGeometry x="-860" y="270" width="100" height="40" as="geometry" />
        </mxCell>
        <mxCell id="HlTitbdx7GmA0fprLowr-14" value="Textos cortos" style="verticalLabelPosition=middle;verticalAlign=middle;html=1;shape=hexagon;perimeter=hexagonPerimeter2;arcSize=6;size=0.27;labelPosition=center;align=center;" parent="1" vertex="1">
          <mxGeometry x="-1350" y="1540" width="130" height="50" as="geometry" />
        </mxCell>
        <mxCell id="HlTitbdx7GmA0fprLowr-15" value="&lt;b&gt;&lt;font style=&quot;font-size: 22px;&quot;&gt;DOMINIOS&lt;/font&gt;&lt;/b&gt;" style="text;html=1;align=center;verticalAlign=middle;resizable=0;points=[];autosize=1;strokeColor=none;fillColor=none;" parent="1" vertex="1">
          <mxGeometry x="-1385" y="1380" width="130" height="40" as="geometry" />
        </mxCell>
        <mxCell id="HlTitbdx7GmA0fprLowr-17" value="DNI" style="verticalLabelPosition=middle;verticalAlign=middle;html=1;shape=hexagon;perimeter=hexagonPerimeter2;arcSize=6;size=0.27;labelPosition=center;align=center;" parent="1" vertex="1">
          <mxGeometry x="-1350" y="1440" width="130" height="50" as="geometry" />
        </mxCell>
        <mxCell id="HlTitbdx7GmA0fprLowr-18" value="Textos medianos" style="verticalLabelPosition=middle;verticalAlign=middle;html=1;shape=hexagon;perimeter=hexagonPerimeter2;arcSize=6;size=0.27;labelPosition=center;align=center;" parent="1" vertex="1">
          <mxGeometry x="-1350" y="1660" width="130" height="50" as="geometry" />
        </mxCell>
        <mxCell id="HlTitbdx7GmA0fprLowr-19" value="Textos largos" style="verticalLabelPosition=middle;verticalAlign=middle;html=1;shape=hexagon;perimeter=hexagonPerimeter2;arcSize=6;size=0.27;labelPosition=center;align=center;" parent="1" vertex="1">
          <mxGeometry x="-1350" y="1820" width="130" height="50" as="geometry" />
        </mxCell>
        <mxCell id="HlTitbdx7GmA0fprLowr-20" value="Textos muy largos" style="verticalLabelPosition=middle;verticalAlign=middle;html=1;shape=hexagon;perimeter=hexagonPerimeter2;arcSize=6;size=0.27;labelPosition=center;align=center;" parent="1" vertex="1">
          <mxGeometry x="-1350" y="1920" width="130" height="50" as="geometry" />
        </mxCell>
        <mxCell id="HlTitbdx7GmA0fprLowr-21" value="Turnos" style="verticalLabelPosition=middle;verticalAlign=middle;html=1;shape=hexagon;perimeter=hexagonPerimeter2;arcSize=6;size=0.27;labelPosition=center;align=center;" parent="1" vertex="1">
          <mxGeometry x="-1350" y="2030" width="130" height="50" as="geometry" />
        </mxCell>
        <mxCell id="HlTitbdx7GmA0fprLowr-22" value="Estado actual" style="verticalLabelPosition=middle;verticalAlign=middle;html=1;shape=hexagon;perimeter=hexagonPerimeter2;arcSize=6;size=0.27;labelPosition=center;align=center;" parent="1" vertex="1">
          <mxGeometry x="-1350" y="2110" width="130" height="50" as="geometry" />
        </mxCell>
        <mxCell id="HlTitbdx7GmA0fprLowr-23" value="Estado" style="verticalLabelPosition=middle;verticalAlign=middle;html=1;shape=hexagon;perimeter=hexagonPerimeter2;arcSize=6;size=0.27;labelPosition=center;align=center;" parent="1" vertex="1">
          <mxGeometry x="-1350" y="2195" width="130" height="50" as="geometry" />
        </mxCell>
        <mxCell id="HlTitbdx7GmA0fprLowr-24" value="Cadenas de texto de hasta 9 caracteres" style="text;html=1;align=center;verticalAlign=middle;resizable=0;points=[];autosize=1;strokeColor=none;fillColor=none;" parent="1" vertex="1">
          <mxGeometry x="-1210" y="1450" width="240" height="30" as="geometry" />
        </mxCell>
        <mxCell id="HlTitbdx7GmA0fprLowr-25" value="Cadenas de texto de hasta 20&amp;nbsp;&lt;span style=&quot;background-color: initial;&quot;&gt;caracteres&lt;/span&gt;" style="text;html=1;align=center;verticalAlign=middle;resizable=0;points=[];autosize=1;strokeColor=none;fillColor=none;" parent="1" vertex="1">
          <mxGeometry x="-1205" y="1550" width="240" height="30" as="geometry" />
        </mxCell>
        <mxCell id="HlTitbdx7GmA0fprLowr-28" value="Cadenas de texto de hasta 50&amp;nbsp;&lt;span style=&quot;background-color: initial;&quot;&gt;caracteres&lt;/span&gt;" style="text;html=1;align=center;verticalAlign=middle;resizable=0;points=[];autosize=1;strokeColor=none;fillColor=none;" parent="1" vertex="1">
          <mxGeometry x="-1205" y="1670" width="240" height="30" as="geometry" />
        </mxCell>
        <mxCell id="HlTitbdx7GmA0fprLowr-29" value="Cadenas de texto de hasta 100&amp;nbsp;&lt;span style=&quot;background-color: initial;&quot;&gt;caracteres&lt;/span&gt;" style="text;html=1;align=center;verticalAlign=middle;resizable=0;points=[];autosize=1;strokeColor=none;fillColor=none;" parent="1" vertex="1">
          <mxGeometry x="-1205" y="1830" width="250" height="30" as="geometry" />
        </mxCell>
        <mxCell id="HlTitbdx7GmA0fprLowr-30" value="Cadenas de texto de hasta 150&amp;nbsp;&lt;span style=&quot;background-color: initial;&quot;&gt;caracteres&lt;/span&gt;" style="text;html=1;align=center;verticalAlign=middle;resizable=0;points=[];autosize=1;strokeColor=none;fillColor=none;" parent="1" vertex="1">
          <mxGeometry x="-1205" y="1930" width="250" height="30" as="geometry" />
        </mxCell>
        <mxCell id="HlTitbdx7GmA0fprLowr-31" value="Extensión {&quot;día&quot;, &quot;noche&quot;}" style="text;html=1;align=center;verticalAlign=middle;resizable=0;points=[];autosize=1;strokeColor=none;fillColor=none;" parent="1" vertex="1">
          <mxGeometry x="-1205" y="2040" width="160" height="30" as="geometry" />
        </mxCell>
        <mxCell id="HlTitbdx7GmA0fprLowr-32" value="Extensión&amp;nbsp;{“ingresado”, “en tratamiento”,&lt;span style=&quot;background-color: initial;&quot;&gt;&amp;nbsp;“en cirugía”,&amp;nbsp;&lt;/span&gt;&lt;div&gt;&lt;span style=&quot;background-color: initial;&quot;&gt;“derivado”,&amp;nbsp;&lt;/span&gt;&lt;span style=&quot;background-color: initial;&quot;&gt;“en observación”, “fallecido”,&amp;nbsp;&lt;/span&gt;&lt;div&gt;“dado de alta”}.&lt;/div&gt;&lt;/div&gt;" style="text;html=1;align=center;verticalAlign=middle;resizable=0;points=[];autosize=1;strokeColor=none;fillColor=none;" parent="1" vertex="1">
          <mxGeometry x="-1205" y="2105" width="310" height="60" as="geometry" />
        </mxCell>
        <mxCell id="HlTitbdx7GmA0fprLowr-33" value="Extensión&amp;nbsp;{“programada&quot;, &quot;completada&quot;, &quot;cancelada&quot;&lt;span style=&quot;background-color: initial;&quot;&gt;}.&lt;/span&gt;" style="text;html=1;align=center;verticalAlign=middle;resizable=0;points=[];autosize=1;strokeColor=none;fillColor=none;" parent="1" vertex="1">
          <mxGeometry x="-1205" y="2205" width="310" height="30" as="geometry" />
        </mxCell>
        <mxCell id="HlTitbdx7GmA0fprLowr-34" value="Numeros de&amp;nbsp;&lt;div&gt;3 dígitos&lt;/div&gt;" style="verticalLabelPosition=middle;verticalAlign=middle;html=1;shape=hexagon;perimeter=hexagonPerimeter2;arcSize=6;size=0.27;labelPosition=center;align=center;" parent="1" vertex="1">
          <mxGeometry x="-865" y="1630" width="130" height="50" as="geometry" />
        </mxCell>
        <mxCell id="HlTitbdx7GmA0fprLowr-35" value="Códigos" style="verticalLabelPosition=middle;verticalAlign=middle;html=1;shape=hexagon;perimeter=hexagonPerimeter2;arcSize=6;size=0.27;labelPosition=center;align=center;" parent="1" vertex="1">
          <mxGeometry x="-865" y="1440" width="130" height="50" as="geometry" />
        </mxCell>
        <mxCell id="HlTitbdx7GmA0fprLowr-36" value="Numeros de&amp;nbsp;&lt;div&gt;4 dígitos&lt;/div&gt;" style="verticalLabelPosition=middle;verticalAlign=middle;html=1;shape=hexagon;perimeter=hexagonPerimeter2;arcSize=6;size=0.27;labelPosition=center;align=center;" parent="1" vertex="1">
          <mxGeometry x="-865" y="1710" width="130" height="50" as="geometry" />
        </mxCell>
        <mxCell id="HlTitbdx7GmA0fprLowr-37" value="&lt;span style=&quot;color: rgb(0, 0, 0); font-family: Helvetica; font-size: 12px; font-style: normal; font-variant-ligatures: normal; font-variant-caps: normal; font-weight: 400; letter-spacing: normal; orphans: 2; text-align: center; text-indent: 0px; text-transform: none; widows: 2; word-spacing: 0px; -webkit-text-stroke-width: 0px; white-space: nowrap; background-color: rgb(251, 251, 251); text-decoration-thickness: initial; text-decoration-style: initial; text-decoration-color: initial; display: inline !important; float: none;&quot;&gt;Numeros de&amp;nbsp;&lt;/span&gt;&lt;div style=&quot;forced-color-adjust: none; color: rgb(0, 0, 0); font-family: Helvetica; font-size: 12px; font-style: normal; font-variant-ligatures: normal; font-variant-caps: normal; font-weight: 400; letter-spacing: normal; orphans: 2; text-align: center; text-indent: 0px; text-transform: none; widows: 2; word-spacing: 0px; -webkit-text-stroke-width: 0px; white-space: nowrap; background-color: rgb(251, 251, 251); text-decoration-thickness: initial; text-decoration-style: initial; text-decoration-color: initial;&quot;&gt;5 dígitos&lt;/div&gt;" style="verticalLabelPosition=middle;verticalAlign=middle;html=1;shape=hexagon;perimeter=hexagonPerimeter2;arcSize=6;size=0.27;labelPosition=center;align=center;" parent="1" vertex="1">
          <mxGeometry x="-865" y="1790" width="130" height="50" as="geometry" />
        </mxCell>
        <mxCell id="HlTitbdx7GmA0fprLowr-38" value="Teléfonos" style="verticalLabelPosition=middle;verticalAlign=middle;html=1;shape=hexagon;perimeter=hexagonPerimeter2;arcSize=6;size=0.27;labelPosition=center;align=center;" parent="1" vertex="1">
          <mxGeometry x="-865" y="1900" width="130" height="50" as="geometry" />
        </mxCell>
        <mxCell id="HlTitbdx7GmA0fprLowr-39" value="Numeros de&amp;nbsp;&lt;div&gt;2 dígitos entero&amp;nbsp;&lt;/div&gt;&lt;div&gt;positivo&lt;/div&gt;" style="verticalLabelPosition=middle;verticalAlign=middle;html=1;shape=hexagon;perimeter=hexagonPerimeter2;arcSize=6;size=0.27;labelPosition=center;align=center;" parent="1" vertex="1">
          <mxGeometry x="-865" y="2010" width="130" height="50" as="geometry" />
        </mxCell>
        <mxCell id="HlTitbdx7GmA0fprLowr-40" value="Pesos" style="verticalLabelPosition=middle;verticalAlign=middle;html=1;shape=hexagon;perimeter=hexagonPerimeter2;arcSize=6;size=0.27;labelPosition=center;align=center;" parent="1" vertex="1">
          <mxGeometry x="-865" y="2177.5" width="130" height="50" as="geometry" />
        </mxCell>
        <mxCell id="HlTitbdx7GmA0fprLowr-41" value="Dimensiones" style="verticalLabelPosition=middle;verticalAlign=middle;html=1;shape=hexagon;perimeter=hexagonPerimeter2;arcSize=6;size=0.27;labelPosition=center;align=center;" parent="1" vertex="1">
          <mxGeometry x="-865" y="2257.5" width="130" height="50" as="geometry" />
        </mxCell>
        <mxCell id="HlTitbdx7GmA0fprLowr-42" value="Numeros enteros de hasta 6 dígitos.&lt;div&gt;Dígitos 0-9.&lt;/div&gt;" style="text;html=1;align=center;verticalAlign=middle;resizable=0;points=[];autosize=1;strokeColor=none;fillColor=none;" parent="1" vertex="1">
          <mxGeometry x="-705" y="1445" width="220" height="40" as="geometry" />
        </mxCell>
        <mxCell id="HlTitbdx7GmA0fprLowr-43" value="&lt;span style=&quot;color: rgb(0, 0, 0); font-family: Helvetica; font-size: 12px; font-style: normal; font-variant-ligatures: normal; font-variant-caps: normal; font-weight: 400; letter-spacing: normal; orphans: 2; text-align: center; text-indent: 0px; text-transform: none; widows: 2; word-spacing: 0px; -webkit-text-stroke-width: 0px; white-space: nowrap; background-color: rgb(251, 251, 251); text-decoration-thickness: initial; text-decoration-style: initial; text-decoration-color: initial; display: inline !important; float: none;&quot;&gt;Numeros enteros de hasta 3 dígitos.&lt;/span&gt;&lt;div style=&quot;forced-color-adjust: none; color: rgb(0, 0, 0); font-family: Helvetica; font-size: 12px; font-style: normal; font-variant-ligatures: normal; font-variant-caps: normal; font-weight: 400; letter-spacing: normal; orphans: 2; text-align: center; text-indent: 0px; text-transform: none; widows: 2; word-spacing: 0px; -webkit-text-stroke-width: 0px; white-space: nowrap; background-color: rgb(251, 251, 251); text-decoration-thickness: initial; text-decoration-style: initial; text-decoration-color: initial;&quot;&gt;Dígitos 0-9.&lt;/div&gt;" style="text;html=1;align=center;verticalAlign=middle;resizable=0;points=[];autosize=1;strokeColor=none;fillColor=none;" parent="1" vertex="1">
          <mxGeometry x="-705" y="1640" width="220" height="40" as="geometry" />
        </mxCell>
        <mxCell id="HlTitbdx7GmA0fprLowr-44" value="Numeros enteros de hasta 4 dígitos.&lt;div&gt;Dígitos 0-9.&lt;/div&gt;" style="text;html=1;align=center;verticalAlign=middle;resizable=0;points=[];autosize=1;strokeColor=none;fillColor=none;" parent="1" vertex="1">
          <mxGeometry x="-705" y="1715" width="220" height="40" as="geometry" />
        </mxCell>
        <mxCell id="HlTitbdx7GmA0fprLowr-45" value="Numeros enteros de hasta 5 dígitos.&lt;div&gt;Dígitos 0-9.&lt;/div&gt;" style="text;html=1;align=center;verticalAlign=middle;resizable=0;points=[];autosize=1;strokeColor=none;fillColor=none;" parent="1" vertex="1">
          <mxGeometry x="-705" y="1795" width="220" height="40" as="geometry" />
        </mxCell>
        <mxCell id="HlTitbdx7GmA0fprLowr-46" value="Numeros enteros de hasta 12 dígitos.&lt;div&gt;Dígitos 0-9.&lt;/div&gt;" style="text;html=1;align=center;verticalAlign=middle;resizable=0;points=[];autosize=1;strokeColor=none;fillColor=none;" parent="1" vertex="1">
          <mxGeometry x="-700" y="1905" width="220" height="40" as="geometry" />
        </mxCell>
        <mxCell id="HlTitbdx7GmA0fprLowr-47" value="Numeros enteros de hasta 4 dígitos.&lt;div&gt;Dígitos 0-9. Debe ser entero, &amp;gt; 0 y menor&amp;nbsp;&lt;/div&gt;&lt;div&gt;que el año actual&lt;/div&gt;" style="text;html=1;align=center;verticalAlign=middle;resizable=0;points=[];autosize=1;strokeColor=none;fillColor=none;" parent="1" vertex="1">
          <mxGeometry x="-720" y="2090" width="250" height="60" as="geometry" />
        </mxCell>
        <mxCell id="HlTitbdx7GmA0fprLowr-48" value="&lt;span style=&quot;forced-color-adjust: none; color: rgb(0, 0, 0); font-family: Helvetica; font-size: 12px; font-style: normal; font-variant-ligatures: normal; font-variant-caps: normal; font-weight: 400; letter-spacing: normal; orphans: 2; text-align: center; text-indent: 0px; text-transform: none; widows: 2; word-spacing: 0px; -webkit-text-stroke-width: 0px; white-space: nowrap; text-decoration-thickness: initial; text-decoration-style: initial; text-decoration-color: initial; background-color: rgb(251, 251, 251); float: none; display: inline !important;&quot;&gt;Numeros de hasta 2 dígitos y&amp;nbsp;&lt;/span&gt;&lt;div&gt;&lt;span style=&quot;forced-color-adjust: none; color: rgb(0, 0, 0); font-family: Helvetica; font-size: 12px; font-style: normal; font-variant-ligatures: normal; font-variant-caps: normal; font-weight: 400; letter-spacing: normal; orphans: 2; text-align: center; text-indent: 0px; text-transform: none; widows: 2; word-spacing: 0px; -webkit-text-stroke-width: 0px; white-space: nowrap; text-decoration-thickness: initial; text-decoration-style: initial; text-decoration-color: initial; background-color: rgb(251, 251, 251); float: none; display: inline !important;&quot;&gt;2 decimales.&amp;nbsp;&lt;/span&gt;Dígitos 0-9.&lt;span style=&quot;background-color: initial;&quot;&gt;&amp;nbsp;&lt;/span&gt;&lt;/div&gt;&lt;div&gt;Debe ser positivo.&lt;/div&gt;" style="text;html=1;align=center;verticalAlign=middle;resizable=0;points=[];autosize=1;strokeColor=none;fillColor=none;" parent="1" vertex="1">
          <mxGeometry x="-700" y="2190" width="180" height="60" as="geometry" />
        </mxCell>
        <mxCell id="HlTitbdx7GmA0fprLowr-51" value="Costos" style="verticalLabelPosition=middle;verticalAlign=middle;html=1;shape=hexagon;perimeter=hexagonPerimeter2;arcSize=6;size=0.27;labelPosition=center;align=center;" parent="1" vertex="1">
          <mxGeometry x="-865" y="2337.5" width="130" height="50" as="geometry" />
        </mxCell>
        <mxCell id="HlTitbdx7GmA0fprLowr-52" value="Numeros de&amp;nbsp;&lt;div&gt;4 dígitos entero&amp;nbsp;&lt;/div&gt;&lt;div&gt;positivo&lt;/div&gt;" style="verticalLabelPosition=middle;verticalAlign=middle;html=1;shape=hexagon;perimeter=hexagonPerimeter2;arcSize=6;size=0.27;labelPosition=center;align=center;" parent="1" vertex="1">
          <mxGeometry x="-865" y="2095" width="130" height="50" as="geometry" />
        </mxCell>
        <mxCell id="HlTitbdx7GmA0fprLowr-53" value="Numeros enteros de hasta 2 dígitos.&lt;div&gt;Dígitos 0-9. Debe ser entero y &amp;gt; 0&lt;/div&gt;" style="text;html=1;align=center;verticalAlign=middle;resizable=0;points=[];autosize=1;strokeColor=none;fillColor=none;" parent="1" vertex="1">
          <mxGeometry x="-705" y="2015" width="220" height="40" as="geometry" />
        </mxCell>
        <mxCell id="HlTitbdx7GmA0fprLowr-54" value="&lt;span style=&quot;forced-color-adjust: none; color: rgb(0, 0, 0); font-family: Helvetica; font-size: 12px; font-style: normal; font-variant-ligatures: normal; font-variant-caps: normal; font-weight: 400; letter-spacing: normal; orphans: 2; text-align: center; text-indent: 0px; text-transform: none; widows: 2; word-spacing: 0px; -webkit-text-stroke-width: 0px; white-space: nowrap; text-decoration-thickness: initial; text-decoration-style: initial; text-decoration-color: initial; background-color: rgb(251, 251, 251); float: none; display: inline !important;&quot;&gt;Numeros de hasta 5 dígitos y&amp;nbsp;&lt;/span&gt;&lt;div&gt;&lt;span style=&quot;forced-color-adjust: none; color: rgb(0, 0, 0); font-family: Helvetica; font-size: 12px; font-style: normal; font-variant-ligatures: normal; font-variant-caps: normal; font-weight: 400; letter-spacing: normal; orphans: 2; text-align: center; text-indent: 0px; text-transform: none; widows: 2; word-spacing: 0px; -webkit-text-stroke-width: 0px; white-space: nowrap; text-decoration-thickness: initial; text-decoration-style: initial; text-decoration-color: initial; background-color: rgb(251, 251, 251); float: none; display: inline !important;&quot;&gt;2 decimales.&amp;nbsp;&lt;/span&gt;Dígitos 0-9.&lt;span style=&quot;background-color: initial;&quot;&gt;&amp;nbsp;&lt;/span&gt;&lt;/div&gt;&lt;div&gt;Debe ser positivo.&lt;/div&gt;" style="text;html=1;align=center;verticalAlign=middle;resizable=0;points=[];autosize=1;strokeColor=none;fillColor=none;" parent="1" vertex="1">
          <mxGeometry x="-700" y="2252.5" width="180" height="60" as="geometry" />
        </mxCell>
        <mxCell id="HlTitbdx7GmA0fprLowr-55" value="&lt;span style=&quot;forced-color-adjust: none; color: rgb(0, 0, 0); font-family: Helvetica; font-size: 12px; font-style: normal; font-variant-ligatures: normal; font-variant-caps: normal; font-weight: 400; letter-spacing: normal; orphans: 2; text-align: center; text-indent: 0px; text-transform: none; widows: 2; word-spacing: 0px; -webkit-text-stroke-width: 0px; white-space: nowrap; text-decoration-thickness: initial; text-decoration-style: initial; text-decoration-color: initial; background-color: rgb(251, 251, 251); float: none; display: inline !important;&quot;&gt;Numeros de hasta 6 dígitos y&amp;nbsp;&lt;/span&gt;&lt;div&gt;&lt;span style=&quot;forced-color-adjust: none; color: rgb(0, 0, 0); font-family: Helvetica; font-size: 12px; font-style: normal; font-variant-ligatures: normal; font-variant-caps: normal; font-weight: 400; letter-spacing: normal; orphans: 2; text-align: center; text-indent: 0px; text-transform: none; widows: 2; word-spacing: 0px; -webkit-text-stroke-width: 0px; white-space: nowrap; text-decoration-thickness: initial; text-decoration-style: initial; text-decoration-color: initial; background-color: rgb(251, 251, 251); float: none; display: inline !important;&quot;&gt;2 decimales.&amp;nbsp;&lt;/span&gt;Dígitos 0-9.&amp;nbsp;&lt;/div&gt;&lt;div&gt;Debe ser positivo.&lt;/div&gt;" style="text;html=1;align=center;verticalAlign=middle;resizable=0;points=[];autosize=1;strokeColor=none;fillColor=none;rotation=0;" parent="1" vertex="1">
          <mxGeometry x="-700" y="2332.5" width="180" height="60" as="geometry" />
        </mxCell>
        <mxCell id="HlTitbdx7GmA0fprLowr-56" value="Fechas" style="verticalLabelPosition=middle;verticalAlign=middle;html=1;shape=hexagon;perimeter=hexagonPerimeter2;arcSize=6;size=0.27;labelPosition=center;align=center;" parent="1" vertex="1">
          <mxGeometry x="-390" y="1440" width="130" height="50" as="geometry" />
        </mxCell>
        <mxCell id="HlTitbdx7GmA0fprLowr-57" value="Fecha y hora" style="verticalLabelPosition=middle;verticalAlign=middle;html=1;shape=hexagon;perimeter=hexagonPerimeter2;arcSize=6;size=0.27;labelPosition=center;align=center;" parent="1" vertex="1">
          <mxGeometry x="-390" y="1580" width="130" height="50" as="geometry" />
        </mxCell>
        <mxCell id="HlTitbdx7GmA0fprLowr-58" value="Fecha formada por día, mes y año." style="text;html=1;align=center;verticalAlign=middle;resizable=0;points=[];autosize=1;strokeColor=none;fillColor=none;" parent="1" vertex="1">
          <mxGeometry x="-220" y="1450" width="210" height="30" as="geometry" />
        </mxCell>
        <mxCell id="HlTitbdx7GmA0fprLowr-60" value="Fecha formada por día, mes, año, hora y minuto." style="text;html=1;align=center;verticalAlign=middle;resizable=0;points=[];autosize=1;strokeColor=none;fillColor=none;" parent="1" vertex="1">
          <mxGeometry x="-220" y="1590" width="280" height="30" as="geometry" />
        </mxCell>
        <mxCell id="HlTitbdx7GmA0fprLowr-62" value="Empleado: DNI" style="text;html=1;align=left;verticalAlign=middle;resizable=0;points=[];autosize=1;strokeColor=none;fillColor=none;" parent="1" vertex="1">
          <mxGeometry x="-1350" y="1490" width="100" height="30" as="geometry" />
        </mxCell>
        <mxCell id="HlTitbdx7GmA0fprLowr-63" value="&lt;div&gt;Dueño: tipo de vía&lt;/div&gt;Empleado: tipo de vía&lt;div&gt;Proveedor: tipo de via&lt;/div&gt;" style="text;html=1;align=left;verticalAlign=middle;resizable=0;points=[];autosize=1;strokeColor=none;fillColor=none;" parent="1" vertex="1">
          <mxGeometry x="-1355" y="1590" width="140" height="60" as="geometry" />
        </mxCell>
        <mxCell id="HlTitbdx7GmA0fprLowr-64" value="Animal: nombre, raza&lt;div&gt;Dueño: nombre, apellido1, apellido2, correo electrónico, nombreCalle, país, región&lt;/div&gt;&lt;div&gt;Receta: dosis&lt;/div&gt;&lt;div&gt;Medicamento: nombre,&amp;nbsp;&lt;span style=&quot;background-color: initial;&quot;&gt;tipo&lt;/span&gt;&lt;/div&gt;&lt;div&gt;Proveedor: nombre, correo electrónico, nombreCalle, país, región&lt;/div&gt;&lt;div&gt;Empleado: nombre, apellido1, apellido2, correo electrónico, nombreCalle, país, región&lt;/div&gt;" style="text;html=1;align=left;verticalAlign=middle;resizable=0;points=[];autosize=1;strokeColor=none;fillColor=none;" parent="1" vertex="1">
          <mxGeometry x="-1355" y="1715" width="480" height="100" as="geometry" />
        </mxCell>
        <mxCell id="HlTitbdx7GmA0fprLowr-65" value="&lt;div&gt;Animal: descripción&lt;/div&gt;&lt;div&gt;Sección: propósito&lt;/div&gt;&lt;div&gt;&lt;br&gt;&lt;/div&gt;" style="text;html=1;align=left;verticalAlign=middle;resizable=0;points=[];autosize=1;strokeColor=none;fillColor=none;" parent="1" vertex="1">
          <mxGeometry x="-1350" y="1870" width="130" height="60" as="geometry" />
        </mxCell>
        <mxCell id="HlTitbdx7GmA0fprLowr-66" value="&lt;div&gt;Consulta de urgencia: descripción&lt;/div&gt;&lt;div&gt;Consulta rutinaria: motivo&lt;/div&gt;&lt;div&gt;Cita: motivo&lt;/div&gt;" style="text;html=1;align=left;verticalAlign=middle;resizable=0;points=[];autosize=1;strokeColor=none;fillColor=none;" parent="1" vertex="1">
          <mxGeometry x="-1355" y="1970" width="200" height="60" as="geometry" />
        </mxCell>
        <mxCell id="HlTitbdx7GmA0fprLowr-67" value="&lt;div&gt;Empleado: turno&lt;/div&gt;" style="text;html=1;align=left;verticalAlign=middle;resizable=0;points=[];autosize=1;strokeColor=none;fillColor=none;" parent="1" vertex="1">
          <mxGeometry x="-1355" y="2080" width="110" height="30" as="geometry" />
        </mxCell>
        <mxCell id="HlTitbdx7GmA0fprLowr-68" value="&lt;div&gt;Consulta de urgencia: estado actual&lt;/div&gt;" style="text;html=1;align=left;verticalAlign=middle;resizable=0;points=[];autosize=1;strokeColor=none;fillColor=none;" parent="1" vertex="1">
          <mxGeometry x="-1355" y="2160" width="210" height="30" as="geometry" />
        </mxCell>
        <mxCell id="HlTitbdx7GmA0fprLowr-69" value="&lt;div&gt;Cita: estado&lt;/div&gt;" style="text;html=1;align=left;verticalAlign=middle;resizable=0;points=[];autosize=1;strokeColor=none;fillColor=none;" parent="1" vertex="1">
          <mxGeometry x="-1355" y="2245" width="90" height="30" as="geometry" />
        </mxCell>
        <mxCell id="HlTitbdx7GmA0fprLowr-72" value="Animal: idAnimal&lt;div&gt;Dueño&lt;span style=&quot;background-color: initial;&quot;&gt;:&amp;nbsp;&lt;/span&gt;&lt;span style=&quot;background-color: initial;&quot;&gt;idDueño&lt;/span&gt;&lt;/div&gt;&lt;div&gt;&lt;span style=&quot;background-color: initial;&quot;&gt;Medicamento&lt;/span&gt;&lt;span style=&quot;background-color: initial;&quot;&gt;:&amp;nbsp;&lt;/span&gt;&lt;span style=&quot;background-color: initial;&quot;&gt;idMedicamento&lt;/span&gt;&lt;/div&gt;&lt;div&gt;&lt;span style=&quot;background-color: initial;&quot;&gt;Proveedor&lt;/span&gt;&lt;span style=&quot;background-color: initial;&quot;&gt;:&amp;nbsp;&lt;/span&gt;&lt;span style=&quot;background-color: initial;&quot;&gt;idProveedor&lt;/span&gt;&lt;/div&gt;&lt;div&gt;&lt;span style=&quot;background-color: initial;&quot;&gt;Consulta&lt;/span&gt;&lt;span style=&quot;background-color: initial;&quot;&gt;:&amp;nbsp;&lt;/span&gt;&lt;span style=&quot;background-color: initial;&quot;&gt;idConsulta&lt;/span&gt;&lt;/div&gt;&lt;div&gt;&lt;span style=&quot;background-color: initial;&quot;&gt;Cita&lt;/span&gt;&lt;span style=&quot;background-color: initial;&quot;&gt;:&amp;nbsp;&lt;/span&gt;&lt;span style=&quot;background-color: initial;&quot;&gt;idCita&lt;/span&gt;&lt;/div&gt;&lt;div&gt;&lt;span style=&quot;background-color: initial;&quot;&gt;Sección&lt;/span&gt;&lt;span style=&quot;background-color: initial;&quot;&gt;:&amp;nbsp;&lt;/span&gt;&lt;span style=&quot;background-color: initial;&quot;&gt;id&lt;/span&gt;&lt;span style=&quot;background-color: initial;&quot;&gt;Seccion&lt;/span&gt;&lt;/div&gt;&lt;div&gt;Sala&lt;span style=&quot;background-color: initial;&quot;&gt;:&amp;nbsp;&lt;/span&gt;&lt;span style=&quot;background-color: initial;&quot;&gt;idSala&lt;/span&gt;&lt;/div&gt;&lt;div&gt;&lt;span style=&quot;background-color: initial;&quot;&gt;Empleado&lt;/span&gt;&lt;span style=&quot;background-color: initial;&quot;&gt;:&amp;nbsp;&lt;/span&gt;&lt;span style=&quot;background-color: initial;&quot;&gt;idEmpleado&lt;/span&gt;&lt;/div&gt;" style="text;html=1;align=left;verticalAlign=middle;resizable=0;points=[];autosize=1;strokeColor=none;fillColor=none;" parent="1" vertex="1">
          <mxGeometry x="-870" y="1490" width="180" height="140" as="geometry" />
        </mxCell>
        <mxCell id="HlTitbdx7GmA0fprLowr-73" value="Receta: unidades a suministrar" style="text;html=1;align=left;verticalAlign=middle;resizable=0;points=[];autosize=1;strokeColor=none;fillColor=none;" parent="1" vertex="1">
          <mxGeometry x="-870" y="1680" width="190" height="30" as="geometry" />
        </mxCell>
        <mxCell id="HlTitbdx7GmA0fprLowr-74" value="Sala de hospitalización: duracion esperada" style="text;html=1;align=left;verticalAlign=middle;resizable=0;points=[];autosize=1;strokeColor=none;fillColor=none;" parent="1" vertex="1">
          <mxGeometry x="-870" y="1760" width="250" height="30" as="geometry" />
        </mxCell>
        <mxCell id="HlTitbdx7GmA0fprLowr-75" value="Animal: año de nacimiento" style="text;html=1;align=left;verticalAlign=middle;resizable=0;points=[];autosize=1;strokeColor=none;fillColor=none;" parent="1" vertex="1">
          <mxGeometry x="-870" y="2145" width="160" height="30" as="geometry" />
        </mxCell>
        <mxCell id="HlTitbdx7GmA0fprLowr-76" value="Animal: altura, largo, ancho" style="text;html=1;align=left;verticalAlign=middle;resizable=0;points=[];autosize=1;strokeColor=none;fillColor=none;" parent="1" vertex="1">
          <mxGeometry x="-870" y="2307.5" width="170" height="30" as="geometry" />
        </mxCell>
        <mxCell id="HlTitbdx7GmA0fprLowr-77" value="Dueño: numero, codigo postal&lt;div&gt;Proveedor:&lt;span style=&quot;background-color: initial;&quot;&gt;&amp;nbsp;&lt;/span&gt;&lt;span style=&quot;background-color: initial;&quot;&gt;numero, codigo postal&lt;/span&gt;&lt;span style=&quot;background-color: initial;&quot;&gt;&amp;nbsp;&lt;/span&gt;&lt;/div&gt;&lt;div&gt;Empleado:&lt;span style=&quot;background-color: initial;&quot;&gt;&amp;nbsp;&lt;/span&gt;&lt;span style=&quot;background-color: initial;&quot;&gt;numero, codigo postal&lt;/span&gt;&lt;/div&gt;" style="text;html=1;align=left;verticalAlign=middle;resizable=0;points=[];autosize=1;strokeColor=none;fillColor=none;" parent="1" vertex="1">
          <mxGeometry x="-870" y="1840" width="210" height="60" as="geometry" />
        </mxCell>
        <mxCell id="HlTitbdx7GmA0fprLowr-78" value="Dueño: teléfono&lt;div&gt;Proveedor:&lt;span style=&quot;background-color: initial;&quot;&gt;&amp;nbsp;&lt;/span&gt;&lt;span style=&quot;background-color: initial;&quot;&gt;teléfono,&amp;nbsp;&lt;/span&gt;&lt;span style=&quot;background-color: initial;&quot;&gt;teléfono urgencias&lt;/span&gt;&lt;/div&gt;&lt;div&gt;Empleado:&lt;span style=&quot;background-color: initial;&quot;&gt;&amp;nbsp;&lt;/span&gt;&lt;span style=&quot;background-color: initial;&quot;&gt;teléfono&lt;/span&gt;&lt;/div&gt;" style="text;html=1;align=left;verticalAlign=middle;resizable=0;points=[];autosize=1;strokeColor=none;fillColor=none;" parent="1" vertex="1">
          <mxGeometry x="-870" y="1950" width="230" height="60" as="geometry" />
        </mxCell>
        <mxCell id="HlTitbdx7GmA0fprLowr-80" value="Animal: peso" style="text;html=1;align=left;verticalAlign=middle;resizable=0;points=[];autosize=1;strokeColor=none;fillColor=none;" parent="1" vertex="1">
          <mxGeometry x="-870" y="2227.5" width="90" height="30" as="geometry" />
        </mxCell>
        <mxCell id="HlTitbdx7GmA0fprLowr-81" value="Medicamento: costo&lt;div&gt;Sala de hospitalización: costo esperado,&amp;nbsp;&lt;/div&gt;&lt;div&gt;&lt;span style=&quot;text-align: center; text-wrap: wrap; background-color: initial;&quot;&gt;&lt;span style=&quot;white-space: pre;&quot;&gt;&#x9;&lt;/span&gt;coste base diario,&amp;nbsp;&lt;/span&gt;&lt;/div&gt;&lt;div&gt;&lt;span style=&quot;background-color: initial; text-align: center; text-wrap: wrap;&quot;&gt;&lt;span style=&quot;white-space: pre;&quot;&gt;&#x9;&lt;/span&gt;coste extra por uso de equipo&lt;/span&gt;&lt;/div&gt;" style="text;html=1;align=left;verticalAlign=middle;resizable=0;points=[];autosize=1;strokeColor=none;fillColor=none;" parent="1" vertex="1">
          <mxGeometry x="-865" y="2392.5" width="240" height="70" as="geometry" />
        </mxCell>
        <mxCell id="HlTitbdx7GmA0fprLowr-83" value="Animal: edad" style="text;html=1;align=left;verticalAlign=middle;resizable=0;points=[];autosize=1;strokeColor=none;fillColor=none;" parent="1" vertex="1">
          <mxGeometry x="-870" y="2060" width="90" height="30" as="geometry" />
        </mxCell>
        <mxCell id="HlTitbdx7GmA0fprLowr-84" value="Dueño: fecha de alta&lt;div&gt;Receta: fecha comienzo, fecha fin&lt;/div&gt;&lt;div&gt;Consulta rutinaria: fecha próximo diagnóstico&lt;/div&gt;&lt;div&gt;Sala: fecha inauguración&lt;/div&gt;&lt;div&gt;Empleado: fecha de ingreso&lt;/div&gt;&lt;div&gt;&lt;br&gt;&lt;/div&gt;" style="text;html=1;align=left;verticalAlign=middle;resizable=0;points=[];autosize=1;strokeColor=none;fillColor=none;" parent="1" vertex="1">
          <mxGeometry x="-390" y="1490" width="260" height="100" as="geometry" />
        </mxCell>
        <mxCell id="HlTitbdx7GmA0fprLowr-85" value="&lt;div&gt;Consulta: fecha&lt;/div&gt;&lt;div&gt;Cita: fecha&lt;/div&gt;" style="text;html=1;align=left;verticalAlign=middle;resizable=0;points=[];autosize=1;strokeColor=none;fillColor=none;" parent="1" vertex="1">
          <mxGeometry x="-390" y="1630" width="110" height="40" as="geometry" />
        </mxCell>
        <mxCell id="HlTitbdx7GmA0fprLowr-89" value="Fecha nacimiento" style="verticalLabelPosition=middle;verticalAlign=middle;html=1;shape=hexagon;perimeter=hexagonPerimeter2;arcSize=6;size=0.27;labelPosition=center;align=center;" parent="1" vertex="1">
          <mxGeometry x="-390" y="1670" width="130" height="50" as="geometry" />
        </mxCell>
        <mxCell id="HlTitbdx7GmA0fprLowr-90" value="Fecha formada por día, mes y año. y menor a la fecha actual" style="text;html=1;align=center;verticalAlign=middle;resizable=0;points=[];autosize=1;strokeColor=none;fillColor=none;" parent="1" vertex="1">
          <mxGeometry x="-220" y="1680" width="350" height="30" as="geometry" />
        </mxCell>
        <mxCell id="HlTitbdx7GmA0fprLowr-91" value="Empleado: fecha de nacimiento&lt;div&gt;Dueño: fecha de nacimiento&lt;/div&gt;&lt;div&gt;Animal: fecha de nacimiento&lt;/div&gt;" style="text;html=1;align=left;verticalAlign=middle;resizable=0;points=[];autosize=1;strokeColor=none;fillColor=none;" parent="1" vertex="1">
          <mxGeometry x="-390" y="1720" width="190" height="60" as="geometry" />
        </mxCell>
        <mxCell id="HlTitbdx7GmA0fprLowr-92" value="coste base diario" style="ellipse;whiteSpace=wrap;html=1;align=center;" parent="1" vertex="1">
          <mxGeometry x="-260" y="660" width="100" height="40" as="geometry" />
        </mxCell>
        <mxCell id="HlTitbdx7GmA0fprLowr-95" value="coste esperado" style="ellipse;whiteSpace=wrap;html=1;align=center;dashed=1;" parent="1" vertex="1">
          <mxGeometry x="-240" y="710" width="100" height="40" as="geometry" />
        </mxCell>
        <mxCell id="HlTitbdx7GmA0fprLowr-96" value="coste extra por uso de equipo" style="ellipse;whiteSpace=wrap;html=1;align=center;" parent="1" vertex="1">
          <mxGeometry x="-360" y="675" width="100" height="40" as="geometry" />
        </mxCell>
        <mxCell id="1_MLkYT4IVCnawG4RRNl-3" value="tipo" style="ellipse;shape=doubleEllipse;margin=3;whiteSpace=wrap;html=1;align=center;" parent="1" vertex="1">
          <mxGeometry x="760" y="-230" width="100" height="40" as="geometry" />
        </mxCell>
        <mxCell id="1_MLkYT4IVCnawG4RRNl-4" value="estado ocupación" style="ellipse;whiteSpace=wrap;html=1;align=center;" parent="1" vertex="1">
          <mxGeometry x="-525" y="520" width="100" height="40" as="geometry" />
        </mxCell>
        <mxCell id="8dKxabd2XOVw9RWuB_t7-1" value="Estado ocupacion" style="verticalLabelPosition=middle;verticalAlign=middle;html=1;shape=hexagon;perimeter=hexagonPerimeter2;arcSize=6;size=0.27;labelPosition=center;align=center;" parent="1" vertex="1">
          <mxGeometry x="-1350" y="2275" width="130" height="50" as="geometry" />
        </mxCell>
        <mxCell id="8dKxabd2XOVw9RWuB_t7-2" value="-" style="text;html=1;align=center;verticalAlign=middle;resizable=0;points=[];autosize=1;strokeColor=none;fillColor=none;" parent="1" vertex="1">
          <mxGeometry x="-1085" y="2295" width="30" height="30" as="geometry" />
        </mxCell>
        <mxCell id="8dKxabd2XOVw9RWuB_t7-3" value="&lt;div&gt;Sala: estado ocupacion&lt;/div&gt;" style="text;html=1;align=left;verticalAlign=middle;resizable=0;points=[];autosize=1;strokeColor=none;fillColor=none;" parent="1" vertex="1">
          <mxGeometry x="-1355" y="2325" width="150" height="30" as="geometry" />
        </mxCell>
        <mxCell id="8dKxabd2XOVw9RWuB_t7-13" style="edgeStyle=orthogonalEdgeStyle;rounded=0;orthogonalLoop=1;jettySize=auto;html=1;endArrow=none;endFill=0;jumpStyle=arc;jumpSize=12;" parent="1" source="8dKxabd2XOVw9RWuB_t7-4" target="r0H83FI5AYHTwfuRUeML-21" edge="1">
          <mxGeometry relative="1" as="geometry">
            <Array as="points">
              <mxPoint x="-50" y="1280" />
              <mxPoint x="-50" y="535" />
            </Array>
          </mxGeometry>
        </mxCell>
        <mxCell id="8dKxabd2XOVw9RWuB_t7-4" value="Administrador" style="whiteSpace=wrap;html=1;align=center;" parent="1" vertex="1">
          <mxGeometry x="-490" y="1260" width="100" height="40" as="geometry" />
        </mxCell>
        <mxCell id="8dKxabd2XOVw9RWuB_t7-8" value="" style="edgeStyle=orthogonalEdgeStyle;rounded=0;orthogonalLoop=1;jettySize=auto;html=1;endArrow=none;endFill=0;" parent="1" source="r0H83FI5AYHTwfuRUeML-33" target="8dKxabd2XOVw9RWuB_t7-7" edge="1">
          <mxGeometry relative="1" as="geometry">
            <mxPoint x="-240" y="-140" as="sourcePoint" />
            <mxPoint x="-440" y="1300" as="targetPoint" />
            <Array as="points" />
          </mxGeometry>
        </mxCell>
        <mxCell id="8dKxabd2XOVw9RWuB_t7-9" value="(1,1)" style="edgeLabel;html=1;align=center;verticalAlign=middle;resizable=0;points=[];" parent="8dKxabd2XOVw9RWuB_t7-8" vertex="1" connectable="0">
          <mxGeometry x="-0.9501" y="1" relative="1" as="geometry">
            <mxPoint x="-11" y="-11" as="offset" />
          </mxGeometry>
        </mxCell>
        <mxCell id="8dKxabd2XOVw9RWuB_t7-7" value="es registrada&lt;div&gt;por&lt;/div&gt;" style="rhombus;whiteSpace=wrap;html=1;" parent="1" vertex="1">
          <mxGeometry x="-1520" y="410" width="100" height="60" as="geometry" />
        </mxCell>
        <mxCell id="8dKxabd2XOVw9RWuB_t7-11" value="&lt;font style=&quot;font-size: 22px;&quot;&gt;N:1&lt;/font&gt;" style="text;html=1;align=center;verticalAlign=middle;resizable=0;points=[];autosize=1;strokeColor=none;fillColor=none;" parent="1" vertex="1">
          <mxGeometry x="-1580" y="420" width="60" height="40" as="geometry" />
        </mxCell>
        <mxCell id="8dKxabd2XOVw9RWuB_t7-14" value="&lt;font style=&quot;font-size: 21px;&quot;&gt;1&lt;/font&gt;" style="edgeLabel;html=1;align=center;verticalAlign=middle;resizable=0;points=[];" parent="1" vertex="1" connectable="0">
          <mxGeometry x="-250" y="520" as="geometry">
            <mxPoint x="-179" y="93" as="offset" />
          </mxGeometry>
        </mxCell>
        <mxCell id="8dKxabd2XOVw9RWuB_t7-15" value="&lt;font style=&quot;font-size: 21px;&quot;&gt;N&lt;/font&gt;" style="edgeLabel;html=1;align=center;verticalAlign=middle;resizable=0;points=[];" parent="1" vertex="1" connectable="0">
          <mxGeometry x="-240" y="615" as="geometry">
            <mxPoint x="33" y="-163" as="offset" />
          </mxGeometry>
        </mxCell>
        <mxCell id="8dKxabd2XOVw9RWuB_t7-16" value="&lt;font style=&quot;font-size: 21px;&quot;&gt;1&lt;/font&gt;" style="edgeLabel;html=1;align=center;verticalAlign=middle;resizable=0;points=[];" parent="1" vertex="1" connectable="0">
          <mxGeometry x="140" y="420" as="geometry">
            <mxPoint x="-179" y="93" as="offset" />
          </mxGeometry>
        </mxCell>
        <mxCell id="8dKxabd2XOVw9RWuB_t7-21" value="gravedad" style="ellipse;whiteSpace=wrap;html=1;align=center;" parent="1" vertex="1">
          <mxGeometry x="490" y="735" width="100" height="40" as="geometry" />
        </mxCell>
        <mxCell id="8dKxabd2XOVw9RWuB_t7-22" value="descripcion" style="ellipse;whiteSpace=wrap;html=1;align=center;" parent="1" vertex="1">
          <mxGeometry x="510" y="690" width="100" height="40" as="geometry" />
        </mxCell>
        <mxCell id="8dKxabd2XOVw9RWuB_t7-25" value="Gravedad" style="verticalLabelPosition=middle;verticalAlign=middle;html=1;shape=hexagon;perimeter=hexagonPerimeter2;arcSize=6;size=0.27;labelPosition=center;align=center;" parent="1" vertex="1">
          <mxGeometry x="-1350" y="2355" width="130" height="50" as="geometry" />
        </mxCell>
        <mxCell id="8dKxabd2XOVw9RWuB_t7-26" value="Numero entero de 1 dígito. Digitos 1-10" style="text;html=1;align=center;verticalAlign=middle;resizable=0;points=[];autosize=1;strokeColor=none;fillColor=none;" parent="1" vertex="1">
          <mxGeometry x="-1195" y="2362.5" width="230" height="30" as="geometry" />
        </mxCell>
        <mxCell id="8dKxabd2XOVw9RWuB_t7-27" value="&lt;div&gt;Animal: gravedad&lt;/div&gt;" style="text;html=1;align=left;verticalAlign=middle;resizable=0;points=[];autosize=1;strokeColor=none;fillColor=none;" parent="1" vertex="1">
          <mxGeometry x="-1355" y="2405" width="120" height="30" as="geometry" />
        </mxCell>
        <mxCell id="8dKxabd2XOVw9RWuB_t7-29" value="es derivada de" style="rhombus;whiteSpace=wrap;html=1;" parent="1" vertex="1">
          <mxGeometry x="-80" y="340" width="100" height="60" as="geometry" />
        </mxCell>
        <mxCell id="8dKxabd2XOVw9RWuB_t7-32" value="deriva en" style="text;html=1;align=center;verticalAlign=middle;resizable=0;points=[];autosize=1;strokeColor=none;fillColor=none;" parent="1" vertex="1">
          <mxGeometry x="-135" y="260" width="70" height="30" as="geometry" />
        </mxCell>
        <mxCell id="8dKxabd2XOVw9RWuB_t7-33" value="es derivada de" style="text;html=1;align=center;verticalAlign=middle;resizable=0;points=[];autosize=1;strokeColor=none;fillColor=none;" parent="1" vertex="1">
          <mxGeometry x="-170" y="340" width="100" height="30" as="geometry" />
        </mxCell>
        <mxCell id="8dKxabd2XOVw9RWuB_t7-34" value="(0,n)" style="text;html=1;align=center;verticalAlign=middle;resizable=0;points=[];autosize=1;strokeColor=none;fillColor=none;" parent="1" vertex="1">
          <mxGeometry x="-80" y="260" width="50" height="30" as="geometry" />
        </mxCell>
        <mxCell id="8dKxabd2XOVw9RWuB_t7-35" value="(0,1)" style="text;html=1;align=center;verticalAlign=middle;resizable=0;points=[];autosize=1;strokeColor=none;fillColor=none;" parent="1" vertex="1">
          <mxGeometry x="-90" y="330" width="50" height="30" as="geometry" />
        </mxCell>
        <mxCell id="8dKxabd2XOVw9RWuB_t7-36" value="&lt;font style=&quot;font-size: 22px;&quot;&gt;N:1&lt;/font&gt;" style="text;html=1;align=center;verticalAlign=middle;resizable=0;points=[];autosize=1;strokeColor=none;fillColor=none;" parent="1" vertex="1">
          <mxGeometry x="-20" y="390" width="60" height="40" as="geometry" />
        </mxCell>
        <mxCell id="K-7FDKikJOna-l3j0bXX-1" value="" style="shape=stencil(lVfZctswDPwavWLAAyTxnKb/kZk4tadunHGcHn9fqBqpIhRtJm+yvCBxLBbQkO5ejw8vhyHy6+16+X74dXq8HYf0ZYjx9Hw8XE83exrS/ZDuni7Xw7fr5e35cfr98jAix6cfl5/jCb8nO1WKPFpF/jO9SaTt34uvE/58el7jhYp0eKHGAB8oaIdXKrqPb5lK6vChzDe+a1ALae+QeSRp36A00tBHLMTghsIkfQjZnMz7BhKp9jmVBG/IQiF2BuOdIIZUqZXeoFCLwCBQ7IOugbTsG1gSQ+sNrA6g0EEp90G3QAxiCAvRFgOhCrKkvgxNSQGVyoZ5iQrKEdWeeWo5Ba0QqDm8UTsgfFaPV4h3pAjMxKAEPKdvdUEDNWbKmwAEJIg9JQyP/WF3fqME/eGeQVqpVOjPBo/9SQ5fKMN4i8MLJBx7JVJM6EApbvBAVwKVtvEHnu8azOJNAB/9KDC8gvxESsHnX0DDxE3+G0WID8XjFSnK/O+KnxnwLcztuu4XeH7s6/txQ7a66XhwwSL6a0WBDRM3DR8gQbn6hKKCvdeQihtePD4ChTP/XQPgGcMbBTWNh+d/Dh9JnP8J5l8ounoxFNDm94KGp7aNSNcBzVxEI6P57axWqqiFs58BNVEEFEo8t9SyeTS4n9mqwrk3SCQgqbZcORmSCmVLwhzisp/hwSrq65wDCRDeUv2ot30KKW+VeXNYllITPzDKWvKzxmqPgjamxZ7bZZ7Oe3s793WzCEDIpgxOHBfx2MM7rcPSOCpV9njkj1JSh4/4/I3/GfmvVP35qDVHJXfb2SzGu3h1eNSYq9GyUAhq6XiB+w6a14U9vOf0vG/uJrQ4vOACZHH4CoTl0x+iH+Lt4f9X79PpfJ4+mtf/+69kezV9Yaf7vw==);lineShape=1;strokeColor=default;" vertex="1" parent="1">
          <mxGeometry x="-655.1059333018566" y="587.5800399666741" width="129.52109783963988" height="70.07930947015802" as="geometry" />
        </mxCell>
        <mxCell id="K-7FDKikJOna-l3j0bXX-2" value="" style="shape=stencil(7ZjNdhoxDIWfhq2Obfl3nabvkXNCCqcUcgj9e/vKnZqOZeZOWXSXHQF9GUvWvdZ4ww9vu6fX7caZt8v59Hn7ff982W34w8a5/XG3Pe8v8mnDjxt+eDmdt5/Op6/H5+nv16caWT99OX2r/+HHxFnypkLO/Jy+MMT+9xcfp/DD/jgLD+S5C4/EdjncWoq5i7eeHAOgUOoBxxTcMuAKhdABzJQAwIXYdYB3VPIy4AvZvkTBUgA5hNwWcAUkq7QMxERJVTXBKqVIOXZACmRA0jkQ90/IjlJZBoqjqADJAex0SS3FBhRPGQHDxpUI90EAVVZ5psNPUFUSIBgIlKCBDNRgjSHT90bJcE23iXjfojIV0E01bQUUKNJy3dkZsLKk4DWQQfvVBQxLKhECtgdmhbtNSFGGNf0p3BKQhjXBho3krd6IgJIwZHsvE0l4ILpsmiavopPeADkk01Q/k7UBgBiR7XMQ40A+4GUBymnwPlR77ZOOYk2gSjxsdRTjAP3N1/afAQGoVADlAwJYYK8V6MsauZXhX5/A5FCVcrO6K4D9uFYpasCjKsk+FA04YK8CRD8AqEoilyEHBoA3+iAVIKCT15Abki5gpwVQPiP7wKBKFRg2Djl+XZIqq2/fLCY9tHfEG1cGAHklD/YtirNYoj7eCTgelgRsRgAzAGsCGsuKTWCUKDqCKuA1wCgHkajKQZoPD5Y32ntFolYDSEAChEEPaxIdlrRiAvcB43Ac8VAmJ1Do3TsxPFDkvAn9E5K0I9i4bLVEZfrNoEpyTuv5xzYvXJoE9IQVKP7/WRePZOOsi2aN91n3fdYFQGpj5Kw70L2AKEYvCRtH9m2ynakUHdXyzut6SaQEVSpGpK2pwMFS3tuNGixdG/mXhmPfJx1ksMSnVuy7z2PjcFm/VfPKhcvQGi6SAT5gxfx647ARXlZ4fWGU243NzXCjLx5cO+kXwtUrk6MIxCY60eGo6SS8L790LSjmYF8WXkVJuFfhFvSnpNr3s1kppAsqHM3/8qv+72hSMLoxTdPCQngewoFhWf2aauBtldVKN7CQd15hrobLh7+3pS/7w2G6bJ3/rm9X5avpZpYffwE=);lineShape=1;strokeColor=default;" vertex="1" parent="1">
          <mxGeometry x="-662.4125466592636" y="582.5875332260616" width="163.20450521315024" height="87.31085391269653" as="geometry" />
        </mxCell>
        <mxCell id="K-7FDKikJOna-l3j0bXX-3" value="" style="shape=stencil(lVfbctpADP0av2pW2que0/Q/MhNSmFLIENLL31cutWFlfDJ5M+ZorcvRkXaID2/bp9fNIOHtfDp+3/zaPZ+3Q/wyiOwO281pd7anIT4O8eHleNp8Ox3fD8+X369PI3J8+nH8OZ7w+2KnSrGNVhL+XN5kCuHfi68X/H53uMUXitzhKzWEF+LY4ZmpybpBsw+U3qAS67pBVcp9BJKmmO4bCKXepSgUwRdKptq7FJUqiCFbUqUzSBVmNUfi3FchUeB1AztPamdQApUEDAKpM6jQICYfdE0kIK3SSEJn0AJlkCVhSn2WxtoDA86TA5OBMjGIQUn7EHQO6n4ZSFOPrxQzyBGx86dRAyliCg5vHgJ8oFoXeOB/oLQ4v1SEl+Tx/7t1Be/9b5QArcNE+pt8Zuh/6AlhalPh+ez8twpCfMweL6C+1lK91hl/kHZZj4nHF3A+kyzwiJ9MOXj/Ef95UqkbfIX+tOLzjzqYp2zf9gvkf3P1ahMDV/BFPV6BUJugLPolQ398/+pUwZX6th7PIUBdD3402QfQtAx+bozjGTYki09QwQ3mCG3TGzaAb+DygWAF9XiG57spZgRNgBDzQLlpGIX5aYsGxoL4Obx4Qhie0Zxf8EEg4RarjRpDUMMk32E2UlHHj5LVS2JjOGJs3XM9WQsJ2FRsj2BnMMv82qbiNtIS4ZRJZarRvDwVaJCFcp+lpDBLuVHteZEELoC2MbLbGI3YIEuVPfNsnQqgDrVNjThrEd4lWp5G12wgUCtst8p9WisU6+tsmWOmAHpn3JV6cZnV7D5evXhh7TW8RI8HWmH4lB1e8PklOXwGJb5K/xWvKJ9Wzz5eG2+oXuoZIRTQsA8LdRcodrpYpyO8EIwBN4dHw0bVEyhBsdOFOtr2hPGfu+p+iLeH6736ZbffX67lt//7e7i9utzh4+Nf);lineShape=1;strokeColor=default;" vertex="1" parent="1">
          <mxGeometry x="-936.5803998763436" y="588.5894484793339" width="154.99430874231666" height="55.04070164737686" as="geometry" />
        </mxCell>
        <mxCell id="K-7FDKikJOna-l3j0bXX-4" value="" style="shape=stencil(lZfbbtswDIafxreEzhSvu+49CjRdgmVJkWantx89Q0lE27/ROyfiJ4oUTxri08f+5X03BPdxvZy/734fXq/7IX4ZQjic9rvL4apfQ3we4tPb+bL7djn/PL1Ov99fRsnx68f517jDn4kLFMoIBfd3+sORT///+DqJHw+nB3Gh7DvxSMmti3sm6bevVGVdPjDl2Mn7QhEoiApIB4QMDUiFuNcQIwmvAzlT7E1OgSSvAyWScx2QPcUCAKEaekDI1XWAM3FvdCnkgNHVU0gdwIFyAIB6vT8S68V5EBeOUu/WmlpkLQOx7XcD1GjgVimU+lCSQIyOJMS5BzRYkAaxwSqVXMSAWGBDQzVH2jBa2n4PQAKhocs+WKCCBNITF28BQRrUJ+VTgHo9zY6E3MrkxAIoWjU0uM7cCsqMAqWP1vHiNoBsAZSiClRjNGMNTF4s4DFQzD0UEuSlOtNQtkKD0wzA0RpmRjtUBITKDEg4p8VZoAIN3jlbjdWsCOr9qCJYAPWs0Qi20Rc33DQLV1jJ6kJ8C+rS1V7Egx/WoondTAUGQrRAQVmtsTNzU0BGfBrQRm6OlJqnlwFPyWhwbf5Ybou1zRa3ppVb714GUqsSN+DWKJdbu7RGfmu8CZYBjlT6iyvcJpzlaYNtKSsOtvZxuT9SjuSBhnG5LzQpEYOU02WTQTHDlNNl07R0cPSgDOhQaIqlr22cWK4bxc7F3sPg04wz1wAnMkdiDGjBviJup1wqILCdnd4CJRClrl3nXdyD1NdK0u/uiYErZwVYp2FwtyrORhw70lQ6B0upa9PTXRx7hq14QM8d60gH25+3jylco33LiQdxkIaffNltiuvH/RH5djgepzfo47p9dOpf04M1Pv8D);lineShape=1;strokeColor=default;" vertex="1" parent="1">
          <mxGeometry x="-904.4111956667816" y="586.5864502167342" width="89.00866882410355" height="93.95612189398526" as="geometry" />
        </mxCell>
        <mxCell id="K-7FDKikJOna-l3j0bXX-5" value="" style="shape=stencil(lZfZctpAEEW/Rq9dvcz67Dj/4SrjQIWAC5Pt7zOKSoJpwaX8JsTpmellbrcGe/rYvrxvBuWP8+n4ffN793reDvZlUN0dtpvT7tyeBnse7OnteNp8Ox1/Hl6n3+8vIzk+/Tj+Glf4M9nVSsFGK+W/0xsjjv9ffJ34/e5wzUfKseMj1XqfL5Usd7wIcQAGTDX0BpmK3DfIbb3aGWgiBUdKzaD0LkeKYIeo3ocQYJDa31X7IAnVdN/Aij9SbHFjYCAU+7SlRBn40NLk8pyNarlvIO0AfVjHzIAdxKj0lVEySQalRKEPUlVi4HOct1/4ljYQVKHce9xqPYOsCQX2fIU8r9ZHV4EpFc8XcH72Vdf4COLJJMHzAtdnF/9CCfPieTF4Hrd+pqTQ3+B5wfF0fKIC+Vo9n4ESCVlc8bAeMnu+wvVr8f4quJE636YrPoP4K2ny+VJwnsab5zOoN/Wa1epN4X0sq/uSYDyjeL4CfRCSPl/CDAWFKdfVBrBAQ1o5ABLGpCsHDCgoz03lKgEFXjBmz6Om0fh1AeHzR88bjI/rSeMFgIL1OT7M5bjwRgr8beXeC1AbRhIQCNFZnxaDABVFii+5XGBJNxekL6E2vSBNMZ5HmaXPh7lt3jZoGugmiQdBNcq906FFCbVh8ToRBOp6G2Wc0JnNreT2RMe+s+pyyNsG1c9bEmHrK8X3muXF7VEl+N5tUErHi9h7sGjBPT4WxzM4/ygM0fMgZ+MkoJ5H519N7QzjWZeSufAGlGWcxKrjExoV1wmGFXSZxC68oYvMKy0VKI3jBn0B6aMAFXV8BBV9aY0XvmD+c59xD/n2cPlmfNvt99Mn5/X//huzvZq+T+35Hw==);lineShape=1;strokeColor=default;" vertex="1" parent="1">
          <mxGeometry x="-1164.2332233675415" y="591.5855104945076" width="125.64234738663936" height="86.77625539670134" as="geometry" />
        </mxCell>
        <mxCell id="K-7FDKikJOna-l3j0bXX-6" value="" style="shape=stencil(lVfJbttADP0aXwnOcNZzmv5HgDi1UdcOHHf7+1I1JJuU9IzctPANd/LNRp4+di/v203kj8v59H37e/962W3kyybG/XG3Pe8v+rSR5408vZ3O22/n08/j6/X9/WWQHJ5+nH4NJ/y54gK1NIAi/71+YAr1/4evV/HD/ngnXqiwERfqvC4ehLgZ+cDEsg4Y7AkW0KikdYBEitai2KgBDUkoWI9FAX0dkGU0YASkSq2AGEVKxQByJgZBrexNKkw1AkChHC0gUQdRaoF6toBGAhLXNNHVANTImtcBnUms0zWSgLB2zYNNXBXodFenbS1pGDrIQ2+UrQ9NxjAsAzp1q6HnUecqwGpQI1HxKaDaKKmRHCBAZoCOwtp8A+kRBfnQKPgW1R4FtdErZfEqOs5cnwESKFcFJPFeF6zBFdNgJNKQFzInWAPbDtIjGMVVz3M+PKi+QrV7AKP6riTOB508ONUcPABNgSHq2QMyLtc4czpggJszPcEFMZRa8nlAG+uumu9SnbBNzXldqWCbsourBg41aZ8lQhsCd3ViD0ADXy2uaQZAGiqF6AFo8c7H8TCZUJS0R7sPKxwbebT4LnH1QVN/FsB2urapa5cBybecbtaKAEpP3Fps45JZXry6IdxarOOAXtvUbjBVbQgwZ9TiaDOtmxplWs9ztVS0zRFJ1N+2NEqGG6UEz2dyh4MpRz+Y9AuD8k7T74nETfxjmVcGz1xFpzGoViXOxQJihLwyhJG9TIs3QcaUPQ9tY9QWxdkze0wRmXJx4gVUEY/b8iYeQR/MGK5yPTCCp0vCTTzA092Ex1tKxa0xAV5iphvRTRwxBY2MLU1NBBR3NyqmhLPanXgAWdVeD04cNWLwzI4hO/3k5fGhuD7c7qlv+8Phes29/+/vtfrpeieW538=);lineShape=1;strokeColor=default;" vertex="1" parent="1">
          <mxGeometry x="-1145.4148560491658" y="608.5923739504287" width="105.30974369890191" height="55.03874783307174" as="geometry" />
        </mxCell>
        <mxCell id="K-7FDKikJOna-l3j0bXX-7" value="" style="shape=stencil(rVfZbhsxDPwavxIUdT+n6X8EiFMbdePAca+/L7cLuStqd4wAfdtjRqJ4DKmdf3g/PL3td8Lv18v56/7n8fl62PlPO5Hj62F/OV71aecfd/7h5XzZf7mcv78+z+9vTxNyevp2/jGt8Gvm1UrJTyzh3/MXoeT+fvg840/H1yVeSFyHd45i3CaURLHfwBVyvE3IhUK/g2RyHhCYnHQEHymCHZI0AxoheBLZJkRPpXSEyJTKNiFEKrUnZMrAJF+a1xshBRJEcBR6k9QNKWwTJFDJPSE1I1cJGqbc71CEKjDJ+WbxjVBgHPRv76SqK2TgVaoGn6iC1BMKBl/bjht4LhZfgD2OUp93jpkYeYhcsBvUtI3XiA4HyBDvvcUHkNdqrVm/UAUHvp1ugQ/QHk49PsOAcQv/Ah9AwNgWjeIdOK8jNv6/UwIUZcDD9VcSFIipWKWb7Af+FMrB4pH2ar2afCjEwH5p0V/gI1BeoWLiW4khPrHFB5Bv2muGfC6wvvJQwBXItCMZ6qvCfCujPUBzmcJQ7xHi3eBP1Pm0vkz+FNgDuEV/gUf1ovYY/+Q2LWydd8DLf8R7crHHh5aB642esslnjTjA6yhjClKnFyRwLtsIFIYZMR2hT4kcKKOeVNvv22BQoCb6ZItexx1UlCHYiS7Gpnvr05DYNA0qE0DmkvalfofgWudZJxTbCLyngGZGDZOZYiMcMkuw45NLxECKKrfft1yCpTx1rr7WGDp1qqxq8GgWmpScDR65VPE+WDxwkOLzsD7CV9tb79hTyaePnHe4p9zxZ7VafRPvLXzt7XFN/NYrn4dhSKcFIBVrG1SUQMMBhDwOwMcucnfx+vDv1vhyPJ3mS+fyv71l6qf5huof/wA=);lineShape=1;strokeColor=default;" vertex="1" parent="1">
          <mxGeometry x="-757.595498522413" y="1085.594765368051" width="96.01057995683277" height="89.66674456956525" as="geometry" />
        </mxCell>
        <mxCell id="K-7FDKikJOna-l3j0bXX-8" value="" style="shape=stencil(lVjZctswDPwav2JIggf4nKb/kZk4tadunHHS6+8LjkrbBK1N8ibLuxSOxSFt+O519/Cy3QT3+nY6ft/+3j++7Tb8ZRPC/nm3Pe3f9GrD9xu+ezqett9Ox5/Pj8vvl4eGbFc/jr/aCX8WnqOYGym4v8sNprzc+LrAD/vnK3ggLwPcU/Xr8EjRD3BHSdbhhZwYuHPrcO8oB4NnBvhIORnrOQG8kLgBH6iC8zV2JpiJQgV4IR7xQimu41lzM9rjAxUQIK6UjMNCDqQ3JvsE9Qm5nDzJmGF2VAIgFMqGcL5zk5ADyehDjBSAD1mdLmMWInlAKJnCaFI+6/YmQdSkUXdFlVUAoVIcCRJhmVWmMlZCdV2LtwlaOnUkRBKgvVopG0LpgV4jyCjWKuSBWpVQiyVEYJJ353K/YgiIa3tEHAmVwjtOeEtAHamFaSIIKAj929T0JQ5rBO8mAsqc2IJoJmFCnqKE5NryJJbASK5KmBL3jg8zISN9zyYJBaS+2ekCO1kLa7aEArpAS5y3BNTJWhDLRMAVZMVXel/4qLy132O11mQJDKRxu0bL59qABg7bZBNRe/JXwzTJtSC56nlTBVXsgx+b5VUc1tT0X2wffYT0SX7tBGplnyZkcsbrTAUlIvQucSYEuJ+IluRIkEyMCN4uZDqL0QZXErmxqrN6BfSaxU7elOBIyd7ufDH3Bn17ocmURm20rQu0gaSTfPSBQ5/Ft5eyaDMdMhQfiy0IXYw9eIIaYPqGrspw0y3TJu3gDGqb8+hDgfuMn1bjBOeD2stmS6SAXx3SWJ9MDOwvtnUz3OwT+WTgaN07H3YxPqH3EkpjLHOfRCtwc3qG+7PvbwgXOCpJZ3dhhQcET5MxEM4W7kBkXD/sohqkMmeX5gQrV+H2dA9ayTQpYw/VGjwaOJp6rg/RCxy95DjbmpkEnj5/FoBxf+crgl5cvkA87Q+H5QPG9f/2i4XeWr528P0/);lineShape=1;strokeColor=default;" vertex="1" parent="1">
          <mxGeometry x="-761.5184559028953" y="1088.8939954034868" width="155.2564321938794" height="104.54278210699795" as="geometry" />
        </mxCell>
        <mxCell id="K-7FDKikJOna-l3j0bXX-9" value="" style="shape=stencil(lVjZbttADPwavxLc5Z7PafofAeLURt04cNzr70vVkGNypTHypigzax7DY7WRh/fd09t2E/n9fDp+3/7eP593G/myiXH/utue9md92sjjRh5ejqftt9Px5+vz5e+3pwk5Pf04/ppO+HPh9UqhTKzIfy9vQqCQ/7/5eiEc9q+3hEJNDEFfVICPVKLBd5K0jm+NarMGCeUACImkWkKjVNYJtVO0LsdEoQFCIg6GIEyR1wmlUbE+SKHQAUHm82ZCiiTAh1ypWB+SOg2ilJlyN4ScKcd1ghqQrNNqZAKJFvGJroEyCGvMxDZKmpkAfNC8so1SyyQgDyFStNLoTAEQKjVrURdqQKyJUrL4Qh3kOVBztdCpCsKn7PEd5CAQj3iQAqZSB3vA+UwynI9kqtF2/mp1g/iwT7DiAxCp4t35lRKIJ/tmp/mqMD6uBhQfgR6YqotPhs1RW23y+IoqgPKIh+d39vYzyFecu9QNPoN4apPqPv4B4lPx+Abyq/hBD2gWaL0P9YX0o/ERjy84/s3jO8QHN8v4KvE1AXX/Aw0WmG9AHQaIvUEaUNSw1FrxeAHbwVjA10G1Zs8gUNywJHp8gvEszv4MG+hn8ToSnT26rKDNYBAcw11FlzGxhKYdC4286jPWriJfLhldbqzkqvYUUDOiC53Nma47aBtKgw8FT+HU50XjuqvEuVEuLzfFl0HKsM+VofBF6wARql8yNQwoD3VYezX3BRGq3w0msQPptUjN5iGkWY3LBJWGm/Zz6pc3d6ZmlZHg8OvJT1c9AN0kqt//cG+cerlNGt6Rp9ZpVVFmIS6XDg/dK2g/QB70uXneXJ7iHQJ7QgM2TfuY9SHcdTqzJzQcVTcz9b6FZrhOACcLJaC4TjM7DwQkPO0nYSAgH+qCSQzGyDSVgo8SWsSV4Dadj7vFGiFasWqm7/zCJy/i9wn68HHvf9kfDpfPBrf/998J9NXlG4M8/gM=);lineShape=1;strokeColor=default;" vertex="1" parent="1">
          <mxGeometry x="-780.0968562068674" y="767.7040718752173" width="116.75611356662466" height="66.94408140463702" as="geometry" />
        </mxCell>
        <mxCell id="K-7FDKikJOna-l3j0bXX-10" value="" style="shape=stencil(rVjZbttADPwavxLce/mcpv8RIE5jNI0Dx+nx96Xq7trLlScN0DfZ4kg8h7PahJvXx7uX7cbz6/Gw/7r9sbs/Pm7Cp433u+fH7WF31KtNuN2Em4f9YfvlsH97vj/9frlbLJerb/vvyxN+nnBMJS4gz7/aH8H9+ePzyfxp93xh7ilVY8583TyRd8a8APNKKQ3mnqK/bu709mgfqUZgnynkwb5QziBYpjw+3zFJAQCNd0yPU49ABIEphREgLaZ1wBSCxiwghugpywAIjhJwKVbbEaGSq6DGiYIfq5BI5Doge3I8AFJseVsH1NYGDaCP8CCGojkZYygM01q1DqNLpbRErwOSHYQaKIKgq7QydUClHK4DJFAZW0O0lKD5JJOMwyaJKphlEcpjDFLJI5eEarKAiAEmaAUgAnDc+aQjhBgH8XciLwAB9MYSxATIwCe9XZwFoKHW22kCoBnV236c0Ys8XEPwFIQA6tO8z1EX0K9LobwFJBREb+cLAJrqBWDSVCG7LoBiAYi/lxjEAiJKa13pV4+7z00uOVy4yBbAqA6ykiVEx+e6XgAQlS2dE6a0vjNy0xvkYwCB/L0ApglK+A1lbm9A+MvzqgUIdsks3n+YURenV+D+toXohPufANluXtE1h1zyE21EcnjNsZkghgNRYxvhvhcjZLKilRtdKhUymYoBs1KKa1Gty43SNnmXG6EJwXWAaxPZBU1qy3tdMkXLAlHfiVRcoTpmKQhcpNE1JdwBAfJMSI3du7DMlADA9wHrAE0DCFqFqtW6uen9dTEwEZMK/gIK55LtJe0VdB5wTR/1QsPzQ7WNFFsrrtfAqqXQlvaVo5VZuHq6AZTHVKsxR8lkewzwMDWTHvawP/XQGIx5AK3AjUPO5g46w+ZUBalazb0xRyphUpyOAuh7NTdNSQ464+wJGHEPt714NkfMw429z+YRaAO252uGyuCD3wbeNdeL82eIh93T0+krxuV9+9lC/zp98gi3vwE=);lineShape=1;strokeColor=default;" vertex="1" parent="1">
          <mxGeometry x="-761.463972559076" y="773.1404991322165" width="179.98894635325996" height="130.25365651917582" as="geometry" />
        </mxCell>
        <mxCell id="K-7FDKikJOna-l3j0bXX-11" value="" style="shape=stencil(rVfZbttADPwavRLce/mcpv8RIE4t1LUDx73+vlTVVbWUNUGBvsnyUMtjSM4O4eHt+PR6GDy/3a6Xz4fv4/PtOIQPg/fj+Xi4jjd9GsLjEB5eLtfDp+vl6/l5/v36NCGnpy+Xb9MXfsx2IhRksvL8c36TqKTfLz7O+NN4XuMjVe7wzlON+wZVqPjOwDtiBww8+d6j4KiAE0okzp1B1E+AE3IiV/uY1cDvG6RMsXcpM8xSFMqxN8gkFRgEir1B8ZRA0KFQcL1BoQRc0iSmPugp0XnfQIkgpTfIlAow0Jz0Lgm3ytw1cJrW0Bt4KuAEpZqJQRIxYiuFnhmSqQKPMmUTQaUIiOHJ9bxwrCEziKAVdTlASABVmWSD/9OvO/iYbQAJ+MPkTAWUV4B2S3SrhDJIkOJNwSJl6L8tmDYG6BumagqmFAH5dHbaiSMB+fHEweILxOey+T5qY/Jx4z/IT6BcbX4SyE/Y8Ce2jN2fQ200r+rr0FRp7bTiTwQNFlp1VvzMIJ9h449QBP54ihu8BMSHkjd4kH+36RdpI2OHn5ltvGhbcttDq3yiRcOt+1b1imCC8obPqUW050+yfEMDVOM1eN/0wl4+xeLhyqBq4nVNXvwXvIof4w9D/2vr1mVHqtwB/eicPaBWuFRdskpCt3BFEQtVs7Zj+8Tenjc9Vh15wInAlPqmKSpuUNNnCn0XqLjxwCXVb8HIp9JE4X0DTWLP6/xOnZMVmfomgaBzaH27iMxCDpww6be+DirZkCqtbCutcqQCatTSpMOiPjJMq/aW9EEXqiCrOntS3z0MmaR4k6NlfNzHV/Js8AxqINWmFIstxYv1By0zneW+GjwSH4rf+COgYIo3ze/g8p52kWEE7IKV+Fw4h+WxWImvLEcFELvuYxsFe/jc4xO8Z/3zZfRdvD78vfm+jKfTfHFe/29vyvpqvmWHx18=);lineShape=1;strokeColor=default;" vertex="1" parent="1">
          <mxGeometry x="-734.0401919469582" y="899.5889992764946" width="91.45386041921665" height="44.11609952978097" as="geometry" />
        </mxCell>
        <mxCell id="K-7FDKikJOna-l3j0bXX-12" value="" style="shape=stencil(rZfbbtswDIafxrcEdaauu+49CjRdgmVNkaY7vP3oeXIsOv6DAbtzHH4mRf2kqCE8vO+f3naD5/fL+fR19+PwfNkP4dPg/eF1vzsfLvo0hMchPLyczrsv59PH6/P0++1ptByfvp2+j1/4OXGeghshz7+mF0yR/7z4PJkfD68L80KxduaZXNo2d4F87uydp+K3AXXvSgfom5IBUKhwD1S4gpAo9UCQloObQAzk+hTFTDlsA4kppw5IkQrwkApJD2RPPm4DObaczEAlBvtQHOV+34qmQQAgVPqQxLWtvwmICqH3IIUc8FBDi7gB1RMDD7WS9z2QyYO0KvB3iQsgAS0pILEHCjEGqlgg3wH6LFUsvjGkbIEKCkiBbLKk9QC0NKZVLCAoJCEpFqho44RiXgEFArwCCpC3Zr1ECwS06ELJ2bQK6BoKRG8BKG8FjLzVJw7Jblymihdd2QIRhSTkiwUcUqtQXhUQajOada4rD1h8cRVSBL11FEK2gKBF15bExT5EsGjHTGzyKvcaU11pAx1y4yKM+uYi3EwTW6AguepGrDxAMQmlfucWedgiTMO/ts//BDiqZq9TE+TtMygRhx7Q4QGoqRQ7C0hsHf02wBR6D3pQVqCmHFofmgEPx5OUKfQ1lxPsG7G2CpunDYEbF509FvUTFTT8EKy+x0+A/j0OhWbE8m3+uF1z0pY4D3GRGHhwzjZLpz5ByaXVyU4ZfF8nODPywb6nquh7TIA65dZ1r+YeqFTr0CQHinrVvnyruy3zPnYHJxhup97VHF0A2KqZ4SS8mpyVh8HUYsyRCNz6roMKZU7EwhzE7m3eGWbmHy9ed8314XrHezkcj9MVcfm/vRPqq+k+GR5/Aw==);lineShape=1;strokeColor=default;" vertex="1" parent="1">
          <mxGeometry x="-740.4149026158675" y="907.5926559920758" width="96.73320634039283" height="63.218832828691575" as="geometry" />
        </mxCell>
        <mxCell id="K-7FDKikJOna-l3j0bXX-13" value="" style="shape=stencil(lVfLbhsxDPwaXwlJ1IM6p+l/BIhTG3XjwHH6+Ptyu5Bjcr1T+GbvDiWRnBlxN/zwvnt6225SeD+fjt+3v/bP592Gv2xS2r/utqf9WX9t+HHDDy/H0/bb6fjx+jz/f3uakNOvH8ef0wq/57guVNsUlcKf+Umikv49+DrjD/vXK3wMgUIwAULS1gN0g9YNPhaSCgIKhWJPxBTADtKpRBPAgXIAAUxcbUCjDHZoharNIRfKcT2gNirZBBSmBpIunbptQ43UMghIlJIN6FTLekDOJDagVWqyHsBCwQZIgp3WqndbJRFKYIdUKNoqdSUfyCEFYksNJQtKWrtkG31F39s5kLgNtDFADmlxoE4ZpBwXGas8wPqasO1Bb9QY4Z04e6UK8g2Ugi9oBjzVFjt8pgzrE9jimUpH9c/N45H2y3h7xaAO8tVqVL9+RFZBQTy+IvOi2Hx9CjCKTsK+/gWu3915VMTg/OoJ1hqVPwL6pWx0fFZ3B+s3b73K/wL4WbxFTPoCNpeJZYEH/EmLenbYr0gleDzyh+B9vV8YsqZHV886OriGd/wpI6MVvO9vhtdGXODV8QBe1bTQSwJ8zqP713oEfLsXH+OQ6yUgjpvzdkAnth2bLiVQUaUo2xYItjjWO8AeqXU4QrGahCVFYyiyXMc4c7nrKwnogg4bYmVWZDy5bYuRkptXAuRRFW9EOcG7XocNdzNxhgESh7FdxsAGryZRb7d3paqjgeFAujejmKHYlGpe/diswxhOLjlD6k14u34aG67hxVI14lE8+mlC2w4K9CmtgQ9w+FDtNo9nhNe7VBw+AJaqt7n64GFuGg6jxwPKqTeXdM/523h9VR8gfMU70UTMB6HMDi+oX3d+y/0frz8+Pxxf9ofD/N15/d5/aOqj+SOVH/8C);lineShape=1;strokeColor=default;" vertex="1" parent="1">
          <mxGeometry x="-404.6668172802515" y="953.4339201627699" width="38.73626938466168" height="54.42158754582442" as="geometry" />
        </mxCell>
        <mxCell id="K-7FDKikJOna-l3j0bXX-14" value="" style="shape=stencil(lVfLctswDPwaXTEkwRfOafofmYlTa+raGcdpm78PVA1dEbLWk5seWJIAFgtw4Ie3/dPrbgju7XI+/dz9GZ8v+4G/DSGMx/3uPF70aeDHgR9eTufdj/Pp/fg8v78+TZbT06/T72mFvzPOUwkTKLiP+YOjKP8+fJ/ND+NxYR4ppc48UeJt80KldOY+kIvb9vqbfQ8Qqh4ACgl3gFApgBNNHuQOwIVC2gZwIC8dIGZK4EgsFPodUiQBTsdCuc9BZspgh5RJagcomkbgQ84UYw+oLe+385ap9oAaqeZtQE0kfaarEAMiCZPrwyqBQgEAId9TTyJFcCQFxBWggLAqoPTkkwS5pABxFiD4SGKc1kCDPNwAFJg4BdSeGlIp4bBmA1D+VhzWYAHlTuJMTTtHzgFEpersFqiCJh9XgITYVxvXFmESDDBOTEsgMtUmdIvMMcqcAkwitGoR+/QAJhGpCckWwKiAFoSgzKlIsAUkzG/rdMQ+qEisajQjaihd2Trt8A5GyRRQ8A5GyTQPCYR1weZFquOdqjZOVGJ8ptK3lCnSuOaSt4CMKkhWZBIsZXWlfXKvgr4ICK3zL8JaQZS0B1luxLbnVpezBeEaH2/3UZX3nq7aFj2Iknbq2DtdCnk0C+QmdNdZoELp49rmtSvAQWFib4+UPByxAtsOEQMc+nxuzLmOWNz0+TbAW/LpWOlQHlpBXjtKwT6vpkpPDqTN2fUTHH6cXT4Rg+J0dpCJcHhzVlMjHKFXYsQUQJWpuQk9FDu36uVU4OpmFPbN9w1zM7E52ND0rxjzACMjdnXUOXyj1MIckZhiNeZIGb5477prrg//r3gv4+Ew3xCX/+2VUD/N10l+/AQ=);lineShape=1;strokeColor=default;" vertex="1" parent="1">
          <mxGeometry x="-422.43125318601415" y="961.5731813562493" width="127.93893636835173" height="44.94840532592343" as="geometry" />
        </mxCell>
        <mxCell id="K-7FDKikJOna-l3j0bXX-15" value="" style="shape=stencil(lVfbctpADP0av2q02ot2n9P0PzITUphSyBB6+/vKZWxYGR8mb8acI+t2tNohPn1sX943g/DH+XT8vvm9ez1vh/hlENkdtpvT7mxPQ3we4tPb8bT5djr+PLxefr+/jMjx6cfx12jhz4XXGnEcWcJ/L28SZf3/4usFv98dbvGFQu7whYoAvJD2+MAU2zqhVhLuCZlSAgSZHJgIEijGdYIW4tYTKiVAKI1q6QgxUcuAECn3MaRABRCyueQI9k2Q1lSp9ISslBGBqaS+bpkKKHS0wvVBq0VV1gliZerTWpkkrBNCpVh7QoExBCHWjtACaQV1oNT3nnVvBK1k9vscmTqQ/eCLYPgG8U47Ix7UgEll4Q/w35RVPD6CCjCF0OPrA/uuSw3P0H83W5pC7c/9clMvBS3HlBd4ATJjag6fqTGql89nJgXxBqoL+xVJhkS8/wHic/L4AvvZzV7LP8qPLPxXamAwmn1X33ksrfnv7Ldp2K/gg3p8AfkJi3hNXyA/Vl931PDc4isNVBcCq1AwaRFAgoIJ1ScUBWDeisdH6D8vClzwgFg0XIOCTOzxCfqj6vE4/5/D50lOM16wgNl30LiOoCPJ8uEOvQg9svXKnWG2jigoQQwkfQ10rsp9QvPrTRGo+qS+K3KaTNzPaqLYZylZmUGWSlgsUBUOumJ/9zFYGiI4WdVccktgmobZ/a2R/awLtkCBLNlu4oZ1CHAfauynY5nUfR+fSPuYLWvAIZNu7cXG2H7103SeHmv4nD0edPY4qsT7g+zb7Pf+RHTzaFO6r3gFh9O4K/l8BtDV17PiilckfV6sQ6azBx9Qh0fbwfVsmUUAh+l4OHp8xf649SaRoAb67FXxId4ervfSt91+f7nW3v7v77H26nIHjs//AA==);lineShape=1;strokeColor=default;" vertex="1" parent="1">
          <mxGeometry x="-283.28732525926534" y="937.5341676040834" width="92.75749421833643" height="61.74934473907069" as="geometry" />
        </mxCell>
        <mxCell id="K-7FDKikJOna-l3j0bXX-16" value="" style="shape=stencil(lVfJchpBDP0arqreWzo7zn+4yjhQIeDCZPv7aEINIPXwKN9m0Wvt0utVfvrYvLyvVyl8nI6H7+vf29fTZpW/rFLa7jfr4/akT6v8vMpPb4fj+tvx8HP/en5/f5kkp6cfh1/TCX/OuEi9TaAU/p4/BAry/8PXs/huu78RLyTRiEcq8b640PTrRrxQAuKxEBcjz9TCfXnVnsWaowoaADCFbgDqbwL+5joAGjEwqUSSagA5Uy4AwNTZxijMOhcBVU2yGkqbw7wIaIHE5riqkQwAnWK2AIYaeqZgy6IVyhkAmMRq6BFq4ELVRkmPSCCsLFRslKYjgEmS51KbAaJ5ABqk+V6QAk0SoWbzIB2bJMTiAYL6J6jJzgmmDIpJVQh7AGMnXIvqlwSKSX9X8YCGNaTmAQx6dLLY+nATh3uIMtgkYG4oIA5edwToxNUDCvK6D8UhFFBx9CGuTBWlWjVUD4goSuqDbdLpCJRqPS96QK44D0NHRAzwYe1wX03FNPgQH5Rr94ACJtNUnMkDOtYg3ecBbsXFroaJUBUOIHMB3x1NQ0M8GE2ZPYBxmNyKuI6ee6luaQDgMZCGloOjrPslNDmNm/qTgErJpbpRRFGKg4Y4D7flNae1ZhPHjQpoak6en3CALde1hW2P6rZPQINu8mp9aA12UKvUbJSUsSD2UMVrqGVmLMuAYbcr68ogrEWddsQ1wd2unK1aDcoc0TRWVtisD0qWEe1T3tnsCkppPmJ5bAxzJra5y5cBmYrboxHOSvZjqUPClEmsA0rIQOEFP+ozPD34uZ2IQTgvFXYVb6BGLz1yFc+gBy7M8XpNEuiqC2SEtbNwegR5HWwPcCwGX/oaWRiZ6i+QCdru6CO+b0bPuzCxi55PPBL/1OX3obg+XO/Zb9vd7nxNv/3v7+X66Xynz8//AA==);lineShape=1;strokeColor=default;" vertex="1" parent="1">
          <mxGeometry x="-284.442409720019" y="929.5674759263284" width="110.55460097120249" height="91.48845041705817" as="geometry" />
        </mxCell>
        <mxCell id="K-7FDKikJOna-l3j0bXX-17" value="" style="shape=stencil(lVfZctswDPwavWJAgudzmv5HZuLUnrp2xnF6/H2hqrRFyNrEbzK9S4LA4uAgD2/bp9fN4PntfDp+3/zaPZ+3g3wZvN8dtpvT7qxfgzwO8vByPG2+nY7vh+fp9+vTiBy/fhx/jjv8nni1kk8jy/OfaUUo138LXyf8fneY4xNx6PCJYgF4R8l3eMdU4zqhRCquJ2TywKJcqPYW+UAFmJQdcW+SSDPyJiF5Sv0JQVfAHaKQcEeISnDrhKBO7wl6Zs7rBAktSo2QPTngJQ2TSEcoDrrVVXL9pUttob9NEPI9oUZiAZG2Thq1COLmyInFIyUxpWLxCfiUSdzCHiALJjb7l6aTNby5b6YKIrDcP5PA+0ova81VpKGlf1LbYc3/weKhIGzWqB4qsMcv4pvIgaTxFKPFB+Af36rCDI/0I8TJ+j8miO9TUvWA9OPb6TN8gfb/V+9Mn4ER3i/wqLQ7Kr0+HV8ku0KQ+whMxd9jEVNY4AXirULVozgjncV7oDi2ve8DRXCL/ycVx3cqWjvpQtEoYxwFowicka79++mMvw+fWnRmeI/scc3dF4KKHCk0N71cmhg+QUeH2LtUx4sIXKqjA/cxS6pR0MWCs2kfaxtgbg8TeuleRaHCup4WaSZKACapxa43SZgy6Nw52wlqDD1q9WIj7QJ5RKi22GVKINNqsMVOqz3YXxM39anPrZit4U3UuFX72/himzGujIo3AyA3F9/GV9uctPYBTVwL5xUf8P7J7p+R/yuVHu/gODqObtngUXxnneUaYAdKY62LVwEczuolRa7vIBjgamu1UMD4+95ZH+L14/qoe9nt99ObcP6/fQTq0vSAlMe/);lineShape=1;strokeColor=default;" vertex="1" parent="1">
          <mxGeometry x="-414.6827287239248" y="780.5592465675486" width="92.1253192345871" height="70.33776478299797" as="geometry" />
        </mxCell>
        <mxCell id="K-7FDKikJOna-l3j0bXX-18" value="" style="shape=stencil(lVfZctswDPwavWJAgudzmv5HZuLUnrp2xnGvvy9UDWUTktaTN1nCmsDiWg7y9LF/ed8Nnj+ul/P33e/D63U/yJfB+8Npv7scrvo0yPMgT2/ny+7b5fzz9Dr9fn8ZLcenH+df4z/8mXCevBtBnv9OL5h8+P/i62R+PJzuzCMl35l7Srxt7phS6uwzxQjsE+Xe3gXyeRvghXzpHXIUwAm+Uok9oFBy2wBJFPqQJbYzVwFBiHtAcJRBDJEp9kGHSg6wGjOV3AFiIq7bgBSocAdInjIIOjvyPUupUE0AkKjUPtGBBBRS8SQ9S7mSgMSVTNxnugiktbpWOTMgUwInVGWpd0n/gkEMVT2WHhBheSsg93moiZyHgCoWUIBLjpnYHKFRCzzCZK4WCqA2FGBmQMXlqp/9AgBdKpTFAioGeF4AQEOMnBQLyBjgFy6hctU8Vba0ZpTq1D7fJa6i+l4DOAwoJuiEM50XtEbcckprsABBJxRy0QIYDFcF2MTFRx3kFoCAqzVWC6i4H5a0RlBL6z0qYLqO1WxoUuIwwHZQaW2+Ocr6YalvAk6ErW/lAblU7Al3PGxVk1nVN6q3AMsgIiqOTwOEnCnw0Jhe31rVbl7dKQ4BVGEttpZDe5Gp9mNAV2sGKyLHJpDmzZvbWlpXD4sY8ry81wHSRuOsHhIWNAuNFbX6QLmqQDJiIHqKoElVgkUjymIbbuuyL7RqnmUfnt9+sYPEQ/WgQjUa6Rqoot2uo7HX6i7DftAW7Q9wqo3B+A52GGfYn9yUyEwpVHyqcsWYM2gEtsJeoGbgVmA3cwedMVR6eAlYDGxNLZh1bKvTwanCVmy7B8yEfkHxA9+zNUfXl3k83czRQtbI2JqjC6HtKoZEfvJ2+tBcH24X4bfD8Tjdo++/24uzvpou3fL8Dw==);lineShape=1;strokeColor=default;" vertex="1" parent="1">
          <mxGeometry x="-409.43720399667654" y="771.5556829161601" width="94.210802426805" height="63.054862702951596" as="geometry" />
        </mxCell>
        <mxCell id="K-7FDKikJOna-l3j0bXX-19" value="" style="shape=stencil(lVfLbhsxDPwaXwmK1POcpv8RIE5t1LUDx339fbldaGNJuxPktpY5kkgOydFOH94OT6/7nfDb7Xr5vv99fL4ddvplJ3I8H/bX482+dvq404eXy3X/7Xr5eX6ef78+TZbT14/Lr2mHPzOuFMo6oYT/zitKRf4vfJ3tT8fzvb0nCY29C8RhG5AzxdgAJMATslBI7Y0ilbgNSIGSNAAfKfI2IGZKrgEEX89cBwhpG6TIlIEPIZJwC4jk/TbAFwotIDkqwAevlEsLiJQBQBNpG1YLtANOK5Nvr5QTSd4GiO8TVxyFsg1wQr7lUskwrI5rXheAxQ1QI5OW3r4AssZK5Xt7sL/2xTPdB4TIcpoGh8F9zF/f2ifKgEZM3BK7WCWAHDO5tnJKIA/8ZSq5tfe1MtYpQb6z10qqdVYP9kIJFSal2NsHsH8hHvaP4P7OkbjeAYcAQmUAIAY5TzykgNEJFqMhx4IBPJDIf+BDF9VMweEodbQupIDWhdxQZhkEKfZl5tiYDnkUfH9AAnUjK/YONaKhznJt+Ft1NqSAYV1y1+cCDJD1ie4+niLqvHUC37E04r71OXut0+5udigIkCt9p8tWaGjYxGFg5to81lu1krQnJFsBMVJr5S1LTTd4UAamOrpxFrXO3HWVoLXSFx2SIS1Cqd18AQjsp3G4kveQSMn6bScHQw3DOiBXTbDIO6yl3vO6FDPmkjEntz4IlFImOLVtX67qw3X70ms1V6fEevPiyuRqz1CDmAjqipNhr7DS6kTIMtW3FHnQ3h7tH/ohzrDSSlrxF4wPa4Ve+niCfFmr7aaHg5plmhVtPKWqvA3ROHRToyBK2GefRB/a28f7++vleDrNz7f7//v3mi3Nbz19/Ac=);lineShape=1;strokeColor=default;" vertex="1" parent="1">
          <mxGeometry x="-488.3375178129422" y="769.281961457124" width="28.0665228209009" height="53.985452430280475" as="geometry" />
        </mxCell>
        <mxCell id="K-7FDKikJOna-l3j0bXX-20" value="" style="shape=stencil(lZfbbtswDIafxrcERZ2vu+49CjRdgmVNkWantx89Q45F23/Ru0TiZ0nkT4oa/MP78entMAi/366X74ffp+fbcfBfBpHT6/FwPd301+AfB//wcrkevl0vP1+fp/9vT6Pl+OvH5df4hT8TJ1TyCAn/nQaYpP4f+DqZn0+vC/NENXXmysu+uROq3NkXygHYV6qxs3eJktsHJFOWfkOJmPcBH0n6HemIA0BwVHwHBE8hAiBTKh0QmXLeB6InZ4DcRraBQr4HkicGXtJp6cOW5k9sAxqmPg45kIAVdNq7Hqjw0Dqdaq+MQBlsSaeLkVJpI9tAJddLuzpyIHBVxdq7dRwBaq2FYr+lGlp+bAO6pdADkTwGkrdABW5VoBog4YxjbvkyE5kiXqKYQ6iYQM1QIPTqG/0AIqffq84CCQdCggVg5PSIsgKA+tSLpgookJGY0saWBK0QqTjrVlT6FIhGrrl9YhfoU043CcUUW3FfAKgwjYc2kY7N0btuXQGM3KqB6wuTplz5QBp5BSC1lqacxZYEqVXlXSwApaEJFK1bA4jDdo6ia3pUs4lcIYcCUZvWFkBBodYUXuVoQEBpZ1wABalPr/ZeGws/7BEcV0ug8vppwDW3LwOBbq28OrUKHOi1yCojhBiEOmcbOV0T9WRZmhJmQCj7fSCpOvtD65qofie2KZTVb2CFqD1bX11TbDmyDcwd1dwyqeKBl0K0zYB2XREUS19t3QgJdkBeKPVa8hlWV4k2DtocV3Bol23bp+0yapkct3t5BgTGIdhuPUGnsn0MBHg7sL1+PIyxbt406hRA4nDLkvvLBDlzVVGFAkgaNe9j5eAlwrbPc+SBFLjN3h9hFeQX29aZoZQdcTHmAo7qbGvE8EZ2tmnGNVpaEBfmQDOffJ5+aK4/7i/hl9P5PD2kl/P25axD06vbP/4D);lineShape=1;strokeColor=default;" vertex="1" parent="1">
          <mxGeometry x="-502.4401885532261" y="759.5555278491724" width="75.22927276397286" height="64.64094224466135" as="geometry" />
        </mxCell>
        <mxCell id="K-7FDKikJOna-l3j0bXX-21" value="" style="shape=stencil(lVfLctswDPwaXTEgwRfOafofmYlTe+rGGcd9/X2heqSaoLWd3GR5lySA5QKa5OF9//S2myK/X86nr7ufh+fLfpJPU4yH1/3ufLjY0ySPkzy8nM67L+fT99fn6++3pxk5P307/ZhX+HXlqRK3mRX59/VNplb+vvh8xR8Pr7f4RCwdPgQS3ia0Rhp6QqHaAEFIuSPESCrbhFoox44gTJq3CaWRpJ6g1AIgsD9SalRBlrJQ7XfIlQQQUl0OsBBKJomAECj2QVehWLcJkijVjtCYGihcrFT6GFqF0ohMuc+SylKZ+5X2IZgYM1BGoVQ8XkHIicqwviYQADUdzgMyFCjlHt+ogPPzgK8wXiZ2+SwkQKZMoS+YZmKIb+48ghVB3CtILWOgvkJlwAd0a7xCNSzecf/iU1S/PiNnWVzhBl+ATwSmOCQoA8GZFTozNbusaIfgnchKzECi8w69T5iGBJijxRAcoVGCSaouZoXOVQdR6HKNNoocXf/gVecbKvK3RqmADcJwi63uAM9UxWcUuYqd1q1fYI3ZN0y7lQmU2FzUxZsogIKFweVkKflGPr0g4iLCLTx/BB8iVddozOiBgoIunW4lrM5x34cKBdf7CjR2MZ/qa1CwhmwekD7oYtYCipwy5T6rNgKgoSVHL2tbAqU1r71xHVoynnKqF6rlrSI7lWFSa7AO1Y7UN2SrPYO0tuzNAo+CysMG0H+tX6Q+AoYNRIci8LLAfbzpUhw+AOuym9uqwyOr00HYvLy4jx86IENrMScUv76iYV/9RBGWmXALX/v8R3ieG+tfRQ0nnHmA6wNOFFFC1Y8gqwK38B/7Gvov3h7+fXq9HI7H65fb7f/+U81eXT/z5PEP);lineShape=1;strokeColor=default;" vertex="1" parent="1">
          <mxGeometry x="-603.0389800478579" y="754.2940361009282" width="32.73468191246593" height="45.89878224308177" as="geometry" />
        </mxCell>
        <mxCell id="K-7FDKikJOna-l3j0bXX-22" value="" style="shape=stencil(lVfbctpADP0aXjW70l6f0/Q/MhNSmFLIENLL31euxw4S9iF9M7YO2qOj227k4W339LrdcHi7nE/ft7/2z5fdRr5smPfH3fa8v+jTRh438vByOm+/nU/vx+fx9+vTYDk8/Tj9HP7h94hLVOIA4vBnfBGopX8vvo7mh/3xyjwyxW7sO0kE9p1qM/axUSrrAK7UigFwow48SKYSDEA6BVkHJKZij5QqVeAhdUrVAHImARz0c7MeSqQOojp8thxKpVIBoJKIAVSm3NYB+pltWGuhAjjo5+Q8qJS8DmiBgvXQ5lxZBpRJphmQoQ5dOVgdmioDjtQ1c6wOPVEFqdH7FPUZkCkDHWJQ1la5XigDqdVFt6x7pZwhIDkSWkEgrvq5uBLtk/jLAM217AEVJJNSTBZwFYdlRCYW76IhEokie0ACSnS58dAwCZ7y/0oIeCSeGteV1HcAPq4ZA5QDewAMq0bJdm99I3d0cB5k6lWrUicPqEgHTSbxgI48NN+OlUNGHG4LIk+N4bMlV4jR0Fqo6joF7rONo8HmN7SmmyJFU0sB4aYgCmo0xQ/SIQ6oDeQb5e4Akp+L944kk7CfJf2/gHabfXMjWQZEqk4H1R7khs5FP+a0qBGA/ZF0LqKCKM2vZDp5M/BQtIRtn6mZItAhNx/WGiiCkstMYpUuiRhwSHNM5pWpwv1Eml+ZdOtqQDhR4SyHFCkADyx+x9K/QEpH5WCF090YbkDEtlVGPSOon+BVEBJAIBBbc4Y7ZfD9gqehvWZu/x1vrMGP5zjNiRVzsVUWYAkEf2nQUIFmGqdc/DBHyRl9uQScOH7s41VHKFRvDiIjfguZZV4uLIqeakJ1uHC7A0lw9zKoDx8XyZf94TDeQ6+/+4unvhovrfL4Fw==);lineShape=1;strokeColor=default;" vertex="1" parent="1">
          <mxGeometry x="-616.4403475968338" y="762.5559696724004" width="56.3305959760296" height="68.27949594868232" as="geometry" />
        </mxCell>
        <mxCell id="K-7FDKikJOna-l3j0bXX-23" value="" style="shape=stencil(lVfZctswDPwavWJAgiTI5zT9j8zEqTV17YzjXn9fqBorJhStJ286dkkQWBwc5OFt//S6GyK/Xc6n77vf4/NlP8iXIcbxuN+dx4s9DfI4yMPL6bz7dj79PD7P769PE3J6+nH6Na3wZ+a1RpInVuS/85dMgf9/+DrjD+PxFi+kpcOHSKLbhFooaUeITDVsE1Qp9haJEdI2oRSqsSOkQLlsE3IhdmcOpHGbkDJp6AiFSfM2QQoF6QmVGvBSXB1aCzxDaFR6QhWqAgj2u3aExjjSfoOWKaIwUHX4RgxOwJS4x1cYhMXaBa+kFeHZ4QuMma0f/XkV6NTsTz0+kTaEb9HjGdhvGu4lZKlXgD8jhebxSEHxKpcbfAV6EJLm7ReUAz4rzZ8B2JN8Ulq8AtDb4r0bPQTgf7PH2V8pwvPmPufv6DlSqx5fQHyjL7yBF8luCKI0v0GDAuKyMghUCKacvIMaFHSoHh9gwrBzqMICxB8IgmECi1s/wwSzEr5K4AjOG0icoJdeuIFv6vEZ2B+prNZHAhKKq4KCEkZW+klUQU/6LD5RWuFRgillh2dYgGzQcIKomSoKgPoIaLsW7Y8jYBW/7xlqe4KUkUS536GYF9AkkXyXsWEEOSlbke2zONmoAEwq2fc9USgLzSR9I7BWnsAONV1/L5WrwEM3a2W9SZUYCMnqAvdOYioY71oTw0Q2fGWHR5V9ahTJ49HkVK/mvuPhpNV8K2M4UhveBYDhJGR47f25lLItfAsO34CCbhrXIiHYaaYN+oDJPYOqOjzqTG01uyYqOACfuwTdxdvD+43rZTwc5gvb7X9/Q7NP8+1OHv8B);lineShape=1;strokeColor=default;" vertex="1" parent="1">
          <mxGeometry x="-508.20413445917484" y="1080.5855615070695" width="77.61342798043597" height="49.0069056875891" as="geometry" />
        </mxCell>
        <mxCell id="K-7FDKikJOna-l3j0bXX-24" value="" style="shape=stencil(lZfLctswDEW/RlsMCPC5TtP/yEyc2lPXzjhOH39fqColkapuJztZwjFI4AIEB314Oz69Hgbht/vt+vXw4/R8Pw76aRA5XY6H2+luT4M+Dvrwcr0dvtyu75fn6ffr02g5Pn27fh//4efEKSUdIeFf0wumEP68+DyZn0+XlXkm9Y25pyD75s4Tc2PvmFzcB8x9ah24ROoAkHpAAjneBzRQzA2gShEsyQdSafesJAAIocakAkHJpX0gBiotEIUy2HTylNs9JIsbALKj0gGRSgFAougaIAux7gPFPrd5yAEuqYT6fzNg4gJhLZbp0gDFUfAAKDWIMxApIbUy93I1pz5jF92aMgmoHwMC90BBu86UQwsUWHIGdHEdF4n2kMi1YVrF4d9EJFc2LoDALdeaNptAHnxf1WOYkPw8adgkAgN/a3idapQ5T74DTE14DyX0ACyhUPvQDFgnQUCsn1cAVF/a7MEAVKR5E9ZAHi2pkJMegNIofTu2XXnQmQwonZYSCSqIUgtsJQ0o77LJQ65y3AN4Uw+K8pD7I8WAhGvUbwDUv5cgrgG0BxPfpm1EXA9lsySHPPhaX6uweiSNDwO6EZ+Hw8NygMwAUwZayptM26HFIHHZ1/+bAQ8rLhWS9oCwNw54SFLHnRkQKsBDVOI2rNHDIygIhbZEbcIRsCQvpK2WxhkKeFDz0FbcOKUBeY9jZ+vB5kAH+pJNkd1M5krthTuzAKV2SU6g+EL1P6cBCoMptlmbs7JjLq3uBJ49XH0v5orNuykd9mzuRz0HzwSugl/MGdQY952LYR/iutTFHLVe13dehk3L9eXLcO3SH5d4kLIpP/bmQPXalxXDMvzg1e6/5vaw3CJfTufzdAldf+9vnfZqurHq428=);lineShape=1;strokeColor=default;" vertex="1" parent="1">
          <mxGeometry x="-476.42896790330997" y="1061.5750571765411" width="66.03618494673037" height="79.08484960782107" as="geometry" />
        </mxCell>
        <mxCell id="K-7FDKikJOna-l3j0bXX-25" value="" style="shape=stencil(lVjbbtswDP2avBKUKInSc9f9R4Gma7AsKdLu9vdjFtixqPgEfXPsQ0q8HZLZyMP769PbdhP5/eN0/L79vXv+eN3Il02Mu8Pr9rT7sKeNPG7k4eV42n47HX8eni+/357OyPPTj+Ovs4Y/F7nWqOlZKvLfy5tIKf1/8fWC3+8OS3yl0jq8khaAL3T+tsCHRFyBgFCQ/kJMOQABJnYW2Jm6LlCVuDdBAhUGAolS7gVmq24LBGq90YlJgNHaKKReIFEUIJApuBMqJWC0MpXaCeRIua0LlEwx9AKFGhDIlhm9DSUSA7fmMPlkFlAS4NYkJH0cNFLL6wKSKPde0koNXClmb4PFHp0QlEJvg6VjBgLNZ0bLlMCNhEpvshUsCpsQF4+vIC+ij0FghlELPo+uDLKCZ/F4BXhzH3s8IiT2lWN4dP/ZuhlfpxPX8M5ehWVghd48PoNKZqqD/gAINQz+sbIE+iPFAV9BgkaqbdAP/C8TOS/vD6hOJu8t/QPsTROXL+LFwN5Ekjwe+T8NBdygfqEaPB4Rrwz3t/wH+ROpDPpxfbUef7+A41AwKCGscQyMggLGN/QHqJ8dI1ojgQThCaXe0R/d/fWOfmWPR+PEZ/FzOc34mbNvx2vI0FphhVkK5b5nVHuDUnRoxFoooZq0GPQ2KJ7RklLtg1ASTLo8f56nDyszYHQJnqdNhaAwlIlmZ4E5E9cmqNRXWipwktUhcCnCsVFtMHVzZiUFbrWxUfsTbOJRQNaWCKVPVmE8K2efSzYiMQic5abrf6HBOLRAwRGYTG9WF4TeBsULxdBBAima0NLE51d8RBuOpWpPYNbSQQOxgU/Y4VEDMbzryDy19LWNy4VsrtbbeKOrAY/06zRvLPDI/3Uin8X9Eb75BZDhxHtuR15/w/odFwU4YC766VUATVyfXqnv4u3hur+/7Pb7y/q//O73fXt1+a9AHv8B);lineShape=1;strokeColor=default;" vertex="1" parent="1">
          <mxGeometry x="-464.0579156614467" y="1149.3045951086474" width="58.75003730660001" height="80.95428284300897" as="geometry" />
        </mxCell>
        <mxCell id="K-7FDKikJOna-l3j0bXX-26" value="" style="shape=stencil(lVjLctswDPwaXzEgwec5Tf8jM3EaT9M44yR9/H3heqgKoLWZ3GQJa0IAdrnUTm5eH+9e9rvIr2+n4/f9r8P92+NOvuxiPDw/7k+HN73aye1Obh6Op/230/H9+f7y++XuHHm++nH8ef6H3xecUGtnUOQ/lxtMKf678fUS/nR4XoU3EjbhQiFthwchiSa+jPWuxzcq1cSHQLlsA2Ki4ACFsgBAp14MIAaqfRsgmWK2gEIFpJSYuNsaMVUESFSCBSQSBOgUxAIq1bwNyNplm1IKFEEfchv/twASbFwRKg7QKIGylkrdNi5rp8Eo1UDNVilr70GVavazlHX4wGzXTtkOa9Y7DMggFC0bSqSI2LMksAAyfIem02obVxpx2Ab0SNnyuerwgXfoaTxeAMpZQKBeqSQLaFADeqdkAee6VSACrAyyObUGCaFLFEuILhjQxjsugAo5qo+bTUn/AqlAL9TdCp0EMKhnahOgAVJr57KdjVXhriOWoqyXQL3WcZ4AsK6BUpjKhFZg6jw1AlBIAdWyWitd0QqB2CqTVhqJpQIcI7TSHZU1eu1TQERVEi8DegeukImLB8DZKFPj0tgztuY7dg8oQL+1r5x8WZHgKyC5+S5DGDYBrkr1IwBPwwcpV/3WruMdgDKdyxo8AE5rnlJSRUcpyZChNQCtEL15UEDG412KrxIcPiWQeACjPswUrWN+N0XAvUMhRn34NCAS221R78DGRb+j6BaUUeMiJbtCUxOHUgreGjceSW55ATet6nA6Mg9KSNsH9VABmIcW/dZe8L6rjsmphvoZ5JjqtMmpY6qgSjWOjFeerCNfqRnblHIdLu06YDJA6isTAvDQuZVzRa4vqxG1K6Q6tu7rAJ7ct8BOp+JlRg8hAkRA7X925zjdRcHw6QHDEUhkyMJ1QPQHMz07Iq8RJ2+sZzskM3pSdQ5LT4/wcJm96Qu6KSLlG1K9iAacVbXyjgyDsFfD2Z/JBI7dNHUCFY99MsptUBv2Gq/ODzRrMugBVoY9iRft2wgXO/4MNyhlS3Dh6CAZ/GAyNGuTG8QqPTlmbMkjteTDEau8uDH0K5/8uPNhuF78/470cHh6unyGWj/335301uWbldz+BQ==);lineShape=1;strokeColor=default;" vertex="1" parent="1">
          <mxGeometry x="-463.5725356496396" y="1166.4255182002398" width="65.94941712318223" height="82.46534852245304" as="geometry" />
        </mxCell>
        <mxCell id="K-7FDKikJOna-l3j0bXX-27" value="" style="shape=stencil(lVjZbhsxDPwavxKSKOp4Ttv/CBCnMZrGgZNef19uDa2XtDxB3zbOjERyeO3u+O7t6f51v0vh7f10/Lb/dXh4f9rxp11Kh5en/enwrk87/rzju8fjaf/1dPzx8nD++/V+QS5P348/lxN+n3m9U4wLK4U/51+EUvv3w5cz/vnwssULlWDwjRrCR2rJ4GOimm8TWqXqCHWYOCcwxWIISe8Mtwm1EXdLKJSASZWpiSFwgEEqnbL1gTNFBgSh0CyhUaiAEKhbH3KCBKkUrG65EIMoSfI3SKAKCLlRtz6IDGXmhDwSYSX0Eeg5IVCphlAylXSbwIW6dfqizJyguWR9qFi4pOdZkzS7BOig5ZVtLrVEApzWZI6u4AoFYFK8UrppjYP0jkzZ6qBF20HFZV+hfY3CPKqjHDf4DjIpUYtX+A4coJY9vgL7ow+Q4gM4PxDbpOiNEjg/ULASd+1gQOIw9FzxWGG1x+EzdXh+Tx4fAD76uuyaIVCv0j0+gPbIE3wEValFzh4vAC/D2o2/CcRTqLvzZbSBefP1A0f1SqhZj868yQcG+Sa+zWm+oa4lk3xOqI+OaG/waGDyaB/rRA5hXHkjIaJcXYA6EKXi8QwLQIoPkEB8ZC8ASqBwFdACC0C3AYcXOFvXQbpJUAb2RD8zlgIACRqvGjrGV9+wWocrVwxeMJ1JKKA6YlyJ6dbWUEuvfploAfY49blbn2vFBK0y67SO+gzWFR31bFWrGga8TLi+rmsekmFZVxwhjG17Xsg6yawOunIVENYsXjhZh8OcoJ3E7ZkF9yImtjeokUgHXUzFOs11lPe8m+p4crsyQ+FKGTKt+34fBTIvhzC2ypWgYQU3VO3ANvkuM3RO6N5pTfgMOli7KiB9jUImtXa1NsIdZ1n5nG5wZmqHEzuktKkBmbWDOnt0iwERUnyNDg/t15EqHg9KR/Hu9eaD83XCeDwjf7sfshofoJfixdofiUEL7t2/k+Iy24zsNUdhAk0IDLeWy4y/ZBCMqHrs8RVl3P9+qfgQrw+XzyKPh+fn81eV7f/9ZxT96fwJhj//BQ==);lineShape=1;strokeColor=default;" vertex="1" parent="1">
          <mxGeometry x="-475.7978431121178" y="1254.1624010054093" width="68.62250288977702" height="60.94157919643294" as="geometry" />
        </mxCell>
        <mxCell id="K-7FDKikJOna-l3j0bXX-28" value="" style="shape=stencil(lVhJcttADHwNr6jB7Dg7zj9cZTlSRZFcsrL9PmBYw3BAsRXdZBpNLN3AYDiEp4/9y/tu8O7jejl/3f08vF73Q/g0eH847XeXw1V/DeF5CE9v58vuy+X8/fQ6/f3+MlqOv76df4xv+DXhRKiUEeXd7+mJJyd/H3ye7I+H08KenSPnOkCm7LYB6kB6e3ZUgAeplLgHJKrIQ6IQ+hRwDuKoph4g5Ms2oEaS3kMolOM2oNQWcQPETA54KIF87yEFSnkbkCuN/1vS4GDSOVIwvCWKCQCYWHrArJWbgFSpxA6gWYUKAJFS70HrhjzEQqEH1NBecRvAlGoPyMSgrEGr1LdDVSrDNkDVb5IWpghy8EpTLz4JJIAHjpQNILdX3NYSSd8/2oIBpJCb0Bb2lQFt5PqMFzPhdlEpysoBYE27t1r7COwdiUkAc+bIR2uP4l9NPCmwmV0bJgvCGEwLJmcI04kGCPDERhAqERCP9kix9h71JbG39oxGS5uFC/sI6qkCXcWD9FBX9omyB/OdUrD1R/qRdoAt+I1AP0Js4qkUAL86qlf6Z8BvsQ2m9hnytW5gQWN0pWdpHbShN1tPaSNpQ8/rfB2I37VqL+rpYb87o88Czxm30rPqAfCl+8mqHxOoJ1Mx8aueQT0ftddj1/DLsD48j4/5EJN2+N8mWCdKH5EekwUpQtoZNwMiHIkhN8XPAD2aAQeRrYcicGjpbmDWlZJhlRKT9MdMYTgmdF0xgFzak62FKPWNnAMkOnurvPEVwIMGYDwkj3cD3ybtvJhGyMO4kfXNM1IJtKRCMFrSeVbRdNQi9jloA6L9Q9d3M490RRJ0QfB2YOgVBC3XCjAn5p07jm83mv+7RMmKBYZrrG6IbO3RAaL2uY/fUUbvX90NHAVUn2R32HnEbtnXbOzRwqXzudh4oL22gX8knmo3tDv5VnuHvVNPsbeIO3yJ5euOHh68tN+31x//vhC8HY7H6QPD8v/2i4I+mr5GhOc/);lineShape=1;strokeColor=default;" vertex="1" parent="1">
          <mxGeometry x="-152.61364310984936" y="820.4664866985308" width="44.25880595793569" height="73.31305295566017" as="geometry" />
        </mxCell>
        <mxCell id="K-7FDKikJOna-l3j0bXX-29" value="" style="shape=stencil(lVfZctswDPwavWJ4k3hO0//ITJzaU9fOOO7194UqUxZBaT15syWsCOzi4uCfPvYv77vBmY/r5fx99/vwet0P/svg3OG0310OV/k1+OfBP72dL7tvl/PP0+v0//1ltBx//Tj/Gr/wZ8J5SnEEOfN3emCI3f8HXyfz4+G0ME/1bTVPlHnb3Fry3NjbQAYBMsXWH/HQ2G2ACxRagHcUyjZAXpc2hDA/WQUEW0OsgOgoApeiJedbkiyFAEi1ZFILYMpIBSY2DSAnimkbkAvZlqXiqvCrgBIp5hZQyABaeQ6xAtiRAywxa5Y4k/EQkJIGBHwCdyfceFtPPmPItLxyoYB9KlkDGPAqAJXf8uRBEDfaF4AMpBYHbsm5ADACZCrdCQxqVACuAxQUdKoeLwAoXQXguxMsqCAB2E6HhIRbA1iQG6NLXfZFxJIEHTTAYh2cSo1E5YFwHSCjXJJkzh0A0SrJ153AuB5iV3Iu4wLqaM3ghPUadbjkOGhARq1MGk2XfQ4JwZ1yc6/aEiL3NYqVM2qO3nnYSg6tNcPJzt1oH4NA0n0WULimwgyQ4Q1oKp684tWQB0HnqF0qAZZQypRaIWRSooqIRe9L2VIByoVSOZlnu6cAdPBdw4+h0rC+AXGdOPNCEyiCE5zVqeEDnO2ys4XWJdm6IlKabGtvYx176zF3y0b9wKq5IdsWg6u9ecPctPVvieHXVX+xsM+LeVbmDqSo0a3CUAHtzlQl7+Zo9TR6lBvYuGytprs5zAPK2nfUgub9b2GONnm93onMqE70ziytAXxdik6HilT95LXoobn8uN/A3g7H43SBW77XNzZ5NN32/PM/);lineShape=1;strokeColor=default;" vertex="1" parent="1">
          <mxGeometry x="-150.41439868303087" y="832.5905899326376" width="73.55705941209044" height="86.00375150048922" as="geometry" />
        </mxCell>
        <mxCell id="K-7FDKikJOna-l3j0bXX-30" value="" style="shape=stencil(lVfZUhtBDPwav6qkueeZkP+gChNccTBlIMffRxtnwkpj2s7bet3akVpXzybevDzePW83gV9ej4ev2x+7+9fHTfy0CWH39Lg97l71aRNvN/Hm4XDcfjke3p7uT7+f7xbk8vTt8H35ws+TXe+U62IV+NfpTaCS/7z4fMLvd09rfKXOBp8oNIDPJBZfiQvAC3E3eBHKwKGWKQVr0OAJtVMQG7F+QoBBJLYnxEANnFAKdRtDYuIKDISCTUIqVMEJORNnY5Aj9fSxQdK0WQM9s4G8LR43mzeGiVZOJFqDRgkErYUT7QmaygYMpPpMa7EU4JJWTrGZ1mqsINOFmiWpNxwzReeQdlP8GM/UrD/CSjMjA9ecekAHFDHF7PENBMwk0/dxADx9X6A/zJ5QVNeKjx4fQfOr/8ni6yV+xOMLxOfg8akj/N/o1njAp0z8VMqgHsSPLsVXiI/V88mgHmR07Jp/EK8MNlZ4VG8y2FjVTwjQf/b4jEYEydSQDTdk9/gOGp7HblzjYT34idXh1OXBxgpfcD82j49wnrCrnzbW+dX4BP3nqR4Y8hOm/sXzIWWPx/OqNI9H/fi/eFUGk/8C5lWZ6j9TB/HKpIZ6HBScNyh+xbQOJ5aGUG2LNX2DQpYhlv7t+UIRxBC1JC1JRbcqKDrVKmKzkPEWyypBnRrC4qZoHdk5nRKco6roxBrEBhd3DT6GqLsBTC4VS9GeoJlB2qMlytZA8pAv55X1PFwoICWext/vSj+DStLS98qdCqBoWRXWHx4kn8d3vyx5dN9HeOkej/zpY9Vd/X0nzi76X6PDI22zrIri8AV0wbKKssN3tIt5UmcyxvH1Bmgbzx4J3DZzxAEOipnRMPr6yoxduOtexOvD+8X6Ybffn+7l6//9RVxfnS7x8fY3);lineShape=1;strokeColor=default;" vertex="1" parent="1">
          <mxGeometry x="-1588.619786873102" y="399.5536853305348" width="178.05570792781714" height="102.98182805788065" as="geometry" />
        </mxCell>
        <mxCell id="K-7FDKikJOna-l3j0bXX-31" value="" style="shape=stencil(lZfJbttADIafRleCsw/PafoeAeLURl07cNzt7UtDHVvDsf7ANy38JO7kTOHpY/vyvpk8f5xPx++b37vX83YKXybvd4ft5rQ769UUnqfw9HY8bb6djj8Pr/P9+8tF8nL14/jr8oU/M+fJhQvk+e/8gCnMD77O4vvdYSGeyadOPJLndXHnyddOXqi6dXn9e3KdvCuU4zoQHBXuAF9JgEYxUuqB6Kj6dSAV4l6lFEmADblSlA7I+gng01Io9E4qmRxQqUYKvUo1kC8AkObEK1Ap5XVAAqUeEE9BADAkhqTmt/vAoJJUYhBpBWq1QEgg95iJ2RIF6yTmF0JcsU7BAhGEWl//d/sCKCDU+tqzBQQBlWoPLPywRoTBakHJUQe/4qoWrWGxQAKhUyAOgEdWK+BtqOtjf9CyRaFWG4b0c/gPNpkKVVRCGodsgYKSSbO5WCDjdHWDSgVFWoY2oFYho6X10oWXPK5qKRZIwIb7VQ3TVZrbF8kUcM3loUgzruowtIGKK0iiBQTnRvIPAm4AKhgRl0wYvJRxfj8IxCGZMkXUmFzrdFcgwIKoQ2OqAkuu+qbxFVAlgZdKat36OqoLbPg5Wy/peoCSLyU725OOVtBco7czKAZywIbAdqHRJx5kq9NW2gfO6VhEAFM2M8i1PfC+DZR6E1Lb6u6Kc5v718/DKHNzx008A/+oe+zXUYSHduTIAd+oeJ9A/JnuVhytw9zWwJt4BLnDdggynLJMJRlxBrq7tvUuxIEyzjZRvLZoEK1nGG2D7VRwE0dF8uCx6FNxvbidwN52+/18gFu+tyc2fTSf9sLzPw==);lineShape=1;strokeColor=default;" vertex="1" parent="1">
          <mxGeometry x="-1502.413624174987" y="421.5889356947823" width="114.17218711327723" height="127.13100824945877" as="geometry" />
        </mxCell>
        <mxCell id="K-7FDKikJOna-l3j0bXX-32" value="" style="shape=stencil(lVfLctswDPwaXTEkQRLkOU3/IzNxak1dO+M4ffx9oapURMjaTm+KsyAJ7AJcDvzwdnx6PQzBvd2ul6+HH+Pz7TjwpyGE8Xw8XMebfg38OPDDy+V6+HK9vJ+f579fnybk9PXt8n1a4eccVysVP0UF92v+hSnmPz98nvGn8bzGC9XQ4QtJBXim0K/vhTIIKJl87QJ0hxD2A0TIxz4DzansB+RE4rqA5InBkVIk7nNOlcTvB0RNuj9S1qxAADP50gWIIwE0hEQh9QFMlfcDfKUgfUCGVfKxrbcQ7WAO3lPOfQBTAjtUW6QiFAENYoVRPSUgDGWtV14tFBMggUpfUu0NJDwlmS1ewPqBkukE58g5UFESsRtAjskVi09ARK6Vb1WgChJW/pPFO0Dwkt2CVwrh+s4QrF0Dzx8NwdoV8DxG0TVCgaq8qsX/HTU7BLNZX3sSCJrJ5c36IF9uQ2eFz0AP0Y5erQ8DgcaNHnJr0T28qY+0HXfwcaM3lG8kt9Un4Itbe6/0n0F/hTZi1/0FG9j5DR7wq7eKs3iB+s/V4rH+w6YfGfejqafAgah4o+dMUeB5zPxJlOD6d/BY/309S4F6y218ry6kirwNxX59Uf0A/Xu2BAu+5r3qva+oBKy4zR2WsbfhQL4/kjoPdClFT9XsEJoXuW+GwsY9pbbEfRa4FbEFRIE5SLRzjnOzFvctIzffsFjGRB4ItTrLw+R2QJV00JqrJkOroo2SzAaNyD289K3gqIDJPl2kzuAjUGoVWyEHJ8vk8r3BO3T+0i6WFR5M3ro8GlbnQflW648ddOyT8QkGj+z0NJh7q+WbudvD12jwAgS3cnqLRIkRYbVNqg88smb//Yz7J14/Pt6ML+PpND851/+3b0z9aX6f8uNv);lineShape=1;strokeColor=default;" vertex="1" parent="1">
          <mxGeometry x="-228.4648092137304" y="507.56279600332346" width="78.90912629757031" height="60.19779584246271" as="geometry" />
        </mxCell>
        <mxCell id="K-7FDKikJOna-l3j0bXX-33" value="" style="shape=stencil(lVfLctswDPwaXTEkQRLkOU3/IzNxak1dO+M4ffx9oap0RMhaT26yjCUIYLGABn542z+97obg3i7n0/fdr/H5sh/4yxDCeNzvzuNFnwZ+HPjh5XTefTuf3o/P8+/Xp8lyevpx+jmd8HvGRYpxAgX3Z37hqMi/F19n88N4XJh7Jpc6e++opm1ASORdBwhMxW8DoiNXOgAXqmUbkBJl3wFSbJe8CciFpPeQMzHwIIUydwBRn3UbUBKxdIDiSUBaqwade0Ci4gAgUjUeKnkGgNpCbAA9IoOgFVD6oOs10bep4TSIvtQ1U87YRR9EFRLgQgGxZ18t2IOWuvYAPQLlVRqbF4CCPAi5Pk2LPNxGZPLBuhDAJs07ewsI6E6xsXORpojoF4nZFiKiK0UKpnKZIqJfpGS4kXAh0opMegTiRiIxMajQABmYyOktAAYtlOIKgNKqWQ8WACutPSw26P9HbAHE27QG7KEaGVDtQ3VQgAlaiHFTZxN0uQcwHTSlASlToRAtQCIsHK8AFWVJybzquIrZmrIF3Ok4K30qVbinPwnwbcwuuIQqXaQNkMVIqaCnS2gXWAytBDpOp2Y1c7S29eP2pM522xBHAYhACm3MXncBgYVjle9eKmOAeh881Z7eQTD5KPUOvI5uEIKzSVUhBERydtPAKunI96TAGrma6Ewem/d9FuBQ0Fr2qdQlCZ6ezOoJNx7XWvxjs83A3FNiY45mbLDNco19w9xUFe8IbJc1B0Nlu7Q4ODU+ufPfNdeHj8+Ll/FwmL9Olv/bzxF9NX/K8ONf);lineShape=1;strokeColor=default;" vertex="1" parent="1">
          <mxGeometry x="-222.58595263707593" y="500.4140569604265" width="60.99753314451118" height="53.40700443395326" as="geometry" />
        </mxCell>
      </root>
    </mxGraphModel>
  </diagram>
</mxfile>
